G04 EAGLE Gerber RS-274X export*
G75*
%MOMM*%
%FSLAX34Y34*%
%LPD*%
%INBoard Outline*%
%IPPOS*%
%AMOC8*
5,1,8,0,0,1.08239X$1,22.5*%
G01*
%ADD10C,0.000000*%
%ADD11C,0.020000*%
%ADD12C,0.254000*%


D10*
X0Y0D02*
X1000000Y0D01*
X1000000Y750000D01*
X0Y750000D01*
X0Y0D01*
X35000Y50000D02*
X35005Y50368D01*
X35018Y50736D01*
X35041Y51103D01*
X35072Y51470D01*
X35113Y51836D01*
X35162Y52201D01*
X35221Y52564D01*
X35288Y52926D01*
X35364Y53287D01*
X35450Y53645D01*
X35543Y54001D01*
X35646Y54354D01*
X35757Y54705D01*
X35877Y55053D01*
X36005Y55398D01*
X36142Y55740D01*
X36287Y56079D01*
X36440Y56413D01*
X36602Y56744D01*
X36771Y57071D01*
X36949Y57393D01*
X37134Y57712D01*
X37327Y58025D01*
X37528Y58334D01*
X37736Y58637D01*
X37952Y58935D01*
X38175Y59228D01*
X38405Y59516D01*
X38642Y59798D01*
X38886Y60073D01*
X39136Y60343D01*
X39393Y60607D01*
X39657Y60864D01*
X39927Y61114D01*
X40202Y61358D01*
X40484Y61595D01*
X40772Y61825D01*
X41065Y62048D01*
X41363Y62264D01*
X41666Y62472D01*
X41975Y62673D01*
X42288Y62866D01*
X42607Y63051D01*
X42929Y63229D01*
X43256Y63398D01*
X43587Y63560D01*
X43921Y63713D01*
X44260Y63858D01*
X44602Y63995D01*
X44947Y64123D01*
X45295Y64243D01*
X45646Y64354D01*
X45999Y64457D01*
X46355Y64550D01*
X46713Y64636D01*
X47074Y64712D01*
X47436Y64779D01*
X47799Y64838D01*
X48164Y64887D01*
X48530Y64928D01*
X48897Y64959D01*
X49264Y64982D01*
X49632Y64995D01*
X50000Y65000D01*
X50368Y64995D01*
X50736Y64982D01*
X51103Y64959D01*
X51470Y64928D01*
X51836Y64887D01*
X52201Y64838D01*
X52564Y64779D01*
X52926Y64712D01*
X53287Y64636D01*
X53645Y64550D01*
X54001Y64457D01*
X54354Y64354D01*
X54705Y64243D01*
X55053Y64123D01*
X55398Y63995D01*
X55740Y63858D01*
X56079Y63713D01*
X56413Y63560D01*
X56744Y63398D01*
X57071Y63229D01*
X57393Y63051D01*
X57712Y62866D01*
X58025Y62673D01*
X58334Y62472D01*
X58637Y62264D01*
X58935Y62048D01*
X59228Y61825D01*
X59516Y61595D01*
X59798Y61358D01*
X60073Y61114D01*
X60343Y60864D01*
X60607Y60607D01*
X60864Y60343D01*
X61114Y60073D01*
X61358Y59798D01*
X61595Y59516D01*
X61825Y59228D01*
X62048Y58935D01*
X62264Y58637D01*
X62472Y58334D01*
X62673Y58025D01*
X62866Y57712D01*
X63051Y57393D01*
X63229Y57071D01*
X63398Y56744D01*
X63560Y56413D01*
X63713Y56079D01*
X63858Y55740D01*
X63995Y55398D01*
X64123Y55053D01*
X64243Y54705D01*
X64354Y54354D01*
X64457Y54001D01*
X64550Y53645D01*
X64636Y53287D01*
X64712Y52926D01*
X64779Y52564D01*
X64838Y52201D01*
X64887Y51836D01*
X64928Y51470D01*
X64959Y51103D01*
X64982Y50736D01*
X64995Y50368D01*
X65000Y50000D01*
X64995Y49632D01*
X64982Y49264D01*
X64959Y48897D01*
X64928Y48530D01*
X64887Y48164D01*
X64838Y47799D01*
X64779Y47436D01*
X64712Y47074D01*
X64636Y46713D01*
X64550Y46355D01*
X64457Y45999D01*
X64354Y45646D01*
X64243Y45295D01*
X64123Y44947D01*
X63995Y44602D01*
X63858Y44260D01*
X63713Y43921D01*
X63560Y43587D01*
X63398Y43256D01*
X63229Y42929D01*
X63051Y42607D01*
X62866Y42288D01*
X62673Y41975D01*
X62472Y41666D01*
X62264Y41363D01*
X62048Y41065D01*
X61825Y40772D01*
X61595Y40484D01*
X61358Y40202D01*
X61114Y39927D01*
X60864Y39657D01*
X60607Y39393D01*
X60343Y39136D01*
X60073Y38886D01*
X59798Y38642D01*
X59516Y38405D01*
X59228Y38175D01*
X58935Y37952D01*
X58637Y37736D01*
X58334Y37528D01*
X58025Y37327D01*
X57712Y37134D01*
X57393Y36949D01*
X57071Y36771D01*
X56744Y36602D01*
X56413Y36440D01*
X56079Y36287D01*
X55740Y36142D01*
X55398Y36005D01*
X55053Y35877D01*
X54705Y35757D01*
X54354Y35646D01*
X54001Y35543D01*
X53645Y35450D01*
X53287Y35364D01*
X52926Y35288D01*
X52564Y35221D01*
X52201Y35162D01*
X51836Y35113D01*
X51470Y35072D01*
X51103Y35041D01*
X50736Y35018D01*
X50368Y35005D01*
X50000Y35000D01*
X49632Y35005D01*
X49264Y35018D01*
X48897Y35041D01*
X48530Y35072D01*
X48164Y35113D01*
X47799Y35162D01*
X47436Y35221D01*
X47074Y35288D01*
X46713Y35364D01*
X46355Y35450D01*
X45999Y35543D01*
X45646Y35646D01*
X45295Y35757D01*
X44947Y35877D01*
X44602Y36005D01*
X44260Y36142D01*
X43921Y36287D01*
X43587Y36440D01*
X43256Y36602D01*
X42929Y36771D01*
X42607Y36949D01*
X42288Y37134D01*
X41975Y37327D01*
X41666Y37528D01*
X41363Y37736D01*
X41065Y37952D01*
X40772Y38175D01*
X40484Y38405D01*
X40202Y38642D01*
X39927Y38886D01*
X39657Y39136D01*
X39393Y39393D01*
X39136Y39657D01*
X38886Y39927D01*
X38642Y40202D01*
X38405Y40484D01*
X38175Y40772D01*
X37952Y41065D01*
X37736Y41363D01*
X37528Y41666D01*
X37327Y41975D01*
X37134Y42288D01*
X36949Y42607D01*
X36771Y42929D01*
X36602Y43256D01*
X36440Y43587D01*
X36287Y43921D01*
X36142Y44260D01*
X36005Y44602D01*
X35877Y44947D01*
X35757Y45295D01*
X35646Y45646D01*
X35543Y45999D01*
X35450Y46355D01*
X35364Y46713D01*
X35288Y47074D01*
X35221Y47436D01*
X35162Y47799D01*
X35113Y48164D01*
X35072Y48530D01*
X35041Y48897D01*
X35018Y49264D01*
X35005Y49632D01*
X35000Y50000D01*
X935000Y50000D02*
X935005Y50368D01*
X935018Y50736D01*
X935041Y51103D01*
X935072Y51470D01*
X935113Y51836D01*
X935162Y52201D01*
X935221Y52564D01*
X935288Y52926D01*
X935364Y53287D01*
X935450Y53645D01*
X935543Y54001D01*
X935646Y54354D01*
X935757Y54705D01*
X935877Y55053D01*
X936005Y55398D01*
X936142Y55740D01*
X936287Y56079D01*
X936440Y56413D01*
X936602Y56744D01*
X936771Y57071D01*
X936949Y57393D01*
X937134Y57712D01*
X937327Y58025D01*
X937528Y58334D01*
X937736Y58637D01*
X937952Y58935D01*
X938175Y59228D01*
X938405Y59516D01*
X938642Y59798D01*
X938886Y60073D01*
X939136Y60343D01*
X939393Y60607D01*
X939657Y60864D01*
X939927Y61114D01*
X940202Y61358D01*
X940484Y61595D01*
X940772Y61825D01*
X941065Y62048D01*
X941363Y62264D01*
X941666Y62472D01*
X941975Y62673D01*
X942288Y62866D01*
X942607Y63051D01*
X942929Y63229D01*
X943256Y63398D01*
X943587Y63560D01*
X943921Y63713D01*
X944260Y63858D01*
X944602Y63995D01*
X944947Y64123D01*
X945295Y64243D01*
X945646Y64354D01*
X945999Y64457D01*
X946355Y64550D01*
X946713Y64636D01*
X947074Y64712D01*
X947436Y64779D01*
X947799Y64838D01*
X948164Y64887D01*
X948530Y64928D01*
X948897Y64959D01*
X949264Y64982D01*
X949632Y64995D01*
X950000Y65000D01*
X950368Y64995D01*
X950736Y64982D01*
X951103Y64959D01*
X951470Y64928D01*
X951836Y64887D01*
X952201Y64838D01*
X952564Y64779D01*
X952926Y64712D01*
X953287Y64636D01*
X953645Y64550D01*
X954001Y64457D01*
X954354Y64354D01*
X954705Y64243D01*
X955053Y64123D01*
X955398Y63995D01*
X955740Y63858D01*
X956079Y63713D01*
X956413Y63560D01*
X956744Y63398D01*
X957071Y63229D01*
X957393Y63051D01*
X957712Y62866D01*
X958025Y62673D01*
X958334Y62472D01*
X958637Y62264D01*
X958935Y62048D01*
X959228Y61825D01*
X959516Y61595D01*
X959798Y61358D01*
X960073Y61114D01*
X960343Y60864D01*
X960607Y60607D01*
X960864Y60343D01*
X961114Y60073D01*
X961358Y59798D01*
X961595Y59516D01*
X961825Y59228D01*
X962048Y58935D01*
X962264Y58637D01*
X962472Y58334D01*
X962673Y58025D01*
X962866Y57712D01*
X963051Y57393D01*
X963229Y57071D01*
X963398Y56744D01*
X963560Y56413D01*
X963713Y56079D01*
X963858Y55740D01*
X963995Y55398D01*
X964123Y55053D01*
X964243Y54705D01*
X964354Y54354D01*
X964457Y54001D01*
X964550Y53645D01*
X964636Y53287D01*
X964712Y52926D01*
X964779Y52564D01*
X964838Y52201D01*
X964887Y51836D01*
X964928Y51470D01*
X964959Y51103D01*
X964982Y50736D01*
X964995Y50368D01*
X965000Y50000D01*
X964995Y49632D01*
X964982Y49264D01*
X964959Y48897D01*
X964928Y48530D01*
X964887Y48164D01*
X964838Y47799D01*
X964779Y47436D01*
X964712Y47074D01*
X964636Y46713D01*
X964550Y46355D01*
X964457Y45999D01*
X964354Y45646D01*
X964243Y45295D01*
X964123Y44947D01*
X963995Y44602D01*
X963858Y44260D01*
X963713Y43921D01*
X963560Y43587D01*
X963398Y43256D01*
X963229Y42929D01*
X963051Y42607D01*
X962866Y42288D01*
X962673Y41975D01*
X962472Y41666D01*
X962264Y41363D01*
X962048Y41065D01*
X961825Y40772D01*
X961595Y40484D01*
X961358Y40202D01*
X961114Y39927D01*
X960864Y39657D01*
X960607Y39393D01*
X960343Y39136D01*
X960073Y38886D01*
X959798Y38642D01*
X959516Y38405D01*
X959228Y38175D01*
X958935Y37952D01*
X958637Y37736D01*
X958334Y37528D01*
X958025Y37327D01*
X957712Y37134D01*
X957393Y36949D01*
X957071Y36771D01*
X956744Y36602D01*
X956413Y36440D01*
X956079Y36287D01*
X955740Y36142D01*
X955398Y36005D01*
X955053Y35877D01*
X954705Y35757D01*
X954354Y35646D01*
X954001Y35543D01*
X953645Y35450D01*
X953287Y35364D01*
X952926Y35288D01*
X952564Y35221D01*
X952201Y35162D01*
X951836Y35113D01*
X951470Y35072D01*
X951103Y35041D01*
X950736Y35018D01*
X950368Y35005D01*
X950000Y35000D01*
X949632Y35005D01*
X949264Y35018D01*
X948897Y35041D01*
X948530Y35072D01*
X948164Y35113D01*
X947799Y35162D01*
X947436Y35221D01*
X947074Y35288D01*
X946713Y35364D01*
X946355Y35450D01*
X945999Y35543D01*
X945646Y35646D01*
X945295Y35757D01*
X944947Y35877D01*
X944602Y36005D01*
X944260Y36142D01*
X943921Y36287D01*
X943587Y36440D01*
X943256Y36602D01*
X942929Y36771D01*
X942607Y36949D01*
X942288Y37134D01*
X941975Y37327D01*
X941666Y37528D01*
X941363Y37736D01*
X941065Y37952D01*
X940772Y38175D01*
X940484Y38405D01*
X940202Y38642D01*
X939927Y38886D01*
X939657Y39136D01*
X939393Y39393D01*
X939136Y39657D01*
X938886Y39927D01*
X938642Y40202D01*
X938405Y40484D01*
X938175Y40772D01*
X937952Y41065D01*
X937736Y41363D01*
X937528Y41666D01*
X937327Y41975D01*
X937134Y42288D01*
X936949Y42607D01*
X936771Y42929D01*
X936602Y43256D01*
X936440Y43587D01*
X936287Y43921D01*
X936142Y44260D01*
X936005Y44602D01*
X935877Y44947D01*
X935757Y45295D01*
X935646Y45646D01*
X935543Y45999D01*
X935450Y46355D01*
X935364Y46713D01*
X935288Y47074D01*
X935221Y47436D01*
X935162Y47799D01*
X935113Y48164D01*
X935072Y48530D01*
X935041Y48897D01*
X935018Y49264D01*
X935005Y49632D01*
X935000Y50000D01*
X935000Y700000D02*
X935005Y700368D01*
X935018Y700736D01*
X935041Y701103D01*
X935072Y701470D01*
X935113Y701836D01*
X935162Y702201D01*
X935221Y702564D01*
X935288Y702926D01*
X935364Y703287D01*
X935450Y703645D01*
X935543Y704001D01*
X935646Y704354D01*
X935757Y704705D01*
X935877Y705053D01*
X936005Y705398D01*
X936142Y705740D01*
X936287Y706079D01*
X936440Y706413D01*
X936602Y706744D01*
X936771Y707071D01*
X936949Y707393D01*
X937134Y707712D01*
X937327Y708025D01*
X937528Y708334D01*
X937736Y708637D01*
X937952Y708935D01*
X938175Y709228D01*
X938405Y709516D01*
X938642Y709798D01*
X938886Y710073D01*
X939136Y710343D01*
X939393Y710607D01*
X939657Y710864D01*
X939927Y711114D01*
X940202Y711358D01*
X940484Y711595D01*
X940772Y711825D01*
X941065Y712048D01*
X941363Y712264D01*
X941666Y712472D01*
X941975Y712673D01*
X942288Y712866D01*
X942607Y713051D01*
X942929Y713229D01*
X943256Y713398D01*
X943587Y713560D01*
X943921Y713713D01*
X944260Y713858D01*
X944602Y713995D01*
X944947Y714123D01*
X945295Y714243D01*
X945646Y714354D01*
X945999Y714457D01*
X946355Y714550D01*
X946713Y714636D01*
X947074Y714712D01*
X947436Y714779D01*
X947799Y714838D01*
X948164Y714887D01*
X948530Y714928D01*
X948897Y714959D01*
X949264Y714982D01*
X949632Y714995D01*
X950000Y715000D01*
X950368Y714995D01*
X950736Y714982D01*
X951103Y714959D01*
X951470Y714928D01*
X951836Y714887D01*
X952201Y714838D01*
X952564Y714779D01*
X952926Y714712D01*
X953287Y714636D01*
X953645Y714550D01*
X954001Y714457D01*
X954354Y714354D01*
X954705Y714243D01*
X955053Y714123D01*
X955398Y713995D01*
X955740Y713858D01*
X956079Y713713D01*
X956413Y713560D01*
X956744Y713398D01*
X957071Y713229D01*
X957393Y713051D01*
X957712Y712866D01*
X958025Y712673D01*
X958334Y712472D01*
X958637Y712264D01*
X958935Y712048D01*
X959228Y711825D01*
X959516Y711595D01*
X959798Y711358D01*
X960073Y711114D01*
X960343Y710864D01*
X960607Y710607D01*
X960864Y710343D01*
X961114Y710073D01*
X961358Y709798D01*
X961595Y709516D01*
X961825Y709228D01*
X962048Y708935D01*
X962264Y708637D01*
X962472Y708334D01*
X962673Y708025D01*
X962866Y707712D01*
X963051Y707393D01*
X963229Y707071D01*
X963398Y706744D01*
X963560Y706413D01*
X963713Y706079D01*
X963858Y705740D01*
X963995Y705398D01*
X964123Y705053D01*
X964243Y704705D01*
X964354Y704354D01*
X964457Y704001D01*
X964550Y703645D01*
X964636Y703287D01*
X964712Y702926D01*
X964779Y702564D01*
X964838Y702201D01*
X964887Y701836D01*
X964928Y701470D01*
X964959Y701103D01*
X964982Y700736D01*
X964995Y700368D01*
X965000Y700000D01*
X964995Y699632D01*
X964982Y699264D01*
X964959Y698897D01*
X964928Y698530D01*
X964887Y698164D01*
X964838Y697799D01*
X964779Y697436D01*
X964712Y697074D01*
X964636Y696713D01*
X964550Y696355D01*
X964457Y695999D01*
X964354Y695646D01*
X964243Y695295D01*
X964123Y694947D01*
X963995Y694602D01*
X963858Y694260D01*
X963713Y693921D01*
X963560Y693587D01*
X963398Y693256D01*
X963229Y692929D01*
X963051Y692607D01*
X962866Y692288D01*
X962673Y691975D01*
X962472Y691666D01*
X962264Y691363D01*
X962048Y691065D01*
X961825Y690772D01*
X961595Y690484D01*
X961358Y690202D01*
X961114Y689927D01*
X960864Y689657D01*
X960607Y689393D01*
X960343Y689136D01*
X960073Y688886D01*
X959798Y688642D01*
X959516Y688405D01*
X959228Y688175D01*
X958935Y687952D01*
X958637Y687736D01*
X958334Y687528D01*
X958025Y687327D01*
X957712Y687134D01*
X957393Y686949D01*
X957071Y686771D01*
X956744Y686602D01*
X956413Y686440D01*
X956079Y686287D01*
X955740Y686142D01*
X955398Y686005D01*
X955053Y685877D01*
X954705Y685757D01*
X954354Y685646D01*
X954001Y685543D01*
X953645Y685450D01*
X953287Y685364D01*
X952926Y685288D01*
X952564Y685221D01*
X952201Y685162D01*
X951836Y685113D01*
X951470Y685072D01*
X951103Y685041D01*
X950736Y685018D01*
X950368Y685005D01*
X950000Y685000D01*
X949632Y685005D01*
X949264Y685018D01*
X948897Y685041D01*
X948530Y685072D01*
X948164Y685113D01*
X947799Y685162D01*
X947436Y685221D01*
X947074Y685288D01*
X946713Y685364D01*
X946355Y685450D01*
X945999Y685543D01*
X945646Y685646D01*
X945295Y685757D01*
X944947Y685877D01*
X944602Y686005D01*
X944260Y686142D01*
X943921Y686287D01*
X943587Y686440D01*
X943256Y686602D01*
X942929Y686771D01*
X942607Y686949D01*
X942288Y687134D01*
X941975Y687327D01*
X941666Y687528D01*
X941363Y687736D01*
X941065Y687952D01*
X940772Y688175D01*
X940484Y688405D01*
X940202Y688642D01*
X939927Y688886D01*
X939657Y689136D01*
X939393Y689393D01*
X939136Y689657D01*
X938886Y689927D01*
X938642Y690202D01*
X938405Y690484D01*
X938175Y690772D01*
X937952Y691065D01*
X937736Y691363D01*
X937528Y691666D01*
X937327Y691975D01*
X937134Y692288D01*
X936949Y692607D01*
X936771Y692929D01*
X936602Y693256D01*
X936440Y693587D01*
X936287Y693921D01*
X936142Y694260D01*
X936005Y694602D01*
X935877Y694947D01*
X935757Y695295D01*
X935646Y695646D01*
X935543Y695999D01*
X935450Y696355D01*
X935364Y696713D01*
X935288Y697074D01*
X935221Y697436D01*
X935162Y697799D01*
X935113Y698164D01*
X935072Y698530D01*
X935041Y698897D01*
X935018Y699264D01*
X935005Y699632D01*
X935000Y700000D01*
X35000Y700000D02*
X35005Y700368D01*
X35018Y700736D01*
X35041Y701103D01*
X35072Y701470D01*
X35113Y701836D01*
X35162Y702201D01*
X35221Y702564D01*
X35288Y702926D01*
X35364Y703287D01*
X35450Y703645D01*
X35543Y704001D01*
X35646Y704354D01*
X35757Y704705D01*
X35877Y705053D01*
X36005Y705398D01*
X36142Y705740D01*
X36287Y706079D01*
X36440Y706413D01*
X36602Y706744D01*
X36771Y707071D01*
X36949Y707393D01*
X37134Y707712D01*
X37327Y708025D01*
X37528Y708334D01*
X37736Y708637D01*
X37952Y708935D01*
X38175Y709228D01*
X38405Y709516D01*
X38642Y709798D01*
X38886Y710073D01*
X39136Y710343D01*
X39393Y710607D01*
X39657Y710864D01*
X39927Y711114D01*
X40202Y711358D01*
X40484Y711595D01*
X40772Y711825D01*
X41065Y712048D01*
X41363Y712264D01*
X41666Y712472D01*
X41975Y712673D01*
X42288Y712866D01*
X42607Y713051D01*
X42929Y713229D01*
X43256Y713398D01*
X43587Y713560D01*
X43921Y713713D01*
X44260Y713858D01*
X44602Y713995D01*
X44947Y714123D01*
X45295Y714243D01*
X45646Y714354D01*
X45999Y714457D01*
X46355Y714550D01*
X46713Y714636D01*
X47074Y714712D01*
X47436Y714779D01*
X47799Y714838D01*
X48164Y714887D01*
X48530Y714928D01*
X48897Y714959D01*
X49264Y714982D01*
X49632Y714995D01*
X50000Y715000D01*
X50368Y714995D01*
X50736Y714982D01*
X51103Y714959D01*
X51470Y714928D01*
X51836Y714887D01*
X52201Y714838D01*
X52564Y714779D01*
X52926Y714712D01*
X53287Y714636D01*
X53645Y714550D01*
X54001Y714457D01*
X54354Y714354D01*
X54705Y714243D01*
X55053Y714123D01*
X55398Y713995D01*
X55740Y713858D01*
X56079Y713713D01*
X56413Y713560D01*
X56744Y713398D01*
X57071Y713229D01*
X57393Y713051D01*
X57712Y712866D01*
X58025Y712673D01*
X58334Y712472D01*
X58637Y712264D01*
X58935Y712048D01*
X59228Y711825D01*
X59516Y711595D01*
X59798Y711358D01*
X60073Y711114D01*
X60343Y710864D01*
X60607Y710607D01*
X60864Y710343D01*
X61114Y710073D01*
X61358Y709798D01*
X61595Y709516D01*
X61825Y709228D01*
X62048Y708935D01*
X62264Y708637D01*
X62472Y708334D01*
X62673Y708025D01*
X62866Y707712D01*
X63051Y707393D01*
X63229Y707071D01*
X63398Y706744D01*
X63560Y706413D01*
X63713Y706079D01*
X63858Y705740D01*
X63995Y705398D01*
X64123Y705053D01*
X64243Y704705D01*
X64354Y704354D01*
X64457Y704001D01*
X64550Y703645D01*
X64636Y703287D01*
X64712Y702926D01*
X64779Y702564D01*
X64838Y702201D01*
X64887Y701836D01*
X64928Y701470D01*
X64959Y701103D01*
X64982Y700736D01*
X64995Y700368D01*
X65000Y700000D01*
X64995Y699632D01*
X64982Y699264D01*
X64959Y698897D01*
X64928Y698530D01*
X64887Y698164D01*
X64838Y697799D01*
X64779Y697436D01*
X64712Y697074D01*
X64636Y696713D01*
X64550Y696355D01*
X64457Y695999D01*
X64354Y695646D01*
X64243Y695295D01*
X64123Y694947D01*
X63995Y694602D01*
X63858Y694260D01*
X63713Y693921D01*
X63560Y693587D01*
X63398Y693256D01*
X63229Y692929D01*
X63051Y692607D01*
X62866Y692288D01*
X62673Y691975D01*
X62472Y691666D01*
X62264Y691363D01*
X62048Y691065D01*
X61825Y690772D01*
X61595Y690484D01*
X61358Y690202D01*
X61114Y689927D01*
X60864Y689657D01*
X60607Y689393D01*
X60343Y689136D01*
X60073Y688886D01*
X59798Y688642D01*
X59516Y688405D01*
X59228Y688175D01*
X58935Y687952D01*
X58637Y687736D01*
X58334Y687528D01*
X58025Y687327D01*
X57712Y687134D01*
X57393Y686949D01*
X57071Y686771D01*
X56744Y686602D01*
X56413Y686440D01*
X56079Y686287D01*
X55740Y686142D01*
X55398Y686005D01*
X55053Y685877D01*
X54705Y685757D01*
X54354Y685646D01*
X54001Y685543D01*
X53645Y685450D01*
X53287Y685364D01*
X52926Y685288D01*
X52564Y685221D01*
X52201Y685162D01*
X51836Y685113D01*
X51470Y685072D01*
X51103Y685041D01*
X50736Y685018D01*
X50368Y685005D01*
X50000Y685000D01*
X49632Y685005D01*
X49264Y685018D01*
X48897Y685041D01*
X48530Y685072D01*
X48164Y685113D01*
X47799Y685162D01*
X47436Y685221D01*
X47074Y685288D01*
X46713Y685364D01*
X46355Y685450D01*
X45999Y685543D01*
X45646Y685646D01*
X45295Y685757D01*
X44947Y685877D01*
X44602Y686005D01*
X44260Y686142D01*
X43921Y686287D01*
X43587Y686440D01*
X43256Y686602D01*
X42929Y686771D01*
X42607Y686949D01*
X42288Y687134D01*
X41975Y687327D01*
X41666Y687528D01*
X41363Y687736D01*
X41065Y687952D01*
X40772Y688175D01*
X40484Y688405D01*
X40202Y688642D01*
X39927Y688886D01*
X39657Y689136D01*
X39393Y689393D01*
X39136Y689657D01*
X38886Y689927D01*
X38642Y690202D01*
X38405Y690484D01*
X38175Y690772D01*
X37952Y691065D01*
X37736Y691363D01*
X37528Y691666D01*
X37327Y691975D01*
X37134Y692288D01*
X36949Y692607D01*
X36771Y692929D01*
X36602Y693256D01*
X36440Y693587D01*
X36287Y693921D01*
X36142Y694260D01*
X36005Y694602D01*
X35877Y694947D01*
X35757Y695295D01*
X35646Y695646D01*
X35543Y695999D01*
X35450Y696355D01*
X35364Y696713D01*
X35288Y697074D01*
X35221Y697436D01*
X35162Y697799D01*
X35113Y698164D01*
X35072Y698530D01*
X35041Y698897D01*
X35018Y699264D01*
X35005Y699632D01*
X35000Y700000D01*
D11*
X33170Y555320D02*
X33284Y555305D01*
X33397Y555285D01*
X33510Y555262D01*
X33622Y555234D01*
X33732Y555204D01*
X33842Y555169D01*
X33951Y555131D01*
X34058Y555089D01*
X34163Y555043D01*
X34267Y554994D01*
X34370Y554941D01*
X34470Y554885D01*
X34569Y554826D01*
X34665Y554764D01*
X34760Y554698D01*
X34852Y554629D01*
X34941Y554557D01*
X35028Y554482D01*
X35113Y554404D01*
X35195Y554323D01*
X35274Y554240D01*
X35351Y554154D01*
X35424Y554065D01*
X35494Y553974D01*
X35562Y553881D01*
X35626Y553785D01*
X35686Y553687D01*
X35744Y553588D01*
X35798Y553486D01*
X35849Y553383D01*
X35896Y553278D01*
X35939Y553171D01*
X35979Y553064D01*
X36016Y552954D01*
X36048Y552844D01*
X36077Y552733D01*
X36102Y552620D01*
X36123Y552507D01*
X36141Y552394D01*
X36154Y552279D01*
X36164Y552165D01*
X36170Y552050D01*
X36172Y551935D01*
X36170Y551820D01*
X36172Y551705D01*
X36170Y551590D01*
X36164Y551475D01*
X36154Y551361D01*
X36141Y551246D01*
X36123Y551133D01*
X36102Y551020D01*
X36077Y550907D01*
X36048Y550796D01*
X36016Y550686D01*
X35979Y550576D01*
X35939Y550469D01*
X35896Y550362D01*
X35849Y550257D01*
X35798Y550154D01*
X35744Y550052D01*
X35686Y549953D01*
X35626Y549855D01*
X35562Y549759D01*
X35494Y549666D01*
X35424Y549575D01*
X35351Y549486D01*
X35274Y549400D01*
X35195Y549317D01*
X35113Y549236D01*
X35028Y549158D01*
X34941Y549083D01*
X34852Y549011D01*
X34760Y548942D01*
X34665Y548876D01*
X34569Y548814D01*
X34470Y548755D01*
X34370Y548699D01*
X34267Y548646D01*
X34163Y548597D01*
X34058Y548551D01*
X33951Y548509D01*
X33842Y548471D01*
X33732Y548436D01*
X33622Y548406D01*
X33510Y548378D01*
X33397Y548355D01*
X33284Y548335D01*
X33170Y548320D01*
X27170Y548320D01*
X27056Y548335D01*
X26943Y548355D01*
X26830Y548378D01*
X26718Y548406D01*
X26608Y548436D01*
X26498Y548471D01*
X26389Y548509D01*
X26282Y548551D01*
X26177Y548597D01*
X26073Y548646D01*
X25970Y548699D01*
X25870Y548755D01*
X25771Y548814D01*
X25675Y548876D01*
X25580Y548942D01*
X25488Y549011D01*
X25399Y549083D01*
X25312Y549158D01*
X25227Y549236D01*
X25145Y549317D01*
X25066Y549400D01*
X24989Y549486D01*
X24916Y549575D01*
X24846Y549666D01*
X24778Y549759D01*
X24714Y549855D01*
X24654Y549953D01*
X24596Y550052D01*
X24542Y550154D01*
X24491Y550257D01*
X24444Y550362D01*
X24401Y550469D01*
X24361Y550576D01*
X24324Y550686D01*
X24292Y550796D01*
X24263Y550907D01*
X24238Y551020D01*
X24217Y551133D01*
X24199Y551246D01*
X24186Y551361D01*
X24176Y551475D01*
X24170Y551590D01*
X24168Y551705D01*
X24170Y551820D01*
X24168Y551935D01*
X24170Y552050D01*
X24176Y552165D01*
X24186Y552279D01*
X24199Y552394D01*
X24217Y552507D01*
X24238Y552620D01*
X24263Y552733D01*
X24292Y552844D01*
X24324Y552954D01*
X24361Y553064D01*
X24401Y553171D01*
X24444Y553278D01*
X24491Y553383D01*
X24542Y553486D01*
X24596Y553588D01*
X24654Y553687D01*
X24714Y553785D01*
X24778Y553881D01*
X24846Y553974D01*
X24916Y554065D01*
X24989Y554154D01*
X25066Y554240D01*
X25145Y554323D01*
X25227Y554404D01*
X25312Y554482D01*
X25399Y554557D01*
X25488Y554629D01*
X25580Y554698D01*
X25675Y554764D01*
X25771Y554826D01*
X25870Y554885D01*
X25970Y554941D01*
X26073Y554994D01*
X26177Y555043D01*
X26282Y555089D01*
X26389Y555131D01*
X26498Y555169D01*
X26608Y555204D01*
X26718Y555234D01*
X26830Y555262D01*
X26943Y555285D01*
X27056Y555305D01*
X27170Y555320D01*
X33170Y555320D01*
X62470Y558071D02*
X62582Y558070D01*
X62693Y558066D01*
X62804Y558058D01*
X62915Y558047D01*
X63026Y558031D01*
X63135Y558011D01*
X63244Y557988D01*
X63352Y557961D01*
X63460Y557930D01*
X63566Y557896D01*
X63670Y557858D01*
X63774Y557816D01*
X63875Y557770D01*
X63976Y557721D01*
X64074Y557669D01*
X64170Y557613D01*
X64265Y557554D01*
X64357Y557492D01*
X64448Y557426D01*
X64535Y557357D01*
X64621Y557286D01*
X64704Y557211D01*
X64784Y557134D01*
X64861Y557054D01*
X64936Y556971D01*
X65007Y556885D01*
X65076Y556798D01*
X65142Y556707D01*
X65204Y556615D01*
X65263Y556520D01*
X65319Y556424D01*
X65371Y556326D01*
X65420Y556225D01*
X65466Y556124D01*
X65508Y556020D01*
X65546Y555916D01*
X65580Y555810D01*
X65611Y555702D01*
X65638Y555594D01*
X65661Y555485D01*
X65681Y555376D01*
X65697Y555265D01*
X65708Y555154D01*
X65716Y555043D01*
X65720Y554932D01*
X65721Y554820D01*
X65720Y554820D02*
X65718Y554709D01*
X65712Y554598D01*
X65703Y554488D01*
X65690Y554377D01*
X65673Y554268D01*
X65652Y554159D01*
X65628Y554051D01*
X65599Y553943D01*
X65568Y553837D01*
X65532Y553732D01*
X65493Y553628D01*
X65451Y553525D01*
X65405Y553424D01*
X65356Y553325D01*
X65303Y553227D01*
X65247Y553131D01*
X65188Y553038D01*
X65125Y552946D01*
X65060Y552856D01*
X64991Y552769D01*
X64920Y552684D01*
X64845Y552602D01*
X64768Y552522D01*
X64688Y552445D01*
X64606Y552370D01*
X64521Y552299D01*
X64434Y552230D01*
X64344Y552165D01*
X64252Y552102D01*
X64159Y552043D01*
X64063Y551987D01*
X63965Y551934D01*
X63866Y551885D01*
X63765Y551839D01*
X63662Y551797D01*
X63558Y551758D01*
X63453Y551722D01*
X63347Y551691D01*
X63239Y551662D01*
X63131Y551638D01*
X63022Y551617D01*
X62913Y551600D01*
X62802Y551587D01*
X62692Y551578D01*
X62581Y551572D01*
X62470Y551570D01*
X58470Y551570D01*
X58363Y551563D01*
X58256Y551559D01*
X58150Y551560D01*
X58043Y551564D01*
X57936Y551572D01*
X57830Y551584D01*
X57724Y551599D01*
X57619Y551618D01*
X57515Y551641D01*
X57411Y551668D01*
X57309Y551699D01*
X57208Y551733D01*
X57108Y551770D01*
X57009Y551811D01*
X56912Y551856D01*
X56816Y551904D01*
X56723Y551956D01*
X56631Y552010D01*
X56541Y552068D01*
X56454Y552130D01*
X56368Y552194D01*
X56285Y552261D01*
X56205Y552331D01*
X56126Y552404D01*
X56051Y552480D01*
X55978Y552558D01*
X55909Y552639D01*
X55842Y552723D01*
X55778Y552808D01*
X55717Y552896D01*
X55659Y552986D01*
X55605Y553078D01*
X55554Y553172D01*
X55506Y553268D01*
X55462Y553365D01*
X55421Y553464D01*
X55384Y553564D01*
X55351Y553665D01*
X55321Y553768D01*
X55294Y553872D01*
X55272Y553976D01*
X55253Y554081D01*
X55238Y554187D01*
X55227Y554293D01*
X55219Y554400D01*
X55215Y554507D01*
X55216Y554614D01*
X55219Y554720D01*
X55220Y554720D02*
X55224Y554834D01*
X55231Y554949D01*
X55242Y555062D01*
X55257Y555176D01*
X55276Y555288D01*
X55298Y555401D01*
X55324Y555512D01*
X55354Y555622D01*
X55388Y555731D01*
X55425Y555839D01*
X55466Y555946D01*
X55511Y556051D01*
X55559Y556155D01*
X55610Y556257D01*
X55665Y556358D01*
X55724Y556456D01*
X55785Y556552D01*
X55850Y556646D01*
X55918Y556738D01*
X55989Y556828D01*
X56063Y556915D01*
X56139Y557000D01*
X56219Y557082D01*
X56301Y557161D01*
X56386Y557238D01*
X56474Y557312D01*
X56564Y557382D01*
X56656Y557450D01*
X56750Y557514D01*
X56847Y557575D01*
X56945Y557633D01*
X57046Y557688D01*
X57148Y557739D01*
X57252Y557787D01*
X57357Y557831D01*
X57464Y557871D01*
X57572Y557908D01*
X57682Y557942D01*
X57792Y557971D01*
X57904Y557997D01*
X58016Y558019D01*
X58129Y558038D01*
X58242Y558052D01*
X58356Y558063D01*
X58470Y558070D01*
X62470Y558070D01*
X65721Y603420D02*
X65720Y603532D01*
X65716Y603643D01*
X65708Y603754D01*
X65697Y603865D01*
X65681Y603976D01*
X65661Y604085D01*
X65638Y604194D01*
X65611Y604302D01*
X65580Y604410D01*
X65546Y604516D01*
X65508Y604620D01*
X65466Y604724D01*
X65420Y604825D01*
X65371Y604926D01*
X65319Y605024D01*
X65263Y605120D01*
X65204Y605215D01*
X65142Y605307D01*
X65076Y605398D01*
X65007Y605485D01*
X64936Y605571D01*
X64861Y605654D01*
X64784Y605734D01*
X64704Y605811D01*
X64621Y605886D01*
X64535Y605957D01*
X64448Y606026D01*
X64357Y606092D01*
X64265Y606154D01*
X64170Y606213D01*
X64074Y606269D01*
X63976Y606321D01*
X63875Y606370D01*
X63774Y606416D01*
X63670Y606458D01*
X63566Y606496D01*
X63460Y606530D01*
X63352Y606561D01*
X63244Y606588D01*
X63135Y606611D01*
X63026Y606631D01*
X62915Y606647D01*
X62804Y606658D01*
X62693Y606666D01*
X62582Y606670D01*
X62470Y606671D01*
X65720Y603420D02*
X65718Y603309D01*
X65712Y603198D01*
X65703Y603088D01*
X65690Y602977D01*
X65673Y602868D01*
X65652Y602759D01*
X65628Y602651D01*
X65599Y602543D01*
X65568Y602437D01*
X65532Y602332D01*
X65493Y602228D01*
X65451Y602125D01*
X65405Y602024D01*
X65356Y601925D01*
X65303Y601827D01*
X65247Y601731D01*
X65188Y601638D01*
X65125Y601546D01*
X65060Y601456D01*
X64991Y601369D01*
X64920Y601284D01*
X64845Y601202D01*
X64768Y601122D01*
X64688Y601045D01*
X64606Y600970D01*
X64521Y600899D01*
X64434Y600830D01*
X64344Y600765D01*
X64252Y600702D01*
X64159Y600643D01*
X64063Y600587D01*
X63965Y600534D01*
X63866Y600485D01*
X63765Y600439D01*
X63662Y600397D01*
X63558Y600358D01*
X63453Y600322D01*
X63347Y600291D01*
X63239Y600262D01*
X63131Y600238D01*
X63022Y600217D01*
X62913Y600200D01*
X62802Y600187D01*
X62692Y600178D01*
X62581Y600172D01*
X62470Y600170D01*
X58470Y600170D01*
X58363Y600163D01*
X58256Y600159D01*
X58150Y600160D01*
X58043Y600164D01*
X57936Y600172D01*
X57830Y600184D01*
X57724Y600199D01*
X57619Y600218D01*
X57515Y600241D01*
X57411Y600268D01*
X57309Y600299D01*
X57208Y600333D01*
X57108Y600370D01*
X57009Y600411D01*
X56912Y600456D01*
X56816Y600504D01*
X56723Y600556D01*
X56631Y600610D01*
X56541Y600668D01*
X56454Y600730D01*
X56368Y600794D01*
X56285Y600861D01*
X56205Y600931D01*
X56126Y601004D01*
X56051Y601080D01*
X55978Y601158D01*
X55909Y601239D01*
X55842Y601323D01*
X55778Y601408D01*
X55717Y601496D01*
X55659Y601586D01*
X55605Y601678D01*
X55554Y601772D01*
X55506Y601868D01*
X55462Y601965D01*
X55421Y602064D01*
X55384Y602164D01*
X55351Y602265D01*
X55321Y602368D01*
X55294Y602472D01*
X55272Y602576D01*
X55253Y602681D01*
X55238Y602787D01*
X55227Y602893D01*
X55219Y603000D01*
X55215Y603107D01*
X55216Y603214D01*
X55219Y603320D01*
X55220Y603320D02*
X55224Y603434D01*
X55231Y603549D01*
X55242Y603662D01*
X55257Y603776D01*
X55276Y603888D01*
X55298Y604001D01*
X55324Y604112D01*
X55354Y604222D01*
X55388Y604331D01*
X55425Y604439D01*
X55466Y604546D01*
X55511Y604651D01*
X55559Y604755D01*
X55610Y604857D01*
X55665Y604958D01*
X55724Y605056D01*
X55785Y605152D01*
X55850Y605246D01*
X55918Y605338D01*
X55989Y605428D01*
X56063Y605515D01*
X56139Y605600D01*
X56219Y605682D01*
X56301Y605761D01*
X56386Y605838D01*
X56474Y605912D01*
X56564Y605982D01*
X56656Y606050D01*
X56750Y606114D01*
X56847Y606175D01*
X56945Y606233D01*
X57046Y606288D01*
X57148Y606339D01*
X57252Y606387D01*
X57357Y606431D01*
X57464Y606471D01*
X57572Y606508D01*
X57682Y606542D01*
X57792Y606571D01*
X57904Y606597D01*
X58016Y606619D01*
X58129Y606638D01*
X58242Y606652D01*
X58356Y606663D01*
X58470Y606670D01*
X62470Y606670D01*
X36170Y606420D02*
X36172Y606535D01*
X36170Y606650D01*
X36164Y606765D01*
X36154Y606879D01*
X36141Y606994D01*
X36123Y607107D01*
X36102Y607220D01*
X36077Y607333D01*
X36048Y607444D01*
X36016Y607554D01*
X35979Y607664D01*
X35939Y607771D01*
X35896Y607878D01*
X35849Y607983D01*
X35798Y608086D01*
X35744Y608188D01*
X35686Y608287D01*
X35626Y608385D01*
X35562Y608481D01*
X35494Y608574D01*
X35424Y608665D01*
X35351Y608754D01*
X35274Y608840D01*
X35195Y608923D01*
X35113Y609004D01*
X35028Y609082D01*
X34941Y609157D01*
X34852Y609229D01*
X34760Y609298D01*
X34665Y609364D01*
X34569Y609426D01*
X34470Y609485D01*
X34370Y609541D01*
X34267Y609594D01*
X34163Y609643D01*
X34058Y609689D01*
X33951Y609731D01*
X33842Y609769D01*
X33732Y609804D01*
X33622Y609834D01*
X33510Y609862D01*
X33397Y609885D01*
X33284Y609905D01*
X33170Y609920D01*
X36170Y606420D02*
X36172Y606305D01*
X36170Y606190D01*
X36164Y606075D01*
X36154Y605961D01*
X36141Y605846D01*
X36123Y605733D01*
X36102Y605620D01*
X36077Y605507D01*
X36048Y605396D01*
X36016Y605286D01*
X35979Y605176D01*
X35939Y605069D01*
X35896Y604962D01*
X35849Y604857D01*
X35798Y604754D01*
X35744Y604652D01*
X35686Y604553D01*
X35626Y604455D01*
X35562Y604359D01*
X35494Y604266D01*
X35424Y604175D01*
X35351Y604086D01*
X35274Y604000D01*
X35195Y603917D01*
X35113Y603836D01*
X35028Y603758D01*
X34941Y603683D01*
X34852Y603611D01*
X34760Y603542D01*
X34665Y603476D01*
X34569Y603414D01*
X34470Y603355D01*
X34370Y603299D01*
X34267Y603246D01*
X34163Y603197D01*
X34058Y603151D01*
X33951Y603109D01*
X33842Y603071D01*
X33732Y603036D01*
X33622Y603006D01*
X33510Y602978D01*
X33397Y602955D01*
X33284Y602935D01*
X33170Y602920D01*
X27170Y602920D01*
X27056Y602935D01*
X26943Y602955D01*
X26830Y602978D01*
X26718Y603006D01*
X26608Y603036D01*
X26498Y603071D01*
X26389Y603109D01*
X26282Y603151D01*
X26177Y603197D01*
X26073Y603246D01*
X25970Y603299D01*
X25870Y603355D01*
X25771Y603414D01*
X25675Y603476D01*
X25580Y603542D01*
X25488Y603611D01*
X25399Y603683D01*
X25312Y603758D01*
X25227Y603836D01*
X25145Y603917D01*
X25066Y604000D01*
X24989Y604086D01*
X24916Y604175D01*
X24846Y604266D01*
X24778Y604359D01*
X24714Y604455D01*
X24654Y604553D01*
X24596Y604652D01*
X24542Y604754D01*
X24491Y604857D01*
X24444Y604962D01*
X24401Y605069D01*
X24361Y605176D01*
X24324Y605286D01*
X24292Y605396D01*
X24263Y605507D01*
X24238Y605620D01*
X24217Y605733D01*
X24199Y605846D01*
X24186Y605961D01*
X24176Y606075D01*
X24170Y606190D01*
X24168Y606305D01*
X24170Y606420D01*
X24168Y606535D01*
X24170Y606650D01*
X24176Y606765D01*
X24186Y606879D01*
X24199Y606994D01*
X24217Y607107D01*
X24238Y607220D01*
X24263Y607333D01*
X24292Y607444D01*
X24324Y607554D01*
X24361Y607664D01*
X24401Y607771D01*
X24444Y607878D01*
X24491Y607983D01*
X24542Y608086D01*
X24596Y608188D01*
X24654Y608287D01*
X24714Y608385D01*
X24778Y608481D01*
X24846Y608574D01*
X24916Y608665D01*
X24989Y608754D01*
X25066Y608840D01*
X25145Y608923D01*
X25227Y609004D01*
X25312Y609082D01*
X25399Y609157D01*
X25488Y609229D01*
X25580Y609298D01*
X25675Y609364D01*
X25771Y609426D01*
X25870Y609485D01*
X25970Y609541D01*
X26073Y609594D01*
X26177Y609643D01*
X26282Y609689D01*
X26389Y609731D01*
X26498Y609769D01*
X26608Y609804D01*
X26718Y609834D01*
X26830Y609862D01*
X26943Y609885D01*
X27056Y609905D01*
X27170Y609920D01*
X33170Y609920D01*
D12*
X0Y0D02*
X1000000Y0D01*
X1000000Y750000D01*
X0Y750000D01*
X0Y0D01*
X24170Y606420D02*
X24173Y606122D01*
X24202Y605826D01*
X24257Y605534D01*
X24337Y605247D01*
X24442Y604968D01*
X24570Y604700D01*
X24722Y604444D01*
X24895Y604202D01*
X25089Y603976D01*
X25301Y603768D01*
X25531Y603579D01*
X25777Y603411D01*
X26036Y603264D01*
X26307Y603141D01*
X26588Y603043D01*
X26876Y602969D01*
X27170Y602920D01*
X33170Y602920D01*
X33464Y602969D01*
X33752Y603043D01*
X34033Y603141D01*
X34304Y603264D01*
X34563Y603411D01*
X34809Y603579D01*
X35039Y603768D01*
X35251Y603976D01*
X35445Y604202D01*
X35618Y604444D01*
X35770Y604700D01*
X35898Y604968D01*
X36003Y605247D01*
X36083Y605534D01*
X36138Y605826D01*
X36167Y606122D01*
X36170Y606420D01*
X36167Y606718D01*
X36138Y607014D01*
X36083Y607306D01*
X36003Y607593D01*
X35898Y607872D01*
X35770Y608140D01*
X35618Y608396D01*
X35445Y608638D01*
X35251Y608864D01*
X35039Y609072D01*
X34809Y609261D01*
X34563Y609430D01*
X34304Y609576D01*
X34033Y609699D01*
X33752Y609797D01*
X33464Y609871D01*
X33170Y609920D01*
X27170Y609920D01*
X26876Y609871D01*
X26588Y609797D01*
X26307Y609699D01*
X26036Y609576D01*
X25777Y609430D01*
X25531Y609261D01*
X25301Y609072D01*
X25089Y608864D01*
X24895Y608638D01*
X24722Y608396D01*
X24570Y608140D01*
X24442Y607872D01*
X24337Y607593D01*
X24257Y607306D01*
X24202Y607014D01*
X24173Y606718D01*
X24170Y606420D01*
X55220Y603320D02*
X55217Y603059D01*
X55237Y602798D01*
X55280Y602540D01*
X55345Y602286D01*
X55431Y602040D01*
X55539Y601802D01*
X55668Y601574D01*
X55815Y601358D01*
X55981Y601156D01*
X56164Y600969D01*
X56363Y600798D01*
X56575Y600646D01*
X56800Y600513D01*
X57036Y600400D01*
X57281Y600308D01*
X57533Y600237D01*
X57790Y600189D01*
X58050Y600163D01*
X58311Y600161D01*
X58470Y600170D01*
X62470Y600170D01*
X62753Y600182D01*
X63034Y600219D01*
X63311Y600281D01*
X63582Y600366D01*
X63844Y600475D01*
X64095Y600605D01*
X64334Y600758D01*
X64559Y600930D01*
X64768Y601122D01*
X64960Y601331D01*
X65132Y601556D01*
X65285Y601795D01*
X65416Y602047D01*
X65524Y602308D01*
X65609Y602579D01*
X65671Y602856D01*
X65708Y603137D01*
X65720Y603420D01*
X65712Y603699D01*
X65680Y603976D01*
X65624Y604250D01*
X65544Y604517D01*
X65442Y604777D01*
X65317Y605026D01*
X65171Y605264D01*
X65004Y605488D01*
X64819Y605697D01*
X64616Y605889D01*
X64397Y606062D01*
X64164Y606216D01*
X63919Y606349D01*
X63663Y606460D01*
X63398Y606548D01*
X63126Y606613D01*
X62850Y606653D01*
X62572Y606670D01*
X58470Y606670D01*
X58175Y606644D01*
X57883Y606593D01*
X57597Y606516D01*
X57318Y606415D01*
X57049Y606290D01*
X56793Y606142D01*
X56550Y605972D01*
X56323Y605781D01*
X56113Y605572D01*
X55922Y605345D01*
X55752Y605102D01*
X55604Y604845D01*
X55479Y604577D01*
X55377Y604298D01*
X55300Y604012D01*
X55249Y603720D01*
X55223Y603425D01*
X55220Y603320D01*
X55220Y554720D02*
X55216Y554561D01*
X55227Y554300D01*
X55260Y554041D01*
X55317Y553785D01*
X55395Y553536D01*
X55495Y553294D01*
X55615Y553062D01*
X55755Y552841D01*
X55914Y552633D01*
X56090Y552440D01*
X56283Y552263D01*
X56490Y552104D01*
X56711Y551963D01*
X56942Y551842D01*
X57184Y551741D01*
X57433Y551662D01*
X57688Y551605D01*
X57947Y551571D01*
X58209Y551559D01*
X58470Y551570D01*
X62470Y551570D01*
X62753Y551582D01*
X63034Y551619D01*
X63311Y551681D01*
X63582Y551766D01*
X63844Y551875D01*
X64095Y552005D01*
X64334Y552158D01*
X64559Y552330D01*
X64768Y552522D01*
X64960Y552731D01*
X65132Y552956D01*
X65285Y553195D01*
X65416Y553447D01*
X65524Y553708D01*
X65609Y553979D01*
X65671Y554256D01*
X65708Y554537D01*
X65720Y554820D01*
X65720Y554922D01*
X65703Y555200D01*
X65663Y555476D01*
X65598Y555748D01*
X65510Y556013D01*
X65399Y556269D01*
X65266Y556514D01*
X65112Y556747D01*
X64939Y556966D01*
X64747Y557169D01*
X64538Y557354D01*
X64314Y557521D01*
X64076Y557667D01*
X63827Y557792D01*
X63567Y557894D01*
X63300Y557974D01*
X63026Y558030D01*
X62749Y558062D01*
X62470Y558070D01*
X58470Y558070D01*
X58365Y558064D01*
X58071Y558029D01*
X57781Y557969D01*
X57497Y557883D01*
X57222Y557773D01*
X56957Y557640D01*
X56705Y557484D01*
X56467Y557307D01*
X56246Y557109D01*
X56043Y556893D01*
X55860Y556661D01*
X55697Y556413D01*
X55557Y556152D01*
X55440Y555879D01*
X55347Y555598D01*
X55279Y555309D01*
X55237Y555016D01*
X55220Y554720D01*
X24170Y551820D02*
X24173Y551522D01*
X24202Y551226D01*
X24257Y550934D01*
X24337Y550647D01*
X24442Y550368D01*
X24570Y550100D01*
X24722Y549844D01*
X24895Y549602D01*
X25089Y549376D01*
X25301Y549168D01*
X25531Y548979D01*
X25777Y548811D01*
X26036Y548664D01*
X26307Y548541D01*
X26588Y548443D01*
X26876Y548369D01*
X27170Y548320D01*
X33170Y548320D01*
X33464Y548369D01*
X33752Y548443D01*
X34033Y548541D01*
X34304Y548664D01*
X34563Y548811D01*
X34809Y548979D01*
X35039Y549168D01*
X35251Y549376D01*
X35445Y549602D01*
X35618Y549844D01*
X35770Y550100D01*
X35898Y550368D01*
X36003Y550647D01*
X36083Y550934D01*
X36138Y551226D01*
X36167Y551522D01*
X36170Y551820D01*
X36167Y552118D01*
X36138Y552414D01*
X36083Y552706D01*
X36003Y552993D01*
X35898Y553272D01*
X35770Y553540D01*
X35618Y553796D01*
X35445Y554038D01*
X35251Y554264D01*
X35039Y554472D01*
X34809Y554661D01*
X34563Y554829D01*
X34304Y554976D01*
X34033Y555099D01*
X33752Y555197D01*
X33464Y555271D01*
X33170Y555320D01*
X27170Y555320D01*
X26876Y555271D01*
X26588Y555197D01*
X26307Y555099D01*
X26036Y554976D01*
X25777Y554829D01*
X25531Y554661D01*
X25301Y554472D01*
X25089Y554264D01*
X24895Y554038D01*
X24722Y553796D01*
X24570Y553540D01*
X24442Y553272D01*
X24337Y552993D01*
X24257Y552706D01*
X24202Y552414D01*
X24173Y552118D01*
X24170Y551820D01*
X65000Y49464D02*
X64924Y48396D01*
X64771Y47335D01*
X64543Y46288D01*
X64241Y45260D01*
X63867Y44256D01*
X63422Y43281D01*
X62908Y42341D01*
X62329Y41440D01*
X61687Y40582D01*
X60985Y39772D01*
X60228Y39015D01*
X59418Y38313D01*
X58560Y37671D01*
X57659Y37092D01*
X56719Y36578D01*
X55744Y36133D01*
X54740Y35759D01*
X53712Y35457D01*
X52665Y35229D01*
X51604Y35076D01*
X50536Y35000D01*
X49464Y35000D01*
X48396Y35076D01*
X47335Y35229D01*
X46288Y35457D01*
X45260Y35759D01*
X44256Y36133D01*
X43281Y36578D01*
X42341Y37092D01*
X41440Y37671D01*
X40582Y38313D01*
X39772Y39015D01*
X39015Y39772D01*
X38313Y40582D01*
X37671Y41440D01*
X37092Y42341D01*
X36578Y43281D01*
X36133Y44256D01*
X35759Y45260D01*
X35457Y46288D01*
X35229Y47335D01*
X35076Y48396D01*
X35000Y49464D01*
X35000Y50536D01*
X35076Y51604D01*
X35229Y52665D01*
X35457Y53712D01*
X35759Y54740D01*
X36133Y55744D01*
X36578Y56719D01*
X37092Y57659D01*
X37671Y58560D01*
X38313Y59418D01*
X39015Y60228D01*
X39772Y60985D01*
X40582Y61687D01*
X41440Y62329D01*
X42341Y62908D01*
X43281Y63422D01*
X44256Y63867D01*
X45260Y64241D01*
X46288Y64543D01*
X47335Y64771D01*
X48396Y64924D01*
X49464Y65000D01*
X50536Y65000D01*
X51604Y64924D01*
X52665Y64771D01*
X53712Y64543D01*
X54740Y64241D01*
X55744Y63867D01*
X56719Y63422D01*
X57659Y62908D01*
X58560Y62329D01*
X59418Y61687D01*
X60228Y60985D01*
X60985Y60228D01*
X61687Y59418D01*
X62329Y58560D01*
X62908Y57659D01*
X63422Y56719D01*
X63867Y55744D01*
X64241Y54740D01*
X64543Y53712D01*
X64771Y52665D01*
X64924Y51604D01*
X65000Y50536D01*
X65000Y49464D01*
X965000Y49464D02*
X964924Y48396D01*
X964771Y47335D01*
X964543Y46288D01*
X964241Y45260D01*
X963867Y44256D01*
X963422Y43281D01*
X962908Y42341D01*
X962329Y41440D01*
X961687Y40582D01*
X960985Y39772D01*
X960228Y39015D01*
X959418Y38313D01*
X958560Y37671D01*
X957659Y37092D01*
X956719Y36578D01*
X955744Y36133D01*
X954740Y35759D01*
X953712Y35457D01*
X952665Y35229D01*
X951604Y35076D01*
X950536Y35000D01*
X949464Y35000D01*
X948396Y35076D01*
X947335Y35229D01*
X946288Y35457D01*
X945260Y35759D01*
X944256Y36133D01*
X943281Y36578D01*
X942341Y37092D01*
X941440Y37671D01*
X940582Y38313D01*
X939772Y39015D01*
X939015Y39772D01*
X938313Y40582D01*
X937671Y41440D01*
X937092Y42341D01*
X936578Y43281D01*
X936133Y44256D01*
X935759Y45260D01*
X935457Y46288D01*
X935229Y47335D01*
X935076Y48396D01*
X935000Y49464D01*
X935000Y50536D01*
X935076Y51604D01*
X935229Y52665D01*
X935457Y53712D01*
X935759Y54740D01*
X936133Y55744D01*
X936578Y56719D01*
X937092Y57659D01*
X937671Y58560D01*
X938313Y59418D01*
X939015Y60228D01*
X939772Y60985D01*
X940582Y61687D01*
X941440Y62329D01*
X942341Y62908D01*
X943281Y63422D01*
X944256Y63867D01*
X945260Y64241D01*
X946288Y64543D01*
X947335Y64771D01*
X948396Y64924D01*
X949464Y65000D01*
X950536Y65000D01*
X951604Y64924D01*
X952665Y64771D01*
X953712Y64543D01*
X954740Y64241D01*
X955744Y63867D01*
X956719Y63422D01*
X957659Y62908D01*
X958560Y62329D01*
X959418Y61687D01*
X960228Y60985D01*
X960985Y60228D01*
X961687Y59418D01*
X962329Y58560D01*
X962908Y57659D01*
X963422Y56719D01*
X963867Y55744D01*
X964241Y54740D01*
X964543Y53712D01*
X964771Y52665D01*
X964924Y51604D01*
X965000Y50536D01*
X965000Y49464D01*
X965000Y699464D02*
X964924Y698396D01*
X964771Y697335D01*
X964543Y696288D01*
X964241Y695260D01*
X963867Y694256D01*
X963422Y693281D01*
X962908Y692341D01*
X962329Y691440D01*
X961687Y690582D01*
X960985Y689772D01*
X960228Y689015D01*
X959418Y688313D01*
X958560Y687671D01*
X957659Y687092D01*
X956719Y686578D01*
X955744Y686133D01*
X954740Y685759D01*
X953712Y685457D01*
X952665Y685229D01*
X951604Y685076D01*
X950536Y685000D01*
X949464Y685000D01*
X948396Y685076D01*
X947335Y685229D01*
X946288Y685457D01*
X945260Y685759D01*
X944256Y686133D01*
X943281Y686578D01*
X942341Y687092D01*
X941440Y687671D01*
X940582Y688313D01*
X939772Y689015D01*
X939015Y689772D01*
X938313Y690582D01*
X937671Y691440D01*
X937092Y692341D01*
X936578Y693281D01*
X936133Y694256D01*
X935759Y695260D01*
X935457Y696288D01*
X935229Y697335D01*
X935076Y698396D01*
X935000Y699464D01*
X935000Y700536D01*
X935076Y701604D01*
X935229Y702665D01*
X935457Y703712D01*
X935759Y704740D01*
X936133Y705744D01*
X936578Y706719D01*
X937092Y707659D01*
X937671Y708560D01*
X938313Y709418D01*
X939015Y710228D01*
X939772Y710985D01*
X940582Y711687D01*
X941440Y712329D01*
X942341Y712908D01*
X943281Y713422D01*
X944256Y713867D01*
X945260Y714241D01*
X946288Y714543D01*
X947335Y714771D01*
X948396Y714924D01*
X949464Y715000D01*
X950536Y715000D01*
X951604Y714924D01*
X952665Y714771D01*
X953712Y714543D01*
X954740Y714241D01*
X955744Y713867D01*
X956719Y713422D01*
X957659Y712908D01*
X958560Y712329D01*
X959418Y711687D01*
X960228Y710985D01*
X960985Y710228D01*
X961687Y709418D01*
X962329Y708560D01*
X962908Y707659D01*
X963422Y706719D01*
X963867Y705744D01*
X964241Y704740D01*
X964543Y703712D01*
X964771Y702665D01*
X964924Y701604D01*
X965000Y700536D01*
X965000Y699464D01*
X65000Y699464D02*
X64924Y698396D01*
X64771Y697335D01*
X64543Y696288D01*
X64241Y695260D01*
X63867Y694256D01*
X63422Y693281D01*
X62908Y692341D01*
X62329Y691440D01*
X61687Y690582D01*
X60985Y689772D01*
X60228Y689015D01*
X59418Y688313D01*
X58560Y687671D01*
X57659Y687092D01*
X56719Y686578D01*
X55744Y686133D01*
X54740Y685759D01*
X53712Y685457D01*
X52665Y685229D01*
X51604Y685076D01*
X50536Y685000D01*
X49464Y685000D01*
X48396Y685076D01*
X47335Y685229D01*
X46288Y685457D01*
X45260Y685759D01*
X44256Y686133D01*
X43281Y686578D01*
X42341Y687092D01*
X41440Y687671D01*
X40582Y688313D01*
X39772Y689015D01*
X39015Y689772D01*
X38313Y690582D01*
X37671Y691440D01*
X37092Y692341D01*
X36578Y693281D01*
X36133Y694256D01*
X35759Y695260D01*
X35457Y696288D01*
X35229Y697335D01*
X35076Y698396D01*
X35000Y699464D01*
X35000Y700536D01*
X35076Y701604D01*
X35229Y702665D01*
X35457Y703712D01*
X35759Y704740D01*
X36133Y705744D01*
X36578Y706719D01*
X37092Y707659D01*
X37671Y708560D01*
X38313Y709418D01*
X39015Y710228D01*
X39772Y710985D01*
X40582Y711687D01*
X41440Y712329D01*
X42341Y712908D01*
X43281Y713422D01*
X44256Y713867D01*
X45260Y714241D01*
X46288Y714543D01*
X47335Y714771D01*
X48396Y714924D01*
X49464Y715000D01*
X50536Y715000D01*
X51604Y714924D01*
X52665Y714771D01*
X53712Y714543D01*
X54740Y714241D01*
X55744Y713867D01*
X56719Y713422D01*
X57659Y712908D01*
X58560Y712329D01*
X59418Y711687D01*
X60228Y710985D01*
X60985Y710228D01*
X61687Y709418D01*
X62329Y708560D01*
X62908Y707659D01*
X63422Y706719D01*
X63867Y705744D01*
X64241Y704740D01*
X64543Y703712D01*
X64771Y702665D01*
X64924Y701604D01*
X65000Y700536D01*
X65000Y699464D01*
M02*
