M48
;GenerationSoftware,Autodesk,EAGLE,9.6.2*%
;CreationDate,2021-06-09T07:17:10Z*%
FMAT,2
ICI,OFF
METRIC,TZ,000.000
T8C0.254
T7C0.350
T6C0.800
T5C0.813
T4C0.914
T3C1.000
T2C1.016
T1C3.000
%
G90
M71
T1
X5000Y70000
X95000Y70000
X95000Y5000
X5000Y5000
T2
X31369Y48362
X23749Y48362
T3
X4572Y25400
X93980Y53315
X4572Y27940
X4572Y30480
X4572Y33020
X11176Y25400
X11176Y27940
X11176Y30480
X11176Y33020
X29210Y69977
X93980Y48285
X81280Y69850
X78740Y69850
X31750Y69977
X93980Y58445
X4801Y20752
X4801Y18212
X4801Y15672
X4801Y13132
X12700Y44450
X12700Y41910
X12700Y39370
X12700Y36830
X52197Y30150
X52197Y32690
X49657Y30150
X49657Y32690
X47117Y30150
X47117Y32690
X44577Y30150
X44577Y32690
X42037Y30150
X42037Y32690
X39497Y30150
X39497Y32690
X36957Y30150
X36957Y32690
X34417Y30150
X34417Y32690
X31877Y30150
X31877Y32690
X29337Y30150
X29337Y32690
X26797Y30150
X26797Y32690
X24257Y30150
X24257Y32690
X21717Y30150
X21717Y32690
X19177Y30150
X19177Y32690
X16637Y30150
X16637Y32690
X93980Y43155
X93980Y38125
X93980Y32995
X93980Y27965
X93980Y22835
X93980Y17805
X93980Y63475
X86335Y6604
X81305Y6604
X34290Y69977
X36830Y69977
X88900Y69850
X86360Y69850
T4
X22860Y70104
X20320Y70104
X17780Y70104
X15240Y70104
X12700Y70104
X10160Y70104
T5
X68326Y69850
X70866Y69850
X62992Y69850
X65532Y69850
T6
X58141Y70053
X56141Y70053
X54141Y70053
X52141Y70053
X50141Y70053
X48141Y70053
X46141Y70053
X44141Y70053
X42141Y70053
T7
X87630Y63703
X72923Y27864
X72923Y37541
X56769Y38913
X54864Y2286
X72923Y47701
X37539Y54328
X37544Y55598
X48412Y55677
X48412Y65735
X72923Y54381
X45412Y56998
X52705Y56972
X67056Y63754
X42545Y57328
X65786Y63754
X59436Y49276
X59436Y48006
X68326Y63754
X62862Y42672
X59436Y53086
X62862Y33782
X59436Y51816
X59436Y45466
X59436Y46736
X16180Y50013
X21260Y50749
X59436Y55626
X59436Y54356
X46431Y53086
X46431Y65735
X44501Y51816
X44501Y63094
X44600Y38430
X44552Y50546
X49784Y62332
X37821Y42901
X43078Y42901
X43586Y63833
X33249Y47981
X42316Y47955
X33325Y44247
X41453Y44145
X32995Y11608
X9017Y61163
X38430Y11608
X57694Y11430
X59411Y17526
X74727Y27203
X37490Y46711
X30607Y34950
X25552Y36830
X72339Y14275
X53975Y60833
X26010Y69469
X15443Y48362
X73584Y70663
X59436Y50546
X66040Y21460
X80518Y62230
X80518Y52070
X80518Y41910
X80518Y31750
X80518Y21590
X37541Y45441
X24257Y23597
X62078Y63627
X59436Y42901
X52959Y6629
X52959Y23597
T8
X48342Y50963
X50177Y50963
X48342Y47293
X50177Y47293
X48342Y49128
X50177Y49128
X47425Y50045
X49260Y50045
X51095Y50045
X47425Y48210
X51095Y48210
X49260Y48210
M30