G04 EAGLE Gerber RS-274X export*
G75*
%MOMM*%
%FSLAX34Y34*%
%LPD*%
%INSoldermask Top*%
%IPPOS*%
%AMOC8*
5,1,8,0,0,1.08239X$1,22.5*%
G01*
%ADD10C,3.203200*%
%ADD11C,2.387600*%
%ADD12R,1.803200X1.803200*%
%ADD13C,1.803200*%
%ADD14R,4.503200X2.703200*%
%ADD15R,1.803200X2.003200*%
%ADD16R,2.003200X1.803200*%
%ADD17R,3.703200X1.803200*%
%ADD18C,1.711200*%
%ADD19R,1.603200X1.603200*%
%ADD20R,1.423200X1.113200*%
%ADD21R,11.003200X10.613200*%
%ADD22R,1.270000X2.362200*%
%ADD23R,1.953200X0.603200*%
%ADD24R,1.663200X2.203200*%
%ADD25R,2.703200X1.628200*%
%ADD26R,2.103200X1.703200*%
%ADD27R,5.703200X4.203200*%
%ADD28R,0.903200X1.103200*%
%ADD29R,1.703200X1.703200*%
%ADD30R,6.003200X6.403200*%
%ADD31R,1.803200X3.203200*%
%ADD32P,2.384722X8X112.500000*%
%ADD33R,2.203200X1.803200*%
%ADD34R,1.803200X2.203200*%
%ADD35C,1.524000*%
%ADD36P,2.556822X8X22.500000*%
%ADD37C,2.203200*%
%ADD38P,2.384722X8X22.500000*%
%ADD39R,1.003200X1.603200*%
%ADD40R,1.003200X2.103200*%
%ADD41C,1.721103*%
%ADD42R,1.603200X1.003200*%
%ADD43R,2.103200X1.003200*%
%ADD44R,1.727200X0.838200*%
%ADD45R,1.711200X1.711200*%
%ADD46C,1.711200*%
%ADD47R,2.203200X1.103200*%
%ADD48R,1.103200X2.203200*%
%ADD49R,1.533200X1.533200*%
%ADD50C,0.965200*%
%ADD51P,2.384722X8X202.500000*%
%ADD52C,1.625600*%
%ADD53C,2.082800*%
%ADD54R,2.438400X1.219200*%
%ADD55C,0.959600*%

G36*
X52175Y540614D02*
X52175Y540614D01*
X52180Y540613D01*
X52273Y540634D01*
X52367Y540652D01*
X52371Y540655D01*
X52376Y540656D01*
X52454Y540712D01*
X52532Y540765D01*
X52535Y540769D01*
X52539Y540772D01*
X52590Y540854D01*
X52642Y540933D01*
X52642Y540938D01*
X52645Y540943D01*
X52677Y541120D01*
X52677Y559120D01*
X52676Y559125D01*
X52677Y559130D01*
X52656Y559223D01*
X52638Y559317D01*
X52635Y559321D01*
X52634Y559326D01*
X52578Y559404D01*
X52525Y559482D01*
X52521Y559485D01*
X52518Y559489D01*
X52436Y559540D01*
X52357Y559592D01*
X52352Y559592D01*
X52347Y559595D01*
X52170Y559627D01*
X25170Y559627D01*
X25144Y559622D01*
X25113Y559624D01*
X24446Y559549D01*
X24399Y559534D01*
X24335Y559524D01*
X23701Y559302D01*
X23658Y559277D01*
X23598Y559252D01*
X23030Y558895D01*
X22994Y558861D01*
X22941Y558824D01*
X22466Y558349D01*
X22438Y558308D01*
X22395Y558260D01*
X22038Y557692D01*
X22020Y557645D01*
X21988Y557589D01*
X21766Y556955D01*
X21760Y556906D01*
X21741Y556844D01*
X21666Y556177D01*
X21668Y556150D01*
X21663Y556120D01*
X21663Y548128D01*
X21639Y547344D01*
X21648Y547295D01*
X21649Y547231D01*
X21802Y546454D01*
X21821Y546408D01*
X21836Y546346D01*
X22159Y545622D01*
X22187Y545582D01*
X22216Y545524D01*
X22691Y544891D01*
X22728Y544858D01*
X22769Y544808D01*
X23373Y544297D01*
X23416Y544273D01*
X23467Y544233D01*
X24170Y543869D01*
X24218Y543855D01*
X24276Y543828D01*
X25043Y543629D01*
X25096Y543626D01*
X25170Y543613D01*
X43663Y543613D01*
X43663Y541120D01*
X43664Y541115D01*
X43663Y541110D01*
X43684Y541017D01*
X43702Y540924D01*
X43705Y540919D01*
X43706Y540914D01*
X43762Y540836D01*
X43815Y540758D01*
X43819Y540755D01*
X43822Y540751D01*
X43904Y540700D01*
X43983Y540648D01*
X43988Y540648D01*
X43993Y540645D01*
X44170Y540613D01*
X52170Y540613D01*
X52175Y540614D01*
G37*
G36*
X26178Y598613D02*
X26178Y598613D01*
X52170Y598613D01*
X52175Y598614D01*
X52180Y598613D01*
X52273Y598634D01*
X52367Y598652D01*
X52371Y598655D01*
X52376Y598656D01*
X52454Y598712D01*
X52532Y598765D01*
X52535Y598769D01*
X52539Y598772D01*
X52590Y598854D01*
X52642Y598933D01*
X52642Y598938D01*
X52645Y598943D01*
X52677Y599120D01*
X52677Y617120D01*
X52676Y617125D01*
X52677Y617130D01*
X52656Y617223D01*
X52638Y617317D01*
X52635Y617321D01*
X52634Y617326D01*
X52578Y617404D01*
X52525Y617482D01*
X52521Y617485D01*
X52518Y617489D01*
X52436Y617540D01*
X52357Y617592D01*
X52352Y617592D01*
X52347Y617595D01*
X52170Y617627D01*
X44170Y617627D01*
X44165Y617626D01*
X44160Y617627D01*
X44067Y617606D01*
X43974Y617588D01*
X43969Y617585D01*
X43964Y617584D01*
X43886Y617528D01*
X43808Y617475D01*
X43805Y617471D01*
X43801Y617468D01*
X43750Y617386D01*
X43698Y617307D01*
X43698Y617302D01*
X43695Y617297D01*
X43663Y617120D01*
X43663Y613627D01*
X26170Y613627D01*
X26144Y613622D01*
X26113Y613624D01*
X25223Y613524D01*
X25176Y613509D01*
X25112Y613499D01*
X24267Y613203D01*
X24224Y613177D01*
X24165Y613153D01*
X23406Y612677D01*
X23370Y612643D01*
X23317Y612606D01*
X22684Y611973D01*
X22657Y611931D01*
X22613Y611884D01*
X22137Y611125D01*
X22119Y611079D01*
X22087Y611023D01*
X21792Y610178D01*
X21785Y610129D01*
X21766Y610067D01*
X21666Y609177D01*
X21668Y609150D01*
X21663Y609120D01*
X21663Y602120D01*
X21673Y602067D01*
X21679Y601993D01*
X21878Y601226D01*
X21900Y601182D01*
X21919Y601120D01*
X22283Y600417D01*
X22314Y600379D01*
X22347Y600323D01*
X22858Y599719D01*
X22897Y599688D01*
X22941Y599641D01*
X23574Y599166D01*
X23619Y599145D01*
X23672Y599109D01*
X24396Y598786D01*
X24444Y598776D01*
X24504Y598752D01*
X25281Y598599D01*
X25330Y598599D01*
X25394Y598589D01*
X26178Y598613D01*
G37*
D10*
X50000Y50000D03*
X950000Y50000D03*
X950000Y700000D03*
X50000Y700000D03*
D11*
X813054Y76962D02*
X813054Y55118D01*
X863346Y55118D02*
X863346Y76962D01*
D12*
X581406Y700532D03*
D13*
X561406Y700532D03*
X541406Y700532D03*
X521406Y700532D03*
X501406Y700532D03*
X481406Y700532D03*
X461406Y700532D03*
X441406Y700532D03*
X421406Y700532D03*
D14*
X676656Y65786D03*
X759656Y65786D03*
D15*
X189200Y254000D03*
X217200Y254000D03*
D16*
X96774Y184180D03*
X96774Y156180D03*
X78740Y303500D03*
X78740Y331500D03*
X165100Y372080D03*
X165100Y400080D03*
D17*
X303200Y66040D03*
X357200Y66040D03*
D15*
X367000Y660400D03*
X395000Y660400D03*
X290800Y660400D03*
X318800Y660400D03*
X590520Y114300D03*
X618520Y114300D03*
D17*
X577520Y66040D03*
X631520Y66040D03*
D15*
X189200Y228600D03*
X217200Y228600D03*
X176560Y660400D03*
X148560Y660400D03*
X824200Y139700D03*
X852200Y139700D03*
X303500Y139700D03*
X331500Y139700D03*
D11*
X928878Y584454D02*
X950722Y584454D01*
X950722Y634746D02*
X928878Y634746D01*
D18*
X787400Y690960D02*
X787400Y706040D01*
X812800Y706040D02*
X812800Y690960D01*
D19*
X290118Y169164D03*
X328118Y169164D03*
D20*
X876300Y186825D03*
X876300Y219575D03*
X876300Y288425D03*
X876300Y321175D03*
X876300Y390025D03*
X876300Y422775D03*
X876300Y491625D03*
X876300Y524375D03*
X876300Y593225D03*
X876300Y625975D03*
D11*
X928878Y482854D02*
X950722Y482854D01*
X950722Y533146D02*
X928878Y533146D01*
D21*
X458216Y118364D03*
D22*
X492252Y201676D03*
X475234Y201676D03*
X458216Y201676D03*
X441198Y201676D03*
X424180Y201676D03*
D23*
X58420Y579120D03*
X58420Y585620D03*
X58420Y566120D03*
X58420Y572620D03*
D24*
X61170Y550120D03*
X61170Y608120D03*
D25*
X31670Y588745D03*
X31670Y569495D03*
D23*
X58420Y592120D03*
D26*
X745900Y215900D03*
X745900Y190500D03*
X828900Y190500D03*
X828900Y215900D03*
X745900Y317500D03*
X745900Y292100D03*
X828900Y292100D03*
X828900Y317500D03*
X745900Y419100D03*
X745900Y393700D03*
X828900Y393700D03*
X828900Y419100D03*
X745900Y520700D03*
X745900Y495300D03*
X828900Y495300D03*
X828900Y520700D03*
X745900Y622300D03*
X745900Y596900D03*
X828900Y596900D03*
X828900Y622300D03*
D27*
X211836Y145932D03*
X211836Y35932D03*
D28*
X77320Y548640D03*
X90320Y548640D03*
X77320Y591820D03*
X90320Y591820D03*
X77320Y566420D03*
X90320Y566420D03*
D29*
X729260Y254000D03*
X764260Y254000D03*
X838200Y677900D03*
X838200Y642900D03*
X729260Y355600D03*
X764260Y355600D03*
X729260Y457200D03*
X764260Y457200D03*
X729260Y558800D03*
X764260Y558800D03*
X729260Y650240D03*
X764260Y650240D03*
X838200Y271500D03*
X838200Y236500D03*
X838200Y373100D03*
X838200Y338100D03*
X838200Y474700D03*
X838200Y439700D03*
X838200Y576300D03*
X838200Y541300D03*
D30*
X594106Y247828D03*
D31*
X571306Y176028D03*
X616906Y176028D03*
D32*
X292100Y699770D03*
X317500Y699770D03*
X342900Y699770D03*
X368300Y699770D03*
D18*
X863600Y706040D02*
X863600Y690960D01*
X889000Y690960D02*
X889000Y706040D01*
D33*
X660400Y214600D03*
X660400Y242600D03*
D34*
X709960Y601980D03*
X681960Y601980D03*
X786100Y254000D03*
X814100Y254000D03*
X786100Y355600D03*
X814100Y355600D03*
X786100Y457200D03*
X814100Y457200D03*
X786100Y558800D03*
X814100Y558800D03*
X285810Y403098D03*
X257810Y403098D03*
X628620Y337820D03*
X656620Y337820D03*
X676880Y660400D03*
X704880Y660400D03*
D33*
X121412Y501844D03*
X121412Y529844D03*
D34*
X621000Y660400D03*
X649000Y660400D03*
D35*
X683260Y691896D02*
X683260Y705104D01*
X708660Y705104D02*
X708660Y691896D01*
X629920Y691896D02*
X629920Y705104D01*
X655320Y705104D02*
X655320Y691896D01*
D33*
X735838Y678628D03*
X735838Y706628D03*
D34*
X786100Y650240D03*
X814100Y650240D03*
X628620Y426720D03*
X656620Y426720D03*
X628620Y515620D03*
X656620Y515620D03*
X628620Y601980D03*
X656620Y601980D03*
D33*
X698500Y214600D03*
X698500Y242600D03*
D34*
X709960Y337820D03*
X681960Y337820D03*
X709960Y426720D03*
X681960Y426720D03*
X709960Y515620D03*
X681960Y515620D03*
D36*
X237490Y483616D03*
X313690Y483616D03*
D11*
X928878Y178054D02*
X950722Y178054D01*
X950722Y228346D02*
X928878Y228346D01*
X928878Y279654D02*
X950722Y279654D01*
X950722Y329946D02*
X928878Y329946D01*
X928878Y381254D02*
X950722Y381254D01*
X950722Y431546D02*
X928878Y431546D01*
D37*
X166370Y326898D03*
D38*
X166370Y301498D03*
X191770Y326898D03*
X191770Y301498D03*
X217170Y326898D03*
X217170Y301498D03*
X242570Y326898D03*
X242570Y301498D03*
X267970Y326898D03*
X267970Y301498D03*
X293370Y326898D03*
X293370Y301498D03*
X318770Y326898D03*
X318770Y301498D03*
X344170Y326898D03*
X344170Y301498D03*
X369570Y326898D03*
X369570Y301498D03*
X394970Y326898D03*
X394970Y301498D03*
X420370Y326898D03*
X420370Y301498D03*
X445770Y326898D03*
X445770Y301498D03*
X471170Y326898D03*
X471170Y301498D03*
X496570Y326898D03*
X496570Y301498D03*
X521970Y326898D03*
X521970Y301498D03*
D39*
X675890Y142750D03*
X705870Y142750D03*
D40*
X690880Y145290D03*
D41*
X693451Y161299D02*
X688309Y161299D01*
X688309Y182621D01*
X693451Y182621D01*
X693451Y161299D01*
X693451Y177649D02*
X688309Y177649D01*
D42*
X658370Y307090D03*
X658370Y277110D03*
D43*
X660910Y292100D03*
D41*
X676919Y289529D02*
X676919Y294671D01*
X698241Y294671D01*
X698241Y289529D01*
X676919Y289529D01*
D42*
X658370Y395990D03*
X658370Y366010D03*
D43*
X660910Y381000D03*
D41*
X676919Y378429D02*
X676919Y383571D01*
X698241Y383571D01*
X698241Y378429D01*
X676919Y378429D01*
D42*
X658370Y484890D03*
X658370Y454910D03*
D43*
X660910Y469900D03*
D41*
X676919Y467329D02*
X676919Y472471D01*
X698241Y472471D01*
X698241Y467329D01*
X676919Y467329D01*
D42*
X658370Y573790D03*
X658370Y543810D03*
D43*
X660910Y558800D03*
D41*
X676919Y556229D02*
X676919Y561371D01*
X698241Y561371D01*
X698241Y556229D01*
X676919Y556229D01*
D44*
X148310Y608330D03*
X202210Y582930D03*
X148310Y621030D03*
X148310Y595630D03*
X148310Y582930D03*
X202210Y595630D03*
X202210Y570230D03*
X202210Y557530D03*
X148310Y557530D03*
X202210Y532130D03*
X148310Y570230D03*
X148310Y544830D03*
X202210Y544830D03*
X148310Y532130D03*
X202210Y608330D03*
X202210Y621030D03*
D45*
X127000Y368300D03*
D46*
X127000Y393700D03*
X127000Y419100D03*
X127000Y444500D03*
D47*
X567600Y581380D03*
X567600Y568680D03*
X567600Y555980D03*
X567600Y543280D03*
X567600Y530580D03*
X567600Y517880D03*
X567600Y505180D03*
X567600Y492480D03*
X567600Y479780D03*
X567600Y467080D03*
X567600Y454380D03*
X567600Y441680D03*
X567600Y428980D03*
X567600Y416280D03*
X397600Y581380D03*
X397600Y568680D03*
X397600Y555980D03*
X397600Y543280D03*
X397600Y530580D03*
X397600Y517880D03*
X397600Y505180D03*
X397600Y492480D03*
X397600Y479780D03*
X397600Y467080D03*
X397600Y454380D03*
X397600Y441680D03*
X397600Y428980D03*
X397600Y416280D03*
D48*
X476250Y591380D03*
X463550Y591380D03*
X450850Y591380D03*
X438150Y591380D03*
X425450Y591380D03*
X488950Y591380D03*
X501650Y591380D03*
X514350Y591380D03*
X527050Y591380D03*
X539750Y591380D03*
D49*
X492600Y491280D03*
X510950Y491280D03*
X474250Y491280D03*
X492600Y472930D03*
X510950Y472930D03*
X474250Y472930D03*
X492600Y509630D03*
X510950Y509630D03*
X474250Y509630D03*
D50*
X492600Y482105D03*
X510950Y482105D03*
X474250Y482105D03*
X510950Y500455D03*
X492600Y500455D03*
X474250Y500455D03*
X501775Y491280D03*
X483425Y491280D03*
X501775Y472930D03*
X483425Y472930D03*
X501775Y509630D03*
X483425Y509630D03*
D51*
X48006Y131318D03*
X48006Y156718D03*
X48006Y182118D03*
X48006Y207518D03*
D52*
X228600Y693928D02*
X228600Y708152D01*
X203200Y708152D02*
X203200Y693928D01*
X177800Y693928D02*
X177800Y708152D01*
X152400Y708152D02*
X152400Y693928D01*
X127000Y693928D02*
X127000Y708152D01*
X101600Y708152D02*
X101600Y693928D01*
D15*
X229900Y660400D03*
X201900Y660400D03*
D53*
X111760Y330200D03*
X111760Y304800D03*
X111760Y279400D03*
X111760Y254000D03*
X45720Y330200D03*
X45720Y304800D03*
X45720Y279400D03*
X45720Y254000D03*
D16*
X762762Y678628D03*
X762762Y706628D03*
D54*
X296672Y619760D03*
X296672Y604520D03*
X296672Y589280D03*
X296672Y574040D03*
X358648Y574040D03*
X358648Y589280D03*
X358648Y604520D03*
X358648Y619760D03*
D33*
X231140Y610900D03*
X231140Y582900D03*
X264160Y610900D03*
X264160Y582900D03*
X25578Y506222D03*
X79578Y506222D03*
D55*
X723392Y142748D03*
X729234Y543814D03*
X729234Y375412D03*
X567690Y389128D03*
X548640Y22860D03*
X729234Y477012D03*
X729234Y278638D03*
X876300Y637032D03*
X539750Y608330D03*
X260096Y694690D03*
X154432Y483616D03*
X735838Y706628D03*
X594360Y505460D03*
X660400Y214600D03*
X805180Y622300D03*
X805180Y520700D03*
X805180Y419100D03*
X805180Y317500D03*
X805180Y215900D03*
X529590Y235966D03*
X529590Y66294D03*
X594360Y429006D03*
X620776Y636270D03*
X242570Y235966D03*
X375412Y454406D03*
X255524Y368300D03*
X306070Y349504D03*
X374904Y467106D03*
X747268Y272034D03*
X594106Y175260D03*
X576938Y114300D03*
X384302Y116078D03*
X90170Y611632D03*
X329946Y116078D03*
X414528Y441452D03*
X333248Y442468D03*
X423164Y479552D03*
X332486Y479806D03*
X435864Y638330D03*
X430784Y429006D03*
X378206Y429006D03*
X497840Y623316D03*
X445516Y505460D03*
X445996Y384302D03*
X445008Y630936D03*
X445008Y518160D03*
X464312Y657352D03*
X464312Y530860D03*
X594360Y543560D03*
X594360Y556260D03*
X212598Y507492D03*
X161798Y500126D03*
X594360Y467360D03*
X594360Y454660D03*
X594360Y518160D03*
X628620Y337820D03*
X594360Y530860D03*
X628620Y426720D03*
X683260Y637540D03*
X594360Y480060D03*
X594360Y492760D03*
X657860Y637540D03*
X425450Y573278D03*
X670560Y637540D03*
X527050Y569722D03*
X454124Y569976D03*
X484124Y657352D03*
X484124Y556768D03*
X375438Y555980D03*
X375386Y543280D03*
M02*
