G04 EAGLE Gerber RS-274X export*
G75*
%MOMM*%
%FSLAX34Y34*%
%LPD*%
%INSoldermask Bottom*%
%IPPOS*%
%AMOC8*
5,1,8,0,0,1.08239X$1,22.5*%
G01*
%ADD10C,3.203200*%
%ADD11C,2.387600*%
%ADD12R,1.803200X1.803200*%
%ADD13C,1.803200*%
%ADD14C,1.711200*%
%ADD15P,2.384722X8X112.500000*%
%ADD16C,1.524000*%
%ADD17P,2.556822X8X22.500000*%
%ADD18C,2.203200*%
%ADD19P,2.384722X8X22.500000*%
%ADD20R,1.711200X1.711200*%
%ADD21C,1.711200*%
%ADD22C,0.965200*%
%ADD23P,2.384722X8X202.500000*%
%ADD24C,1.625600*%
%ADD25C,2.082800*%
%ADD26C,0.959600*%


D10*
X50000Y50000D03*
X950000Y50000D03*
X950000Y700000D03*
X50000Y700000D03*
D11*
X813054Y76962D02*
X813054Y55118D01*
X863346Y55118D02*
X863346Y76962D01*
D12*
X581406Y700532D03*
D13*
X561406Y700532D03*
X541406Y700532D03*
X521406Y700532D03*
X501406Y700532D03*
X481406Y700532D03*
X461406Y700532D03*
X441406Y700532D03*
X421406Y700532D03*
D11*
X928878Y584454D02*
X950722Y584454D01*
X950722Y634746D02*
X928878Y634746D01*
D14*
X787400Y690960D02*
X787400Y706040D01*
X812800Y706040D02*
X812800Y690960D01*
D11*
X928878Y482854D02*
X950722Y482854D01*
X950722Y533146D02*
X928878Y533146D01*
D15*
X292100Y699770D03*
X317500Y699770D03*
X342900Y699770D03*
X368300Y699770D03*
D14*
X863600Y706040D02*
X863600Y690960D01*
X889000Y690960D02*
X889000Y706040D01*
D16*
X683260Y705104D02*
X683260Y691896D01*
X708660Y691896D02*
X708660Y705104D01*
X629920Y705104D02*
X629920Y691896D01*
X655320Y691896D02*
X655320Y705104D01*
D17*
X237490Y483616D03*
X313690Y483616D03*
D11*
X928878Y178054D02*
X950722Y178054D01*
X950722Y228346D02*
X928878Y228346D01*
X928878Y279654D02*
X950722Y279654D01*
X950722Y329946D02*
X928878Y329946D01*
X928878Y381254D02*
X950722Y381254D01*
X950722Y431546D02*
X928878Y431546D01*
D18*
X166370Y326898D03*
D19*
X166370Y301498D03*
X191770Y326898D03*
X191770Y301498D03*
X217170Y326898D03*
X217170Y301498D03*
X242570Y326898D03*
X242570Y301498D03*
X267970Y326898D03*
X267970Y301498D03*
X293370Y326898D03*
X293370Y301498D03*
X318770Y326898D03*
X318770Y301498D03*
X344170Y326898D03*
X344170Y301498D03*
X369570Y326898D03*
X369570Y301498D03*
X394970Y326898D03*
X394970Y301498D03*
X420370Y326898D03*
X420370Y301498D03*
X445770Y326898D03*
X445770Y301498D03*
X471170Y326898D03*
X471170Y301498D03*
X496570Y326898D03*
X496570Y301498D03*
X521970Y326898D03*
X521970Y301498D03*
D20*
X127000Y368300D03*
D21*
X127000Y393700D03*
X127000Y419100D03*
X127000Y444500D03*
D22*
X492600Y482105D03*
X510950Y482105D03*
X474250Y482105D03*
X510950Y500455D03*
X492600Y500455D03*
X474250Y500455D03*
X501775Y491280D03*
X483425Y491280D03*
X501775Y472930D03*
X483425Y472930D03*
X501775Y509630D03*
X483425Y509630D03*
D23*
X48006Y131318D03*
X48006Y156718D03*
X48006Y182118D03*
X48006Y207518D03*
D24*
X228600Y693928D02*
X228600Y708152D01*
X203200Y708152D02*
X203200Y693928D01*
X177800Y693928D02*
X177800Y708152D01*
X152400Y708152D02*
X152400Y693928D01*
X127000Y693928D02*
X127000Y708152D01*
X101600Y708152D02*
X101600Y693928D01*
D25*
X111760Y330200D03*
X111760Y304800D03*
X111760Y279400D03*
X111760Y254000D03*
X45720Y330200D03*
X45720Y304800D03*
X45720Y279400D03*
X45720Y254000D03*
D26*
X723392Y142748D03*
X729234Y543814D03*
X729234Y375412D03*
X567690Y389128D03*
X548640Y22860D03*
X729234Y477012D03*
X729234Y278638D03*
X876300Y637032D03*
X539750Y608330D03*
X260096Y694690D03*
X154432Y483616D03*
X735838Y706628D03*
X594360Y505460D03*
X660400Y214600D03*
X805180Y622300D03*
X805180Y520700D03*
X805180Y419100D03*
X805180Y317500D03*
X805180Y215900D03*
X529590Y235966D03*
X529590Y66294D03*
X594360Y429006D03*
X620776Y636270D03*
X242570Y235966D03*
X375412Y454406D03*
X255524Y368300D03*
X306070Y349504D03*
X374904Y467106D03*
X747268Y272034D03*
X594106Y175260D03*
X576938Y114300D03*
X384302Y116078D03*
X90170Y611632D03*
X329946Y116078D03*
X414528Y441452D03*
X333248Y442468D03*
X423164Y479552D03*
X332486Y479806D03*
X435864Y638330D03*
X430784Y429006D03*
X378206Y429006D03*
X497840Y623316D03*
X445516Y505460D03*
X445996Y384302D03*
X445008Y630936D03*
X445008Y518160D03*
X464312Y657352D03*
X464312Y530860D03*
X594360Y543560D03*
X594360Y556260D03*
X212598Y507492D03*
X161798Y500126D03*
X594360Y467360D03*
X594360Y454660D03*
X594360Y518160D03*
X628620Y337820D03*
X594360Y530860D03*
X628620Y426720D03*
X683260Y637540D03*
X594360Y480060D03*
X594360Y492760D03*
X657860Y637540D03*
X425450Y573278D03*
X670560Y637540D03*
X527050Y569722D03*
X454124Y569976D03*
X484124Y657352D03*
X484124Y556768D03*
X375438Y555980D03*
X375386Y543280D03*
M02*
