999
FreeCAD v0.19 23756 (Git)
  0
SECTION
  2
HEADER
  9
$ACADVER
  1
AC1014
  9
$ACADMAINTVER
 70
     9
  9
$DWGCODEPAGE
  3
ANSI_1252
  9
$TEXTSTYLE
  7
STANDARD
  9
$DIMSTYLE
  2
STANDARD
  9
$DIMTXSTY
  7
STANDARD
  9
$CMLSTYLE
  2
STANDARD
  9
$PEXTMAX
 10
50
 20
50
 30
50
  9
$PEXTMIN
 10
0
 20
0
 30
0
  9
$HANDSEED
  5
FFFF
  0
ENDSEC
  0
SECTION
  2
CLASSES
  0
CLASS
  1
ACDBDICTIONARYWDFLT
  2
AcDbDictionaryWithDefault
  3
ObjectDBX Classes
 90
        0
280
     0
281
     0
  0
CLASS
  1
XRECORD
  2
AcDbXrecord
  3
ObjectDBX Classes
 90
        0
280
     0
281
     0
  0
CLASS
  1
LWPOLYLINE
  2
AcDbPolyline
  3
ObjectDBX Classes
 90
        0
280
     0
281
     1
  0
ENDSEC
  0
SECTION
  2
TABLES
  0
TABLE
  2
VPORT
  5
20
330
0
100
AcDbSymbolTable
 70
     1
  0
VPORT
  5
21
330
20
100
AcDbSymbolTableRecord
100
AcDbViewportTableRecord
  2
*ACTIVE
 70
     0
  0
ENDTAB
  0
TABLE
  2
LTYPE
  5
22
330
0
100
AcDbSymbolTable
 70
     1
  0
LTYPE
  5
23
330
21
100
AcDbSymbolTableRecord
100
AcDbLinetypeTableRecord
  2
BYBLOCK
 70
     0
  3

 72
    65
 73
     0
 40
0.0
  0
LTYPE
  5
24
330
21
100
AcDbSymbolTableRecord
100
AcDbLinetypeTableRecord
  2
BYLAYER
 70
     0
  3

 72
    65
 73
     0
 40
0.0
  0
LTYPE
  5
25
330
21
100
AcDbSymbolTableRecord
100
AcDbLinetypeTableRecord
  2
CONTINUOUS
 70
     0
  3
Solid line
 72
    65
 73
     0
 40
0.0
  0
ENDTAB
  0
TABLE
  2
LAYER
  5
AAC
330
0
100
AcDbSymbolTable
 70
3
  0
LAYER
  5
AAD
330
AAC
100
AcDbSymbolTableRecord
100
AcDbLayerTableRecord
  2
0
 70
   0
 62
   7
  6
CONTINUOUS
  0
LAYER
  5
AAE
330
AAC
100
AcDbSymbolTableRecord
100
AcDbLayerTableRecord
  2
none
 70
    0
 62
    7
  6
CONTINUOUS
  0
LAYER
  5
AAF
330
AAC
100
AcDbSymbolTableRecord
100
AcDbLayerTableRecord
  2
Shape2DView005
 70
    0
 62
    7
  6
CONTINUOUS
  0
ENDTAB
  0
TABLE
  2
STYLE
  5
70
330
0
100
AcDbSymbolTable
 70
     2
  0
STYLE
  5
71
330
70
100
AcDbSymbolTableRecord
100
AcDbTextStyleTableRecord
  2
STANDARD
 70
     0
 40
0.0
 41
1.0
 50
0.0
 71
     0
 42
2.5
  3
arial.ttf
  4

  0
STYLE
  5
72
330
70
100
AcDbSymbolTableRecord
100
AcDbTextStyleTableRecord
  2
ANNOTATIVE
 70
     0
 40
0.0
 41
1.0
 50
0.0
 71
     0
 42
2.5
  3
arial.ttf
  4

  0
ENDTAB
  0
TABLE
  2
VIEW
  5
73
330
0
100
AcDbSymbolTable
 70
     0
  0
ENDTAB
  0
TABLE
  2
UCS
  5
74
330
0
100
AcDbSymbolTable
 70
     0
  0
ENDTAB
  0
TABLE
  2
APPID
  5
75
330
0
100
AcDbSymbolTable
 70
     2
  0
APPID
  5
76
330
75
100
AcDbSymbolTableRecord
100
AcDbRegAppTableRecord
  2
ACAD
 70
     0
  0
APPID
  5
77
330
75
100
AcDbSymbolTableRecord
100
AcDbRegAppTableRecord
  2
ACADANNOTATIVE
 70
     0
  0
ENDTAB
  0
TABLE
  2
DIMSTYLE
  5
78
330
0
100
AcDbSymbolTable
 70
     2
  0
DIMSTYLE
105
79
330
78
100
AcDbSymbolTableRecord
100
AcDbDimStyleTableRecord
  2
STANDARD
 70
     0
  3

  4

  5

  6

  7

 40
0.0
 41
2.5
 42
0.625
 43
3.75
 44
1.25
 45
0.0
 46
0.0
 47
0.0
 48
0.0
140
2.5
141
2.5
142
0.0
143
0.03937007874016
144
1.0
145
0.0
146
1.0
147
0.625
 71
     0
 72
     0
 73
     0
 74
     0
 75
     0
 76
     0
 77
     1
 78
     8
170
     0
171
     3
172
     1
173
     0
174
     0
175
     0
176
     0
177
     0
178
     0
270
     2
271
     2
272
     2
273
     2
274
     3
340
71
275
     0
280
     0
281
     0
282
     0
283
     0
284
     8
285
     0
286
     0
287
     3
288
     0
  0
ENDTAB
  0
TABLE
  2
BLOCK_RECORD
  5
A01
330
0
100
AcDbSymbolTable
  70
5
  0
BLOCK_RECORD
  5
A02
330
A01
100
AcDbSymbolTableRecord
100
AcDbBlockTableRecord
  2
*MODEL_SPACE
  0
BLOCK_RECORD
  5
A03
330
A01
100
AcDbSymbolTableRecord
100
AcDbBlockTableRecord
  2
*PAPER_SPACE
  0
ENDTAB
  0
ENDSEC
  0
SECTION
  2
BLOCKS
  0
BLOCK
  5
A04
330
A02
100
AcDbEntity
  8
0
100
AcDbBlockBegin
  2
*MODEL_SPACE
 70
   0
 10
0
 20
0
 30
0
  3
*MODEL_SPACE
  1
 
  0
ENDBLK
  5
A05
330
A02
100
AcDbEntity
  8
0
100
AcDbBlockEnd
  0
BLOCK
  5
A06
330
A03
100
AcDbEntity
 67
1
  8
0
100
AcDbBlockBegin
  2
*PAPER_SPACE
 70
   0
 10
0
 20
0
 30
0
  3
*PAPER_SPACE
  1
 
  0
ENDBLK
  5
A07
330
A03
100
AcDbEntity
 67
    1
  8
0
100
AcDbBlockEnd
  0
ENDSEC
  0
SECTION
  2
ENTITIES
  0
LINE
  5
A08
330
A02
100
AcDbEntity
  8
Shape2DView005
100
AcDbLine
 10
-160
 20
-219.5
 30
0
 11
160
 21
-219.5
 31
0
  0
LINE
  5
A09
330
A02
100
AcDbEntity
  8
Shape2DView005
100
AcDbLine
 10
-160
 20
-34.5
 30
0
 11
-160
 21
-219.5
 31
0
  0
LINE
  5
A0A
330
A02
100
AcDbEntity
  8
Shape2DView005
100
AcDbLine
 10
160
 20
-219.5
 30
0
 11
160
 21
-34.5
 31
0
  0
LINE
  5
A0B
330
A02
100
AcDbEntity
  8
Shape2DView005
100
AcDbLine
 10
160
 20
-34.5
 30
0
 11
-160
 21
-34.5
 31
0
  0
CIRCLE
  5
A0C
330
A02
100
AcDbEntity
  8
Shape2DView005
100
AcDbCircle
 10
-150
 20
-59.5
 40
2.6
  0
CIRCLE
  5
A0D
330
A02
100
AcDbEntity
  8
Shape2DView005
100
AcDbCircle
 10
-130
 20
-49.5
 40
3
  0
CIRCLE
  5
A0E
330
A02
100
AcDbEntity
  8
Shape2DView005
100
AcDbCircle
 10
-132.397
 20
-77.1034
 40
2.5
  0
LINE
  5
A0F
330
A02
100
AcDbEntity
  8
Shape2DView005
100
AcDbLine
 10
-113.543
 20
-92.4211
 30
0
 11
-120.622
 21
-85.3427
 31
0
  0
ARC
  5
A10
330
A02
100
AcDbEntity
  8
Shape2DView005
100
AcDbCircle
 10
-80
 20
-129.5
 30
0
 40
50
100
AcDbArc
 50
47.866
 51
132.134
  0
ARC
  5
A11
330
A02
100
AcDbEntity
  8
Shape2DView005
100
AcDbCircle
 10
-80
 20
-129.5
 30
0
 40
60
100
AcDbArc
 50
47.388
 51
132.612
  0
LINE
  5
A12
330
A02
100
AcDbEntity
  8
Shape2DView005
100
AcDbLine
 10
-46.4566
 20
-92.4211
 30
0
 11
-39.3782
 21
-85.3427
 31
0
  0
CIRCLE
  5
A13
330
A02
100
AcDbEntity
  8
Shape2DView005
100
AcDbCircle
 10
-150
 20
-119.5
 40
2.6
  0
LINE
  5
A14
330
A02
100
AcDbEntity
  8
Shape2DView005
100
AcDbLine
 10
-104.335
 20
-101.629
 30
0
 11
-111.419
 21
-94.5453
 31
0
  0
ARC
  5
A15
330
A02
100
AcDbEntity
  8
Shape2DView005
100
AcDbCircle
 10
-80
 20
-129.5
 30
0
 40
37
100
AcDbArc
 50
48.8743
 51
131.126
  0
ARC
  5
A16
330
A02
100
AcDbEntity
  8
Shape2DView005
100
AcDbCircle
 10
-80
 20
-129.5
 30
0
 40
47
100
AcDbArc
 50
48.0491
 51
131.951
  0
LINE
  5
A17
330
A02
100
AcDbEntity
  8
Shape2DView005
100
AcDbLine
 10
-55.6646
 20
-101.629
 30
0
 11
-48.5808
 21
-94.5453
 31
0
  0
LINE
  5
A18
330
A02
100
AcDbEntity
  8
Shape2DView005
100
AcDbLine
 10
-95.1105
 20
-110.854
 30
0
 11
-102.209
 21
-103.756
 31
0
  0
ARC
  5
A19
330
A02
100
AcDbEntity
  8
Shape2DView005
100
AcDbCircle
 10
-80
 20
-129.5
 30
0
 40
24
100
AcDbArc
 50
50.9792
 51
129.021
  0
ARC
  5
A1A
330
A02
100
AcDbEntity
  8
Shape2DView005
100
AcDbCircle
 10
-80
 20
-129.5
 30
0
 40
34
100
AcDbArc
 50
49.2167
 51
130.783
  0
LINE
  5
A1B
330
A02
100
AcDbEntity
  8
Shape2DView005
100
AcDbLine
 10
-64.8895
 20
-110.854
 30
0
 11
-57.7912
 21
-103.756
 31
0
  0
LINE
  5
A1C
330
A02
100
AcDbEntity
  8
Shape2DView005
100
AcDbLine
 10
-85.8069
 20
-120.158
 30
0
 11
-92.9759
 21
-112.989
 31
0
  0
ARC
  5
A1D
330
A02
100
AcDbEntity
  8
Shape2DView005
100
AcDbCircle
 10
-80
 20
-129.5
 30
0
 40
11
100
AcDbArc
 50
58.1366
 51
121.863
  0
ARC
  5
A1E
330
A02
100
AcDbEntity
  8
Shape2DView005
100
AcDbCircle
 10
-80
 20
-129.5
 30
0
 40
21
100
AcDbArc
 50
51.8371
 51
128.163
  0
LINE
  5
A1F
330
A02
100
AcDbEntity
  8
Shape2DView005
100
AcDbLine
 10
-74.1931
 20
-120.158
 30
0
 11
-67.0241
 21
-112.989
 31
0
  0
CIRCLE
  5
A20
330
A02
100
AcDbEntity
  8
Shape2DView005
100
AcDbCircle
 10
-50
 20
-49.5
 40
3
  0
CIRCLE
  5
A21
330
A02
100
AcDbEntity
  8
Shape2DView005
100
AcDbCircle
 10
-10
 20
-49.5
 40
3
  0
CIRCLE
  5
A22
330
A02
100
AcDbEntity
  8
Shape2DView005
100
AcDbCircle
 10
-27.6034
 20
-77.1034
 40
2.5
  0
ARC
  5
A23
330
A02
100
AcDbEntity
  8
Shape2DView005
100
AcDbCircle
 10
-80
 20
-129.5
 30
0
 40
11
100
AcDbArc
 50
-31.8634
 51
31.8636
  0
LINE
  5
A24
330
A02
100
AcDbEntity
  8
Shape2DView005
100
AcDbLine
 10
-70.6576
 20
-123.693
 30
0
 11
-63.4886
 21
-116.524
 31
0
  0
LINE
  5
A25
330
A02
100
AcDbEntity
  8
Shape2DView005
100
AcDbLine
 10
-70.6576
 20
-135.307
 30
0
 11
-63.4886
 21
-142.476
 31
0
  0
ARC
  5
A26
330
A02
100
AcDbEntity
  8
Shape2DView005
100
AcDbCircle
 10
-80
 20
-129.5
 30
0
 40
21
100
AcDbArc
 50
-38.1629
 51
38.1629
  0
ARC
  5
A27
330
A02
100
AcDbEntity
  8
Shape2DView005
100
AcDbCircle
 10
-80
 20
-129.5
 30
0
 40
24
100
AcDbArc
 50
-39.0208
 51
39.0209
  0
LINE
  5
A28
330
A02
100
AcDbEntity
  8
Shape2DView005
100
AcDbLine
 10
-61.354
 20
-114.39
 30
0
 11
-54.2557
 21
-107.291
 31
0
  0
LINE
  5
A29
330
A02
100
AcDbEntity
  8
Shape2DView005
100
AcDbLine
 10
-61.354
 20
-144.61
 30
0
 11
-54.2557
 21
-151.709
 31
0
  0
ARC
  5
A2A
330
A02
100
AcDbEntity
  8
Shape2DView005
100
AcDbCircle
 10
-80
 20
-129.5
 30
0
 40
34
100
AcDbArc
 50
-40.7833
 51
40.7833
  0
ARC
  5
A2B
330
A02
100
AcDbEntity
  8
Shape2DView005
100
AcDbCircle
 10
-80
 20
-129.5
 30
0
 40
37
100
AcDbArc
 50
-41.1257
 51
41.1257
  0
LINE
  5
A2C
330
A02
100
AcDbEntity
  8
Shape2DView005
100
AcDbLine
 10
-52.1291
 20
-105.165
 30
0
 11
-45.0453
 21
-98.0808
 31
0
  0
LINE
  5
A2D
330
A02
100
AcDbEntity
  8
Shape2DView005
100
AcDbLine
 10
-52.1291
 20
-153.835
 30
0
 11
-45.0453
 21
-160.919
 31
0
  0
ARC
  5
A2E
330
A02
100
AcDbEntity
  8
Shape2DView005
100
AcDbCircle
 10
-80
 20
-129.5
 30
0
 40
47
100
AcDbArc
 50
-41.9509
 51
41.9509
  0
ARC
  5
A2F
330
A02
100
AcDbEntity
  8
Shape2DView005
100
AcDbCircle
 10
-80
 20
-129.5
 30
0
 40
50
100
AcDbArc
 50
-42.134
 51
42.134
  0
LINE
  5
A30
330
A02
100
AcDbEntity
  8
Shape2DView005
100
AcDbLine
 10
-42.9211
 20
-95.9566
 30
0
 11
-35.8427
 21
-88.8782
 31
0
  0
LINE
  5
A31
330
A02
100
AcDbEntity
  8
Shape2DView005
100
AcDbLine
 10
-42.9211
 20
-163.043
 30
0
 11
-35.8427
 21
-170.122
 31
0
  0
ARC
  5
A32
330
A02
100
AcDbEntity
  8
Shape2DView005
100
AcDbCircle
 10
-80
 20
-129.5
 30
0
 40
60
100
AcDbArc
 50
-42.612
 51
42.612
  0
CIRCLE
  5
A33
330
A02
100
AcDbEntity
  8
Shape2DView005
100
AcDbCircle
 10
-10
 20
-109.5
 40
3
  0
LINE
  5
A34
330
A02
100
AcDbEntity
  8
Shape2DView005
100
AcDbLine
 10
-117.079
 20
-163.043
 30
0
 11
-124.157
 21
-170.122
 31
0
  0
ARC
  5
A35
330
A02
100
AcDbEntity
  8
Shape2DView005
100
AcDbCircle
 10
-80
 20
-129.5
 30
0
 40
50
100
AcDbArc
 50
137.866
 51
-137.866
  0
ARC
  5
A36
330
A02
100
AcDbEntity
  8
Shape2DView005
100
AcDbCircle
 10
-80
 20
-129.5
 30
0
 40
60
100
AcDbArc
 50
137.388
 51
-137.388
  0
LINE
  5
A37
330
A02
100
AcDbEntity
  8
Shape2DView005
100
AcDbLine
 10
-117.079
 20
-95.9566
 30
0
 11
-124.157
 21
-88.8782
 31
0
  0
LINE
  5
A38
330
A02
100
AcDbEntity
  8
Shape2DView005
100
AcDbLine
 10
-107.871
 20
-153.835
 30
0
 11
-114.955
 21
-160.919
 31
0
  0
ARC
  5
A39
330
A02
100
AcDbEntity
  8
Shape2DView005
100
AcDbCircle
 10
-80
 20
-129.5
 30
0
 40
37
100
AcDbArc
 50
138.874
 51
-138.874
  0
ARC
  5
A3A
330
A02
100
AcDbEntity
  8
Shape2DView005
100
AcDbCircle
 10
-80
 20
-129.5
 30
0
 40
47
100
AcDbArc
 50
138.049
 51
-138.049
  0
LINE
  5
A3B
330
A02
100
AcDbEntity
  8
Shape2DView005
100
AcDbLine
 10
-107.871
 20
-105.165
 30
0
 11
-114.955
 21
-98.0808
 31
0
  0
LINE
  5
A3C
330
A02
100
AcDbEntity
  8
Shape2DView005
100
AcDbLine
 10
-98.646
 20
-144.61
 30
0
 11
-105.744
 21
-151.709
 31
0
  0
ARC
  5
A3D
330
A02
100
AcDbEntity
  8
Shape2DView005
100
AcDbCircle
 10
-80
 20
-129.5
 30
0
 40
24
100
AcDbArc
 50
140.979
 51
-140.979
  0
ARC
  5
A3E
330
A02
100
AcDbEntity
  8
Shape2DView005
100
AcDbCircle
 10
-80
 20
-129.5
 30
0
 40
34
100
AcDbArc
 50
139.217
 51
-139.217
  0
LINE
  5
A3F
330
A02
100
AcDbEntity
  8
Shape2DView005
100
AcDbLine
 10
-98.646
 20
-114.39
 30
0
 11
-105.744
 21
-107.291
 31
0
  0
LINE
  5
A40
330
A02
100
AcDbEntity
  8
Shape2DView005
100
AcDbLine
 10
-89.3424
 20
-135.307
 30
0
 11
-96.5114
 21
-142.476
 31
0
  0
ARC
  5
A41
330
A02
100
AcDbEntity
  8
Shape2DView005
100
AcDbCircle
 10
-80
 20
-129.5
 30
0
 40
11
100
AcDbArc
 50
148.137
 51
-148.137
  0
ARC
  5
A42
330
A02
100
AcDbEntity
  8
Shape2DView005
100
AcDbCircle
 10
-80
 20
-129.5
 30
0
 40
21
100
AcDbArc
 50
141.837
 51
-141.837
  0
LINE
  5
A43
330
A02
100
AcDbEntity
  8
Shape2DView005
100
AcDbLine
 10
-89.3424
 20
-123.693
 30
0
 11
-96.5114
 21
-116.524
 31
0
  0
ARC
  5
A44
330
A02
100
AcDbEntity
  8
Shape2DView005
100
AcDbCircle
 10
-80
 20
-129.5
 30
0
 40
11
100
AcDbArc
 50
-121.863
 51
-58.1366
  0
LINE
  5
A45
330
A02
100
AcDbEntity
  8
Shape2DView005
100
AcDbLine
 10
-67.0241
 20
-146.011
 30
0
 11
-74.1931
 21
-138.842
 31
0
  0
LINE
  5
A46
330
A02
100
AcDbEntity
  8
Shape2DView005
100
AcDbLine
 10
-92.9759
 20
-146.011
 30
0
 11
-85.8069
 21
-138.842
 31
0
  0
ARC
  5
A47
330
A02
100
AcDbEntity
  8
Shape2DView005
100
AcDbCircle
 10
-80
 20
-129.5
 30
0
 40
21
100
AcDbArc
 50
-128.163
 51
-51.8371
  0
ARC
  5
A48
330
A02
100
AcDbEntity
  8
Shape2DView005
100
AcDbCircle
 10
-80
 20
-129.5
 30
0
 40
24
100
AcDbArc
 50
-129.021
 51
-50.9792
  0
LINE
  5
A49
330
A02
100
AcDbEntity
  8
Shape2DView005
100
AcDbLine
 10
-57.7912
 20
-155.244
 30
0
 11
-64.8895
 21
-148.146
 31
0
  0
LINE
  5
A4A
330
A02
100
AcDbEntity
  8
Shape2DView005
100
AcDbLine
 10
-102.209
 20
-155.244
 30
0
 11
-95.1105
 21
-148.146
 31
0
  0
ARC
  5
A4B
330
A02
100
AcDbEntity
  8
Shape2DView005
100
AcDbCircle
 10
-80
 20
-129.5
 30
0
 40
34
100
AcDbArc
 50
-130.783
 51
-49.2167
  0
ARC
  5
A4C
330
A02
100
AcDbEntity
  8
Shape2DView005
100
AcDbCircle
 10
-80
 20
-129.5
 30
0
 40
37
100
AcDbArc
 50
-131.126
 51
-48.8743
  0
LINE
  5
A4D
330
A02
100
AcDbEntity
  8
Shape2DView005
100
AcDbLine
 10
-48.5808
 20
-164.455
 30
0
 11
-55.6646
 21
-157.371
 31
0
  0
LINE
  5
A4E
330
A02
100
AcDbEntity
  8
Shape2DView005
100
AcDbLine
 10
-111.419
 20
-164.455
 30
0
 11
-104.335
 21
-157.371
 31
0
  0
ARC
  5
A4F
330
A02
100
AcDbEntity
  8
Shape2DView005
100
AcDbCircle
 10
-80
 20
-129.5
 30
0
 40
47
100
AcDbArc
 50
-131.951
 51
-48.0491
  0
CIRCLE
  5
A50
330
A02
100
AcDbEntity
  8
Shape2DView005
100
AcDbCircle
 10
-150
 20
-179.5
 40
2.6
  0
CIRCLE
  5
A51
330
A02
100
AcDbEntity
  8
Shape2DView005
100
AcDbCircle
 10
-132.397
 20
-181.897
 40
2.5
  0
CIRCLE
  5
A52
330
A02
100
AcDbEntity
  8
Shape2DView005
100
AcDbCircle
 10
-130
 20
-209.5
 40
3
  0
ARC
  5
A53
330
A02
100
AcDbEntity
  8
Shape2DView005
100
AcDbCircle
 10
-80
 20
-129.5
 30
0
 40
50
100
AcDbArc
 50
-132.134
 51
-47.866
  0
LINE
  5
A54
330
A02
100
AcDbEntity
  8
Shape2DView005
100
AcDbLine
 10
-39.3782
 20
-173.657
 30
0
 11
-46.4566
 21
-166.579
 31
0
  0
LINE
  5
A55
330
A02
100
AcDbEntity
  8
Shape2DView005
100
AcDbLine
 10
-120.622
 20
-173.657
 30
0
 11
-113.543
 21
-166.579
 31
0
  0
ARC
  5
A56
330
A02
100
AcDbEntity
  8
Shape2DView005
100
AcDbCircle
 10
-80
 20
-129.5
 30
0
 40
60
100
AcDbArc
 50
-132.612
 51
-47.388
  0
CIRCLE
  5
A57
330
A02
100
AcDbEntity
  8
Shape2DView005
100
AcDbCircle
 10
-10
 20
-149.5
 40
3
  0
CIRCLE
  5
A58
330
A02
100
AcDbEntity
  8
Shape2DView005
100
AcDbCircle
 10
-50
 20
-209.5
 40
3
  0
CIRCLE
  5
A59
330
A02
100
AcDbEntity
  8
Shape2DView005
100
AcDbCircle
 10
-27.6034
 20
-181.897
 40
2.5
  0
CIRCLE
  5
A5A
330
A02
100
AcDbEntity
  8
Shape2DView005
100
AcDbCircle
 10
-10
 20
-189.5
 40
3
  0
CIRCLE
  5
A5B
330
A02
100
AcDbEntity
  8
Shape2DView005
100
AcDbCircle
 10
-10
 20
-209.5
 40
3
  0
CIRCLE
  5
A5C
330
A02
100
AcDbEntity
  8
Shape2DView005
100
AcDbCircle
 10
10
 20
-49.5
 40
3
  0
CIRCLE
  5
A5D
330
A02
100
AcDbEntity
  8
Shape2DView005
100
AcDbCircle
 10
27.6034
 20
-77.1034
 40
2.5
  0
CIRCLE
  5
A5E
330
A02
100
AcDbEntity
  8
Shape2DView005
100
AcDbCircle
 10
50
 20
-49.5
 40
3
  0
CIRCLE
  5
A5F
330
A02
100
AcDbEntity
  8
Shape2DView005
100
AcDbCircle
 10
10
 20
-109.5
 40
3
  0
LINE
  5
A60
330
A02
100
AcDbEntity
  8
Shape2DView005
100
AcDbLine
 10
42.9211
 20
-95.9566
 30
0
 11
35.8427
 21
-88.8782
 31
0
  0
ARC
  5
A61
330
A02
100
AcDbEntity
  8
Shape2DView005
100
AcDbCircle
 10
80
 20
-129.5
 30
0
 40
50
100
AcDbArc
 50
137.866
 51
-137.866
  0
ARC
  5
A62
330
A02
100
AcDbEntity
  8
Shape2DView005
100
AcDbCircle
 10
80
 20
-129.5
 30
0
 40
60
100
AcDbArc
 50
137.388
 51
-137.388
  0
LINE
  5
A63
330
A02
100
AcDbEntity
  8
Shape2DView005
100
AcDbLine
 10
42.9211
 20
-163.043
 30
0
 11
35.8427
 21
-170.122
 31
0
  0
LINE
  5
A64
330
A02
100
AcDbEntity
  8
Shape2DView005
100
AcDbLine
 10
52.1291
 20
-105.165
 30
0
 11
45.0453
 21
-98.0808
 31
0
  0
ARC
  5
A65
330
A02
100
AcDbEntity
  8
Shape2DView005
100
AcDbCircle
 10
80
 20
-129.5
 30
0
 40
37
100
AcDbArc
 50
138.874
 51
-138.874
  0
ARC
  5
A66
330
A02
100
AcDbEntity
  8
Shape2DView005
100
AcDbCircle
 10
80
 20
-129.5
 30
0
 40
47
100
AcDbArc
 50
138.049
 51
-138.049
  0
LINE
  5
A67
330
A02
100
AcDbEntity
  8
Shape2DView005
100
AcDbLine
 10
52.1291
 20
-153.835
 30
0
 11
45.0453
 21
-160.919
 31
0
  0
LINE
  5
A68
330
A02
100
AcDbEntity
  8
Shape2DView005
100
AcDbLine
 10
61.354
 20
-114.39
 30
0
 11
54.2557
 21
-107.291
 31
0
  0
ARC
  5
A69
330
A02
100
AcDbEntity
  8
Shape2DView005
100
AcDbCircle
 10
80
 20
-129.5
 30
0
 40
24
100
AcDbArc
 50
140.979
 51
-140.979
  0
ARC
  5
A6A
330
A02
100
AcDbEntity
  8
Shape2DView005
100
AcDbCircle
 10
80
 20
-129.5
 30
0
 40
34
100
AcDbArc
 50
139.217
 51
-139.217
  0
LINE
  5
A6B
330
A02
100
AcDbEntity
  8
Shape2DView005
100
AcDbLine
 10
61.354
 20
-144.61
 30
0
 11
54.2557
 21
-151.709
 31
0
  0
LINE
  5
A6C
330
A02
100
AcDbEntity
  8
Shape2DView005
100
AcDbLine
 10
70.6576
 20
-123.693
 30
0
 11
63.4886
 21
-116.524
 31
0
  0
ARC
  5
A6D
330
A02
100
AcDbEntity
  8
Shape2DView005
100
AcDbCircle
 10
80
 20
-129.5
 30
0
 40
11
100
AcDbArc
 50
148.136
 51
-148.137
  0
ARC
  5
A6E
330
A02
100
AcDbEntity
  8
Shape2DView005
100
AcDbCircle
 10
80
 20
-129.5
 30
0
 40
21
100
AcDbArc
 50
141.837
 51
-141.837
  0
LINE
  5
A6F
330
A02
100
AcDbEntity
  8
Shape2DView005
100
AcDbLine
 10
70.6576
 20
-135.307
 30
0
 11
63.4886
 21
-142.476
 31
0
  0
LINE
  5
A70
330
A02
100
AcDbEntity
  8
Shape2DView005
100
AcDbLine
 10
46.4566
 20
-92.4211
 30
0
 11
39.3782
 21
-85.3427
 31
0
  0
ARC
  5
A71
330
A02
100
AcDbEntity
  8
Shape2DView005
100
AcDbCircle
 10
80
 20
-129.5
 30
0
 40
50
100
AcDbArc
 50
47.866
 51
132.134
  0
ARC
  5
A72
330
A02
100
AcDbEntity
  8
Shape2DView005
100
AcDbCircle
 10
80
 20
-129.5
 30
0
 40
60
100
AcDbArc
 50
47.388
 51
132.612
  0
LINE
  5
A73
330
A02
100
AcDbEntity
  8
Shape2DView005
100
AcDbLine
 10
113.543
 20
-92.4211
 30
0
 11
120.622
 21
-85.3427
 31
0
  0
CIRCLE
  5
A74
330
A02
100
AcDbEntity
  8
Shape2DView005
100
AcDbCircle
 10
130
 20
-49.5
 40
3
  0
CIRCLE
  5
A75
330
A02
100
AcDbEntity
  8
Shape2DView005
100
AcDbCircle
 10
150
 20
-59.5
 40
2.6
  0
CIRCLE
  5
A76
330
A02
100
AcDbEntity
  8
Shape2DView005
100
AcDbCircle
 10
132.397
 20
-77.1034
 40
2.5
  0
LINE
  5
A77
330
A02
100
AcDbEntity
  8
Shape2DView005
100
AcDbLine
 10
55.6646
 20
-101.629
 30
0
 11
48.5808
 21
-94.5453
 31
0
  0
ARC
  5
A78
330
A02
100
AcDbEntity
  8
Shape2DView005
100
AcDbCircle
 10
80
 20
-129.5
 30
0
 40
37
100
AcDbArc
 50
48.8743
 51
131.126
  0
ARC
  5
A79
330
A02
100
AcDbEntity
  8
Shape2DView005
100
AcDbCircle
 10
80
 20
-129.5
 30
0
 40
47
100
AcDbArc
 50
48.0491
 51
131.951
  0
LINE
  5
A7A
330
A02
100
AcDbEntity
  8
Shape2DView005
100
AcDbLine
 10
104.335
 20
-101.629
 30
0
 11
111.419
 21
-94.5453
 31
0
  0
LINE
  5
A7B
330
A02
100
AcDbEntity
  8
Shape2DView005
100
AcDbLine
 10
64.8895
 20
-110.854
 30
0
 11
57.7912
 21
-103.756
 31
0
  0
ARC
  5
A7C
330
A02
100
AcDbEntity
  8
Shape2DView005
100
AcDbCircle
 10
80
 20
-129.5
 30
0
 40
24
100
AcDbArc
 50
50.9792
 51
129.021
  0
ARC
  5
A7D
330
A02
100
AcDbEntity
  8
Shape2DView005
100
AcDbCircle
 10
80
 20
-129.5
 30
0
 40
34
100
AcDbArc
 50
49.2167
 51
130.783
  0
LINE
  5
A7E
330
A02
100
AcDbEntity
  8
Shape2DView005
100
AcDbLine
 10
95.1105
 20
-110.854
 30
0
 11
102.209
 21
-103.756
 31
0
  0
LINE
  5
A7F
330
A02
100
AcDbEntity
  8
Shape2DView005
100
AcDbLine
 10
74.1931
 20
-120.158
 30
0
 11
67.0241
 21
-112.989
 31
0
  0
ARC
  5
A80
330
A02
100
AcDbEntity
  8
Shape2DView005
100
AcDbCircle
 10
80
 20
-129.5
 30
0
 40
11
100
AcDbArc
 50
58.1366
 51
121.863
  0
ARC
  5
A81
330
A02
100
AcDbEntity
  8
Shape2DView005
100
AcDbCircle
 10
80
 20
-129.5
 30
0
 40
21
100
AcDbArc
 50
51.8371
 51
128.163
  0
LINE
  5
A82
330
A02
100
AcDbEntity
  8
Shape2DView005
100
AcDbLine
 10
85.8069
 20
-120.158
 30
0
 11
92.9759
 21
-112.989
 31
0
  0
LINE
  5
A83
330
A02
100
AcDbEntity
  8
Shape2DView005
100
AcDbLine
 10
117.079
 20
-95.9566
 30
0
 11
124.157
 21
-88.8782
 31
0
  0
ARC
  5
A84
330
A02
100
AcDbEntity
  8
Shape2DView005
100
AcDbCircle
 10
80
 20
-129.5
 30
0
 40
50
100
AcDbArc
 50
-42.134
 51
42.134
  0
ARC
  5
A85
330
A02
100
AcDbEntity
  8
Shape2DView005
100
AcDbCircle
 10
80
 20
-129.5
 30
0
 40
60
100
AcDbArc
 50
-42.612
 51
42.612
  0
LINE
  5
A86
330
A02
100
AcDbEntity
  8
Shape2DView005
100
AcDbLine
 10
117.079
 20
-163.043
 30
0
 11
124.157
 21
-170.122
 31
0
  0
CIRCLE
  5
A87
330
A02
100
AcDbEntity
  8
Shape2DView005
100
AcDbCircle
 10
150
 20
-119.5
 40
2.6
  0
CIRCLE
  5
A88
330
A02
100
AcDbEntity
  8
Shape2DView005
100
AcDbCircle
 10
10
 20
-149.5
 40
3
  0
CIRCLE
  5
A89
330
A02
100
AcDbEntity
  8
Shape2DView005
100
AcDbCircle
 10
10
 20
-189.5
 40
3
  0
CIRCLE
  5
A8A
330
A02
100
AcDbEntity
  8
Shape2DView005
100
AcDbCircle
 10
27.6034
 20
-181.897
 40
2.5
  0
CIRCLE
  5
A8B
330
A02
100
AcDbEntity
  8
Shape2DView005
100
AcDbCircle
 10
10
 20
-209.5
 40
3
  0
CIRCLE
  5
A8C
330
A02
100
AcDbEntity
  8
Shape2DView005
100
AcDbCircle
 10
50
 20
-209.5
 40
3
  0
LINE
  5
A8D
330
A02
100
AcDbEntity
  8
Shape2DView005
100
AcDbLine
 10
89.3424
 20
-123.693
 30
0
 11
96.5114
 21
-116.524
 31
0
  0
ARC
  5
A8E
330
A02
100
AcDbEntity
  8
Shape2DView005
100
AcDbCircle
 10
80
 20
-129.5
 30
0
 40
11
100
AcDbArc
 50
-31.8634
 51
31.8634
  0
ARC
  5
A8F
330
A02
100
AcDbEntity
  8
Shape2DView005
100
AcDbCircle
 10
80
 20
-129.5
 30
0
 40
21
100
AcDbArc
 50
-38.1629
 51
38.1629
  0
LINE
  5
A90
330
A02
100
AcDbEntity
  8
Shape2DView005
100
AcDbLine
 10
89.3424
 20
-135.307
 30
0
 11
96.5114
 21
-142.476
 31
0
  0
ARC
  5
A91
330
A02
100
AcDbEntity
  8
Shape2DView005
100
AcDbCircle
 10
80
 20
-129.5
 30
0
 40
11
100
AcDbArc
 50
-121.863
 51
-58.1366
  0
LINE
  5
A92
330
A02
100
AcDbEntity
  8
Shape2DView005
100
AcDbLine
 10
92.9759
 20
-146.011
 30
0
 11
85.8069
 21
-138.842
 31
0
  0
LINE
  5
A93
330
A02
100
AcDbEntity
  8
Shape2DView005
100
AcDbLine
 10
67.0241
 20
-146.011
 30
0
 11
74.1931
 21
-138.842
 31
0
  0
ARC
  5
A94
330
A02
100
AcDbEntity
  8
Shape2DView005
100
AcDbCircle
 10
80
 20
-129.5
 30
0
 40
21
100
AcDbArc
 50
-128.163
 51
-51.8371
  0
LINE
  5
A95
330
A02
100
AcDbEntity
  8
Shape2DView005
100
AcDbLine
 10
98.646
 20
-114.39
 30
0
 11
105.744
 21
-107.291
 31
0
  0
ARC
  5
A96
330
A02
100
AcDbEntity
  8
Shape2DView005
100
AcDbCircle
 10
80
 20
-129.5
 30
0
 40
24
100
AcDbArc
 50
-39.0208
 51
39.0208
  0
ARC
  5
A97
330
A02
100
AcDbEntity
  8
Shape2DView005
100
AcDbCircle
 10
80
 20
-129.5
 30
0
 40
34
100
AcDbArc
 50
-40.7833
 51
40.7833
  0
LINE
  5
A98
330
A02
100
AcDbEntity
  8
Shape2DView005
100
AcDbLine
 10
98.646
 20
-144.61
 30
0
 11
105.744
 21
-151.709
 31
0
  0
ARC
  5
A99
330
A02
100
AcDbEntity
  8
Shape2DView005
100
AcDbCircle
 10
80
 20
-129.5
 30
0
 40
24
100
AcDbArc
 50
-129.021
 51
-50.9792
  0
LINE
  5
A9A
330
A02
100
AcDbEntity
  8
Shape2DView005
100
AcDbLine
 10
102.209
 20
-155.244
 30
0
 11
95.1105
 21
-148.146
 31
0
  0
LINE
  5
A9B
330
A02
100
AcDbEntity
  8
Shape2DView005
100
AcDbLine
 10
57.7912
 20
-155.244
 30
0
 11
64.8895
 21
-148.146
 31
0
  0
ARC
  5
A9C
330
A02
100
AcDbEntity
  8
Shape2DView005
100
AcDbCircle
 10
80
 20
-129.5
 30
0
 40
34
100
AcDbArc
 50
-130.783
 51
-49.2167
  0
ARC
  5
A9D
330
A02
100
AcDbEntity
  8
Shape2DView005
100
AcDbCircle
 10
80
 20
-129.5
 30
0
 40
37
100
AcDbArc
 50
-131.126
 51
-48.8743
  0
LINE
  5
A9E
330
A02
100
AcDbEntity
  8
Shape2DView005
100
AcDbLine
 10
111.419
 20
-164.455
 30
0
 11
104.335
 21
-157.371
 31
0
  0
LINE
  5
A9F
330
A02
100
AcDbEntity
  8
Shape2DView005
100
AcDbLine
 10
48.5808
 20
-164.455
 30
0
 11
55.6646
 21
-157.371
 31
0
  0
ARC
  5
AA0
330
A02
100
AcDbEntity
  8
Shape2DView005
100
AcDbCircle
 10
80
 20
-129.5
 30
0
 40
47
100
AcDbArc
 50
-131.951
 51
-48.0491
  0
LINE
  5
AA1
330
A02
100
AcDbEntity
  8
Shape2DView005
100
AcDbLine
 10
107.871
 20
-105.165
 30
0
 11
114.955
 21
-98.0808
 31
0
  0
ARC
  5
AA2
330
A02
100
AcDbEntity
  8
Shape2DView005
100
AcDbCircle
 10
80
 20
-129.5
 30
0
 40
37
100
AcDbArc
 50
-41.1257
 51
41.1257
  0
ARC
  5
AA3
330
A02
100
AcDbEntity
  8
Shape2DView005
100
AcDbCircle
 10
80
 20
-129.5
 30
0
 40
47
100
AcDbArc
 50
-41.9509
 51
41.9509
  0
LINE
  5
AA4
330
A02
100
AcDbEntity
  8
Shape2DView005
100
AcDbLine
 10
107.871
 20
-153.835
 30
0
 11
114.955
 21
-160.919
 31
0
  0
ARC
  5
AA5
330
A02
100
AcDbEntity
  8
Shape2DView005
100
AcDbCircle
 10
80
 20
-129.5
 30
0
 40
50
100
AcDbArc
 50
-132.134
 51
-47.866
  0
LINE
  5
AA6
330
A02
100
AcDbEntity
  8
Shape2DView005
100
AcDbLine
 10
120.622
 20
-173.657
 30
0
 11
113.543
 21
-166.579
 31
0
  0
LINE
  5
AA7
330
A02
100
AcDbEntity
  8
Shape2DView005
100
AcDbLine
 10
39.3782
 20
-173.657
 30
0
 11
46.4566
 21
-166.579
 31
0
  0
ARC
  5
AA8
330
A02
100
AcDbEntity
  8
Shape2DView005
100
AcDbCircle
 10
80
 20
-129.5
 30
0
 40
60
100
AcDbArc
 50
-132.612
 51
-47.388
  0
CIRCLE
  5
AA9
330
A02
100
AcDbEntity
  8
Shape2DView005
100
AcDbCircle
 10
132.397
 20
-181.897
 40
2.5
  0
CIRCLE
  5
AAA
330
A02
100
AcDbEntity
  8
Shape2DView005
100
AcDbCircle
 10
150
 20
-179.5
 40
2.6
  0
CIRCLE
  5
AAB
330
A02
100
AcDbEntity
  8
Shape2DView005
100
AcDbCircle
 10
130
 20
-209.5
 40
3
  0
ENDSEC
  0
SECTION
  2
OBJECTS
  0
DICTIONARY
  5
F000
330
0
100
AcDbDictionary
  3
ACAD_GROUP
350
F001
  0
DICTIONARY
  5
F001
330
F000
100
AcDbDictionary
  0
ENDSEC
  0
EOF