<?xml version="1.0" encoding="UTF-8"?>
<!DOCTYPE svg PUBLIC "-//W3C//DTD SVG 1.1//EN" "http://www.w3.org/Graphics/SVG/1.1/DTD/svg11.dtd">
<!-- Creator: CorelDRAW X7 -->
<svg xmlns="http://www.w3.org/2000/svg" xml:space="preserve" width="119.38mm" height="58.1152mm" version="1.1" style="shape-rendering:geometricPrecision; text-rendering:geometricPrecision; image-rendering:optimizeQuality; fill-rule:evenodd; clip-rule:evenodd"
viewBox="0 0 11938 5812"
 xmlns:xlink="http://www.w3.org/1999/xlink">
 <defs>
  <style type="text/css">
   <![CDATA[
    .fil0 {fill:#00A0E3}
    .fil1 {fill:black;fill-rule:nonzero}
   ]]>
  </style>
 </defs>
 <g id="Layer_x0020_1">
  <metadata id="CorelCorpID_0Corel-Layer"/>
  <g id="_508173528">
   <path class="fil0" d="M9512 1768c0,187 115,352 301,372 186,19 352,-115 372,-301 19,-187 9,-100 23,-291 9,-127 127,-219 254,-206 127,14 220,128 206,255 -21,204 -236,114 -293,370 -17,76 48,146 125,154 77,9 153,-47 154,-125 3,-159 219,-139 205,-8 -4,41 -34,73 -72,81 407,387 660,928 675,1516 -94,-25 -196,-40 -306,-40 -245,0 -471,75 -644,199 56,-661 -428,-1249 -1091,-1319 -672,-71 -1274,417 -1345,1089 -71,672 417,1274 1089,1344 390,41 757,-106 1010,-369 18,86 59,154 116,207 85,77 193,108 309,108 55,0 103,-7 146,-22 -174,116 -310,233 -406,350 -126,154 -189,310 -189,465 0,12 0,24 1,37 -331,143 -702,206 -1086,165 -1192,-125 -2056,-1193 -1931,-2384 79,-745 526,-1362 1141,-1689 -36,-30 -56,-77 -51,-127 8,-79 80,-135 160,-129 164,13 148,165 140,244 -15,139 86,264 226,279 139,15 257,-88 279,-226 37,-231 -182,-361 -158,-592 23,-218 219,-377 438,-354 219,23 378,219 355,438 -24,225 -153,331 -153,509zm-209 -1767c95,10 164,96 154,191 -10,96 -95,165 -191,155 -95,-10 -165,-95 -154,-191 10,-95 95,-165 191,-155zm846 458c169,18 291,169 273,338 -17,168 -168,290 -337,273 -168,-18 -291,-169 -273,-338 18,-168 169,-290 337,-273zm-1708 214c140,15 241,140 226,279 -14,140 -139,241 -279,226 -139,-14 -240,-139 -226,-279 15,-139 140,-240 279,-226z"/>
   <path class="fil1" d="M39 5342c0,239 117,467 427,467 310,0 427,-228 427,-467l0 -2608 12 0 894 2795c65,199 211,280 410,280 198,0 344,-81 409,-280l894 -2795 12 0 0 2608c0,239 117,467 427,467 310,0 427,-228 427,-467l0 -3421c0,-386 -263,-473 -521,-473l-269 0c-298,0 -438,117 -538,438l-824 2701 -12 0 -836 -2701c-99,-321 -239,-438 -538,-438l-280 0c-258,0 -521,87 -521,473l0 3421z"/>
   <path class="fil1" d="M5003 5562c0,146 57,247 214,247 158,0 214,-101 214,-247l0 -1601c0,-152 -73,-191 -163,-191 -239,0 -152,321 -465,388l-104 23c-147,28 -203,56 -203,161 0,115 51,149 144,149l363 0 0 1071z"/>
   <path class="fil1" d="M6701 4961c0,260 -107,544 -400,544 -228,0 -237,-242 -423,-242 -98,0 -177,82 -177,183 0,172 228,363 563,363 524,0 848,-295 848,-1129 0,-445 -177,-910 -774,-910 -412,0 -730,234 -730,698 0,341 231,623 654,623 188,0 318,-65 439,-180l0 50zm-25 -521c0,223 -147,347 -330,347 -186,0 -327,-107 -327,-347 0,-217 124,-349 327,-349 203,0 330,132 330,349z"/>
   <path class="fil1" d="M10849 5448c37,-109 235,-226 559,-410 304,-172 479,-321 479,-703 0,-263 -272,-564 -731,-564 -422,0 -766,266 -766,616 0,143 92,192 210,192 114,0 152,-54 180,-160 63,-230 187,-304 370,-304 158,0 301,103 301,289 0,233 -137,284 -536,537 -358,226 -539,453 -539,656 0,101 69,212 235,212l1075 0c132,0 213,-51 213,-180 0,-129 -81,-181 -190,-181l-860 0z"/>
  </g>
 </g>
</svg>
