999
FreeCAD v0.19 24291 (Git)
  0
SECTION
  2
HEADER
  9
$ACADVER
  1
AC1014
  9
$ACADMAINTVER
 70
     9
  9
$DWGCODEPAGE
  3
ANSI_1252
  9
$TEXTSTYLE
  7
STANDARD
  9
$DIMSTYLE
  2
STANDARD
  9
$DIMTXSTY
  7
STANDARD
  9
$CMLSTYLE
  2
STANDARD
  9
$PEXTMAX
 10
50
 20
50
 30
50
  9
$PEXTMIN
 10
0
 20
0
 30
0
  9
$HANDSEED
  5
FFFF
  0
ENDSEC
  0
SECTION
  2
CLASSES
  0
CLASS
  1
ACDBDICTIONARYWDFLT
  2
AcDbDictionaryWithDefault
  3
ObjectDBX Classes
 90
        0
280
     0
281
     0
  0
CLASS
  1
XRECORD
  2
AcDbXrecord
  3
ObjectDBX Classes
 90
        0
280
     0
281
     0
  0
CLASS
  1
LWPOLYLINE
  2
AcDbPolyline
  3
ObjectDBX Classes
 90
        0
280
     0
281
     1
  0
ENDSEC
  0
SECTION
  2
TABLES
  0
TABLE
  2
VPORT
  5
20
330
0
100
AcDbSymbolTable
 70
     1
  0
VPORT
  5
21
330
20
100
AcDbSymbolTableRecord
100
AcDbViewportTableRecord
  2
*ACTIVE
 70
     0
  0
ENDTAB
  0
TABLE
  2
LTYPE
  5
22
330
0
100
AcDbSymbolTable
 70
     1
  0
LTYPE
  5
23
330
21
100
AcDbSymbolTableRecord
100
AcDbLinetypeTableRecord
  2
BYBLOCK
 70
     0
  3

 72
    65
 73
     0
 40
0.0
  0
LTYPE
  5
24
330
21
100
AcDbSymbolTableRecord
100
AcDbLinetypeTableRecord
  2
BYLAYER
 70
     0
  3

 72
    65
 73
     0
 40
0.0
  0
LTYPE
  5
25
330
21
100
AcDbSymbolTableRecord
100
AcDbLinetypeTableRecord
  2
CONTINUOUS
 70
     0
  3
Solid line
 72
    65
 73
     0
 40
0.0
  0
ENDTAB
  0
TABLE
  2
LAYER
  5
AEC
330
0
100
AcDbSymbolTable
 70
3
  0
LAYER
  5
AED
330
AEC
100
AcDbSymbolTableRecord
100
AcDbLayerTableRecord
  2
0
 70
   0
 62
   7
  6
CONTINUOUS
  0
LAYER
  5
AEE
330
AEC
100
AcDbSymbolTableRecord
100
AcDbLayerTableRecord
  2
none
 70
    0
 62
    7
  6
CONTINUOUS
  0
LAYER
  5
AEF
330
AEC
100
AcDbSymbolTableRecord
100
AcDbLayerTableRecord
  2
Shape2DView014
 70
    0
 62
    7
  6
CONTINUOUS
  0
ENDTAB
  0
TABLE
  2
STYLE
  5
70
330
0
100
AcDbSymbolTable
 70
     2
  0
STYLE
  5
71
330
70
100
AcDbSymbolTableRecord
100
AcDbTextStyleTableRecord
  2
STANDARD
 70
     0
 40
0.0
 41
1.0
 50
0.0
 71
     0
 42
2.5
  3
arial.ttf
  4

  0
STYLE
  5
72
330
70
100
AcDbSymbolTableRecord
100
AcDbTextStyleTableRecord
  2
ANNOTATIVE
 70
     0
 40
0.0
 41
1.0
 50
0.0
 71
     0
 42
2.5
  3
arial.ttf
  4

  0
ENDTAB
  0
TABLE
  2
VIEW
  5
73
330
0
100
AcDbSymbolTable
 70
     0
  0
ENDTAB
  0
TABLE
  2
UCS
  5
74
330
0
100
AcDbSymbolTable
 70
     0
  0
ENDTAB
  0
TABLE
  2
APPID
  5
75
330
0
100
AcDbSymbolTable
 70
     2
  0
APPID
  5
76
330
75
100
AcDbSymbolTableRecord
100
AcDbRegAppTableRecord
  2
ACAD
 70
     0
  0
APPID
  5
77
330
75
100
AcDbSymbolTableRecord
100
AcDbRegAppTableRecord
  2
ACADANNOTATIVE
 70
     0
  0
ENDTAB
  0
TABLE
  2
DIMSTYLE
  5
78
330
0
100
AcDbSymbolTable
 70
     2
  0
DIMSTYLE
105
79
330
78
100
AcDbSymbolTableRecord
100
AcDbDimStyleTableRecord
  2
STANDARD
 70
     0
  3

  4

  5

  6

  7

 40
0.0
 41
2.5
 42
0.625
 43
3.75
 44
1.25
 45
0.0
 46
0.0
 47
0.0
 48
0.0
140
2.5
141
2.5
142
0.0
143
0.03937007874016
144
1.0
145
0.0
146
1.0
147
0.625
 71
     0
 72
     0
 73
     0
 74
     0
 75
     0
 76
     0
 77
     1
 78
     8
170
     0
171
     3
172
     1
173
     0
174
     0
175
     0
176
     0
177
     0
178
     0
270
     2
271
     2
272
     2
273
     2
274
     3
340
71
275
     0
280
     0
281
     0
282
     0
283
     0
284
     8
285
     0
286
     0
287
     3
288
     0
  0
ENDTAB
  0
TABLE
  2
BLOCK_RECORD
  5
A01
330
0
100
AcDbSymbolTable
  70
5
  0
BLOCK_RECORD
  5
A02
330
A01
100
AcDbSymbolTableRecord
100
AcDbBlockTableRecord
  2
*MODEL_SPACE
  0
BLOCK_RECORD
  5
A03
330
A01
100
AcDbSymbolTableRecord
100
AcDbBlockTableRecord
  2
*PAPER_SPACE
  0
ENDTAB
  0
ENDSEC
  0
SECTION
  2
BLOCKS
  0
BLOCK
  5
A04
330
A02
100
AcDbEntity
  8
0
100
AcDbBlockBegin
  2
*MODEL_SPACE
 70
   0
 10
0
 20
0
 30
0
  3
*MODEL_SPACE
  1
 
  0
ENDBLK
  5
A05
330
A02
100
AcDbEntity
  8
0
100
AcDbBlockEnd
  0
BLOCK
  5
A06
330
A03
100
AcDbEntity
 67
1
  8
0
100
AcDbBlockBegin
  2
*PAPER_SPACE
 70
   0
 10
0
 20
0
 30
0
  3
*PAPER_SPACE
  1
 
  0
ENDBLK
  5
A07
330
A03
100
AcDbEntity
 67
    1
  8
0
100
AcDbBlockEnd
  0
ENDSEC
  0
SECTION
  2
ENTITIES
  0
LINE
  5
A08
330
A02
100
AcDbEntity
  8
Shape2DView014
100
AcDbLine
 10
327
 20
-219.5
 30
0
 11
673
 21
-219.5
 31
0
  0
LINE
  5
A09
330
A02
100
AcDbEntity
  8
Shape2DView014
100
AcDbLine
 10
327
 20
-219.5
 30
0
 11
322
 21
-214.5
 31
0
  0
LINE
  5
A0A
330
A02
100
AcDbEntity
  8
Shape2DView014
100
AcDbLine
 10
673
 20
-219.5
 30
0
 11
678
 21
-214.5
 31
0
  0
LINE
  5
A0B
330
A02
100
AcDbEntity
  8
Shape2DView014
100
AcDbLine
 10
322
 20
-39.5
 30
0
 11
322
 21
-214.5
 31
0
  0
LINE
  5
A0C
330
A02
100
AcDbEntity
  8
Shape2DView014
100
AcDbLine
 10
678
 20
-214.5
 30
0
 11
678
 21
-39.5
 31
0
  0
LINE
  5
A0D
330
A02
100
AcDbEntity
  8
Shape2DView014
100
AcDbLine
 10
322
 20
-39.5
 30
0
 11
327
 21
-34.5
 31
0
  0
LINE
  5
A0E
330
A02
100
AcDbEntity
  8
Shape2DView014
100
AcDbLine
 10
678
 20
-39.5
 30
0
 11
673
 21
-34.5
 31
0
  0
LINE
  5
A0F
330
A02
100
AcDbEntity
  8
Shape2DView014
100
AcDbLine
 10
673
 20
-34.5
 30
0
 11
327
 21
-34.5
 31
0
  0
LINE
  5
A10
330
A02
100
AcDbEntity
  8
Shape2DView014
100
AcDbLine
 10
330
 20
-62.1
 30
0
 11
331.25
 21
-62.1
 31
0
  0
ARC
  5
A11
330
A02
100
AcDbEntity
  8
Shape2DView014
100
AcDbCircle
 10
331.25
 20
-59.5
 30
0
 40
2.6
100
AcDbArc
 50
-90
 51
90
  0
LINE
  5
A12
330
A02
100
AcDbEntity
  8
Shape2DView014
100
AcDbLine
 10
330
 20
-56.9
 30
0
 11
331.25
 21
-56.9
 31
0
  0
LINE
  5
A13
330
A02
100
AcDbEntity
  8
Shape2DView014
100
AcDbLine
 10
328.75
 20
-56.9
 30
0
 11
330
 21
-56.9
 31
0
  0
ARC
  5
A14
330
A02
100
AcDbEntity
  8
Shape2DView014
100
AcDbCircle
 10
328.75
 20
-59.5
 30
0
 40
2.6
100
AcDbArc
 50
90
 51
-90
  0
LINE
  5
A15
330
A02
100
AcDbEntity
  8
Shape2DView014
100
AcDbLine
 10
328.75
 20
-62.1
 30
0
 11
330
 21
-62.1
 31
0
  0
CIRCLE
  5
A16
330
A02
100
AcDbEntity
  8
Shape2DView014
100
AcDbCircle
 10
367.603
 20
-77.1034
 40
2.5
  0
CIRCLE
  5
A17
330
A02
100
AcDbEntity
  8
Shape2DView014
100
AcDbCircle
 10
382.5
 20
-64.5481
 40
3
  0
CIRCLE
  5
A18
330
A02
100
AcDbEntity
  8
Shape2DView014
100
AcDbCircle
 10
398.647
 20
-49.8111
 40
3
  0
CIRCLE
  5
A19
330
A02
100
AcDbEntity
  8
Shape2DView014
100
AcDbCircle
 10
355.048
 20
-92
 40
3
  0
CIRCLE
  5
A1A
330
A02
100
AcDbEntity
  8
Shape2DView014
100
AcDbCircle
 10
340.311
 20
-108.147
 40
3
  0
LINE
  5
A1B
330
A02
100
AcDbEntity
  8
Shape2DView014
100
AcDbLine
 10
330
 20
-122.1
 30
0
 11
331.25
 21
-122.1
 31
0
  0
ARC
  5
A1C
330
A02
100
AcDbEntity
  8
Shape2DView014
100
AcDbCircle
 10
331.25
 20
-119.5
 30
0
 40
2.6
100
AcDbArc
 50
-90
 51
90
  0
LINE
  5
A1D
330
A02
100
AcDbEntity
  8
Shape2DView014
100
AcDbLine
 10
330
 20
-116.9
 30
0
 11
331.25
 21
-116.9
 31
0
  0
LINE
  5
A1E
330
A02
100
AcDbEntity
  8
Shape2DView014
100
AcDbLine
 10
328.75
 20
-116.9
 30
0
 11
330
 21
-116.9
 31
0
  0
ARC
  5
A1F
330
A02
100
AcDbEntity
  8
Shape2DView014
100
AcDbCircle
 10
328.75
 20
-119.5
 30
0
 40
2.6
100
AcDbArc
 50
90
 51
-90
  0
LINE
  5
A20
330
A02
100
AcDbEntity
  8
Shape2DView014
100
AcDbLine
 10
328.75
 20
-122.1
 30
0
 11
330
 21
-122.1
 31
0
  0
CIRCLE
  5
A21
330
A02
100
AcDbEntity
  8
Shape2DView014
100
AcDbCircle
 10
420
 20
-54.5
 40
3
  0
CIRCLE
  5
A22
330
A02
100
AcDbEntity
  8
Shape2DView014
100
AcDbCircle
 10
441.353
 20
-49.8111
 40
3
  0
LINE
  5
A23
330
A02
100
AcDbEntity
  8
Shape2DView014
100
AcDbLine
 10
386.457
 20
-92.4211
 30
0
 11
379.378
 21
-85.3427
 31
0
  0
ARC
  5
A24
330
A02
100
AcDbEntity
  8
Shape2DView014
100
AcDbCircle
 10
420
 20
-129.5
 30
0
 40
50
100
AcDbArc
 50
47.866
 51
132.134
  0
ARC
  5
A25
330
A02
100
AcDbEntity
  8
Shape2DView014
100
AcDbCircle
 10
420
 20
-129.5
 30
0
 40
60
100
AcDbArc
 50
47.388
 51
132.612
  0
LINE
  5
A26
330
A02
100
AcDbEntity
  8
Shape2DView014
100
AcDbLine
 10
453.543
 20
-92.4211
 30
0
 11
460.622
 21
-85.3427
 31
0
  0
CIRCLE
  5
A27
330
A02
100
AcDbEntity
  8
Shape2DView014
100
AcDbCircle
 10
457.5
 20
-64.5481
 40
3
  0
CIRCLE
  5
A28
330
A02
100
AcDbEntity
  8
Shape2DView014
100
AcDbCircle
 10
472.397
 20
-77.1034
 40
2.5
  0
LINE
  5
A29
330
A02
100
AcDbEntity
  8
Shape2DView014
100
AcDbLine
 10
395.665
 20
-101.629
 30
0
 11
388.581
 21
-94.5453
 31
0
  0
ARC
  5
A2A
330
A02
100
AcDbEntity
  8
Shape2DView014
100
AcDbCircle
 10
420
 20
-129.5
 30
0
 40
37
100
AcDbArc
 50
48.8743
 51
131.126
  0
ARC
  5
A2B
330
A02
100
AcDbEntity
  8
Shape2DView014
100
AcDbCircle
 10
420
 20
-129.5
 30
0
 40
47
100
AcDbArc
 50
48.0491
 51
131.951
  0
LINE
  5
A2C
330
A02
100
AcDbEntity
  8
Shape2DView014
100
AcDbLine
 10
444.335
 20
-101.629
 30
0
 11
451.419
 21
-94.5453
 31
0
  0
LINE
  5
A2D
330
A02
100
AcDbEntity
  8
Shape2DView014
100
AcDbLine
 10
404.89
 20
-110.854
 30
0
 11
397.791
 21
-103.756
 31
0
  0
ARC
  5
A2E
330
A02
100
AcDbEntity
  8
Shape2DView014
100
AcDbCircle
 10
420
 20
-129.5
 30
0
 40
24
100
AcDbArc
 50
50.9792
 51
129.021
  0
ARC
  5
A2F
330
A02
100
AcDbEntity
  8
Shape2DView014
100
AcDbCircle
 10
420
 20
-129.5
 30
0
 40
34
100
AcDbArc
 50
49.2167
 51
130.783
  0
LINE
  5
A30
330
A02
100
AcDbEntity
  8
Shape2DView014
100
AcDbLine
 10
435.11
 20
-110.854
 30
0
 11
442.209
 21
-103.756
 31
0
  0
LINE
  5
A31
330
A02
100
AcDbEntity
  8
Shape2DView014
100
AcDbLine
 10
414.193
 20
-120.158
 30
0
 11
407.024
 21
-112.989
 31
0
  0
ARC
  5
A32
330
A02
100
AcDbEntity
  8
Shape2DView014
100
AcDbCircle
 10
420
 20
-129.5
 30
0
 40
11
100
AcDbArc
 50
58.1366
 51
121.863
  0
ARC
  5
A33
330
A02
100
AcDbEntity
  8
Shape2DView014
100
AcDbCircle
 10
420
 20
-129.5
 30
0
 40
21
100
AcDbArc
 50
51.8371
 51
128.163
  0
LINE
  5
A34
330
A02
100
AcDbEntity
  8
Shape2DView014
100
AcDbLine
 10
425.807
 20
-120.158
 30
0
 11
432.976
 21
-112.989
 31
0
  0
CIRCLE
  5
A35
330
A02
100
AcDbEntity
  8
Shape2DView014
100
AcDbCircle
 10
484.952
 20
-92
 40
3
  0
CIRCLE
  5
A36
330
A02
100
AcDbEntity
  8
Shape2DView014
100
AcDbCircle
 10
499.689
 20
-108.147
 40
3
  0
CIRCLE
  5
A37
330
A02
100
AcDbEntity
  8
Shape2DView014
100
AcDbCircle
 10
345
 20
-129.5
 40
3
  0
CIRCLE
  5
A38
330
A02
100
AcDbEntity
  8
Shape2DView014
100
AcDbCircle
 10
340.311
 20
-150.853
 40
3
  0
CIRCLE
  5
A39
330
A02
100
AcDbEntity
  8
Shape2DView014
100
AcDbCircle
 10
355.048
 20
-167
 40
3
  0
LINE
  5
A3A
330
A02
100
AcDbEntity
  8
Shape2DView014
100
AcDbLine
 10
382.921
 20
-163.043
 30
0
 11
375.843
 21
-170.122
 31
0
  0
ARC
  5
A3B
330
A02
100
AcDbEntity
  8
Shape2DView014
100
AcDbCircle
 10
420
 20
-129.5
 30
0
 40
50
100
AcDbArc
 50
137.866
 51
-137.866
  0
ARC
  5
A3C
330
A02
100
AcDbEntity
  8
Shape2DView014
100
AcDbCircle
 10
420
 20
-129.5
 30
0
 40
60
100
AcDbArc
 50
137.388
 51
-137.388
  0
LINE
  5
A3D
330
A02
100
AcDbEntity
  8
Shape2DView014
100
AcDbLine
 10
382.921
 20
-95.9566
 30
0
 11
375.843
 21
-88.8782
 31
0
  0
LINE
  5
A3E
330
A02
100
AcDbEntity
  8
Shape2DView014
100
AcDbLine
 10
392.129
 20
-153.835
 30
0
 11
385.045
 21
-160.919
 31
0
  0
ARC
  5
A3F
330
A02
100
AcDbEntity
  8
Shape2DView014
100
AcDbCircle
 10
420
 20
-129.5
 30
0
 40
37
100
AcDbArc
 50
138.874
 51
-138.874
  0
ARC
  5
A40
330
A02
100
AcDbEntity
  8
Shape2DView014
100
AcDbCircle
 10
420
 20
-129.5
 30
0
 40
47
100
AcDbArc
 50
138.049
 51
-138.049
  0
LINE
  5
A41
330
A02
100
AcDbEntity
  8
Shape2DView014
100
AcDbLine
 10
392.129
 20
-105.165
 30
0
 11
385.045
 21
-98.0808
 31
0
  0
LINE
  5
A42
330
A02
100
AcDbEntity
  8
Shape2DView014
100
AcDbLine
 10
401.354
 20
-144.61
 30
0
 11
394.256
 21
-151.709
 31
0
  0
ARC
  5
A43
330
A02
100
AcDbEntity
  8
Shape2DView014
100
AcDbCircle
 10
420
 20
-129.5
 30
0
 40
24
100
AcDbArc
 50
140.979
 51
-140.979
  0
ARC
  5
A44
330
A02
100
AcDbEntity
  8
Shape2DView014
100
AcDbCircle
 10
420
 20
-129.5
 30
0
 40
34
100
AcDbArc
 50
139.217
 51
-139.217
  0
LINE
  5
A45
330
A02
100
AcDbEntity
  8
Shape2DView014
100
AcDbLine
 10
401.354
 20
-114.39
 30
0
 11
394.256
 21
-107.291
 31
0
  0
LINE
  5
A46
330
A02
100
AcDbEntity
  8
Shape2DView014
100
AcDbLine
 10
410.658
 20
-135.307
 30
0
 11
403.489
 21
-142.476
 31
0
  0
ARC
  5
A47
330
A02
100
AcDbEntity
  8
Shape2DView014
100
AcDbCircle
 10
420
 20
-129.5
 30
0
 40
11
100
AcDbArc
 50
148.137
 51
-148.137
  0
ARC
  5
A48
330
A02
100
AcDbEntity
  8
Shape2DView014
100
AcDbCircle
 10
420
 20
-129.5
 30
0
 40
21
100
AcDbArc
 50
141.837
 51
-141.837
  0
LINE
  5
A49
330
A02
100
AcDbEntity
  8
Shape2DView014
100
AcDbLine
 10
410.658
 20
-123.693
 30
0
 11
403.489
 21
-116.524
 31
0
  0
LINE
  5
A4A
330
A02
100
AcDbEntity
  8
Shape2DView014
100
AcDbLine
 10
330
 20
-182.1
 30
0
 11
331.25
 21
-182.1
 31
0
  0
ARC
  5
A4B
330
A02
100
AcDbEntity
  8
Shape2DView014
100
AcDbCircle
 10
331.25
 20
-179.5
 30
0
 40
2.6
100
AcDbArc
 50
-90
 51
90
  0
LINE
  5
A4C
330
A02
100
AcDbEntity
  8
Shape2DView014
100
AcDbLine
 10
330
 20
-176.9
 30
0
 11
331.25
 21
-176.9
 31
0
  0
LINE
  5
A4D
330
A02
100
AcDbEntity
  8
Shape2DView014
100
AcDbLine
 10
328.75
 20
-176.9
 30
0
 11
330
 21
-176.9
 31
0
  0
ARC
  5
A4E
330
A02
100
AcDbEntity
  8
Shape2DView014
100
AcDbCircle
 10
328.75
 20
-179.5
 30
0
 40
2.6
100
AcDbArc
 50
90
 51
-90
  0
LINE
  5
A4F
330
A02
100
AcDbEntity
  8
Shape2DView014
100
AcDbLine
 10
328.75
 20
-182.1
 30
0
 11
330
 21
-182.1
 31
0
  0
CIRCLE
  5
A50
330
A02
100
AcDbEntity
  8
Shape2DView014
100
AcDbCircle
 10
367.603
 20
-181.897
 40
2.5
  0
CIRCLE
  5
A51
330
A02
100
AcDbEntity
  8
Shape2DView014
100
AcDbCircle
 10
382.5
 20
-194.452
 40
3
  0
CIRCLE
  5
A52
330
A02
100
AcDbEntity
  8
Shape2DView014
100
AcDbCircle
 10
398.647
 20
-209.189
 40
3
  0
ARC
  5
A53
330
A02
100
AcDbEntity
  8
Shape2DView014
100
AcDbCircle
 10
420
 20
-129.5
 30
0
 40
11
100
AcDbArc
 50
-121.863
 51
-58.1366
  0
LINE
  5
A54
330
A02
100
AcDbEntity
  8
Shape2DView014
100
AcDbLine
 10
432.976
 20
-146.011
 30
0
 11
425.807
 21
-138.842
 31
0
  0
LINE
  5
A55
330
A02
100
AcDbEntity
  8
Shape2DView014
100
AcDbLine
 10
407.024
 20
-146.011
 30
0
 11
414.193
 21
-138.842
 31
0
  0
ARC
  5
A56
330
A02
100
AcDbEntity
  8
Shape2DView014
100
AcDbCircle
 10
420
 20
-129.5
 30
0
 40
21
100
AcDbArc
 50
-128.163
 51
-51.8371
  0
ARC
  5
A57
330
A02
100
AcDbEntity
  8
Shape2DView014
100
AcDbCircle
 10
420
 20
-129.5
 30
0
 40
11
100
AcDbArc
 50
-31.8634
 51
31.8636
  0
LINE
  5
A58
330
A02
100
AcDbEntity
  8
Shape2DView014
100
AcDbLine
 10
429.342
 20
-123.693
 30
0
 11
436.511
 21
-116.524
 31
0
  0
LINE
  5
A59
330
A02
100
AcDbEntity
  8
Shape2DView014
100
AcDbLine
 10
429.342
 20
-135.307
 30
0
 11
436.511
 21
-142.476
 31
0
  0
ARC
  5
A5A
330
A02
100
AcDbEntity
  8
Shape2DView014
100
AcDbCircle
 10
420
 20
-129.5
 30
0
 40
21
100
AcDbArc
 50
-38.1629
 51
38.1629
  0
ARC
  5
A5B
330
A02
100
AcDbEntity
  8
Shape2DView014
100
AcDbCircle
 10
420
 20
-129.5
 30
0
 40
24
100
AcDbArc
 50
-39.0208
 51
39.0209
  0
LINE
  5
A5C
330
A02
100
AcDbEntity
  8
Shape2DView014
100
AcDbLine
 10
438.646
 20
-114.39
 30
0
 11
445.744
 21
-107.291
 31
0
  0
LINE
  5
A5D
330
A02
100
AcDbEntity
  8
Shape2DView014
100
AcDbLine
 10
438.646
 20
-144.61
 30
0
 11
445.744
 21
-151.709
 31
0
  0
ARC
  5
A5E
330
A02
100
AcDbEntity
  8
Shape2DView014
100
AcDbCircle
 10
420
 20
-129.5
 30
0
 40
34
100
AcDbArc
 50
-40.7833
 51
40.7833
  0
ARC
  5
A5F
330
A02
100
AcDbEntity
  8
Shape2DView014
100
AcDbCircle
 10
420
 20
-129.5
 30
0
 40
24
100
AcDbArc
 50
-129.021
 51
-50.9792
  0
LINE
  5
A60
330
A02
100
AcDbEntity
  8
Shape2DView014
100
AcDbLine
 10
442.209
 20
-155.244
 30
0
 11
435.11
 21
-148.146
 31
0
  0
LINE
  5
A61
330
A02
100
AcDbEntity
  8
Shape2DView014
100
AcDbLine
 10
397.791
 20
-155.244
 30
0
 11
404.89
 21
-148.146
 31
0
  0
ARC
  5
A62
330
A02
100
AcDbEntity
  8
Shape2DView014
100
AcDbCircle
 10
420
 20
-129.5
 30
0
 40
34
100
AcDbArc
 50
-130.783
 51
-49.2167
  0
ARC
  5
A63
330
A02
100
AcDbEntity
  8
Shape2DView014
100
AcDbCircle
 10
420
 20
-129.5
 30
0
 40
37
100
AcDbArc
 50
-131.126
 51
-48.8743
  0
LINE
  5
A64
330
A02
100
AcDbEntity
  8
Shape2DView014
100
AcDbLine
 10
451.419
 20
-164.455
 30
0
 11
444.335
 21
-157.371
 31
0
  0
LINE
  5
A65
330
A02
100
AcDbEntity
  8
Shape2DView014
100
AcDbLine
 10
388.581
 20
-164.455
 30
0
 11
395.665
 21
-157.371
 31
0
  0
ARC
  5
A66
330
A02
100
AcDbEntity
  8
Shape2DView014
100
AcDbCircle
 10
420
 20
-129.5
 30
0
 40
47
100
AcDbArc
 50
-131.951
 51
-48.0491
  0
ARC
  5
A67
330
A02
100
AcDbEntity
  8
Shape2DView014
100
AcDbCircle
 10
420
 20
-129.5
 30
0
 40
37
100
AcDbArc
 50
-41.1257
 51
41.1257
  0
LINE
  5
A68
330
A02
100
AcDbEntity
  8
Shape2DView014
100
AcDbLine
 10
447.871
 20
-105.165
 30
0
 11
454.955
 21
-98.0808
 31
0
  0
LINE
  5
A69
330
A02
100
AcDbEntity
  8
Shape2DView014
100
AcDbLine
 10
447.871
 20
-153.835
 30
0
 11
454.955
 21
-160.919
 31
0
  0
ARC
  5
A6A
330
A02
100
AcDbEntity
  8
Shape2DView014
100
AcDbCircle
 10
420
 20
-129.5
 30
0
 40
47
100
AcDbArc
 50
-41.9509
 51
41.9509
  0
ARC
  5
A6B
330
A02
100
AcDbEntity
  8
Shape2DView014
100
AcDbCircle
 10
420
 20
-129.5
 30
0
 40
50
100
AcDbArc
 50
-42.134
 51
42.134
  0
LINE
  5
A6C
330
A02
100
AcDbEntity
  8
Shape2DView014
100
AcDbLine
 10
457.079
 20
-95.9566
 30
0
 11
464.157
 21
-88.8782
 31
0
  0
LINE
  5
A6D
330
A02
100
AcDbEntity
  8
Shape2DView014
100
AcDbLine
 10
457.079
 20
-163.043
 30
0
 11
464.157
 21
-170.122
 31
0
  0
ARC
  5
A6E
330
A02
100
AcDbEntity
  8
Shape2DView014
100
AcDbCircle
 10
420
 20
-129.5
 30
0
 40
60
100
AcDbArc
 50
-42.612
 51
42.612
  0
CIRCLE
  5
A6F
330
A02
100
AcDbEntity
  8
Shape2DView014
100
AcDbCircle
 10
499.689
 20
-150.853
 40
3
  0
CIRCLE
  5
A70
330
A02
100
AcDbEntity
  8
Shape2DView014
100
AcDbCircle
 10
484.952
 20
-167
 40
3
  0
ARC
  5
A71
330
A02
100
AcDbEntity
  8
Shape2DView014
100
AcDbCircle
 10
420
 20
-129.5
 30
0
 40
50
100
AcDbArc
 50
-132.134
 51
-47.866
  0
LINE
  5
A72
330
A02
100
AcDbEntity
  8
Shape2DView014
100
AcDbLine
 10
460.622
 20
-173.657
 30
0
 11
453.543
 21
-166.579
 31
0
  0
LINE
  5
A73
330
A02
100
AcDbEntity
  8
Shape2DView014
100
AcDbLine
 10
379.378
 20
-173.657
 30
0
 11
386.457
 21
-166.579
 31
0
  0
ARC
  5
A74
330
A02
100
AcDbEntity
  8
Shape2DView014
100
AcDbCircle
 10
420
 20
-129.5
 30
0
 40
60
100
AcDbArc
 50
-132.612
 51
-47.388
  0
CIRCLE
  5
A75
330
A02
100
AcDbEntity
  8
Shape2DView014
100
AcDbCircle
 10
420
 20
-204.5
 40
3
  0
CIRCLE
  5
A76
330
A02
100
AcDbEntity
  8
Shape2DView014
100
AcDbCircle
 10
441.353
 20
-209.189
 40
3
  0
CIRCLE
  5
A77
330
A02
100
AcDbEntity
  8
Shape2DView014
100
AcDbCircle
 10
472.397
 20
-181.897
 40
2.5
  0
CIRCLE
  5
A78
330
A02
100
AcDbEntity
  8
Shape2DView014
100
AcDbCircle
 10
457.5
 20
-194.452
 40
3
  0
CIRCLE
  5
A79
330
A02
100
AcDbEntity
  8
Shape2DView014
100
AcDbCircle
 10
480
 20
-199.5
 40
5.25
  0
ARC
  5
A7A
330
A02
100
AcDbEntity
  8
Shape2DView014
100
AcDbCircle
 10
480
 20
-54.5
 30
0
 40
10
100
AcDbArc
 50
90
 51
-90
  0
LINE
  5
A7B
330
A02
100
AcDbEntity
  8
Shape2DView014
100
AcDbLine
 10
480
 20
-44.5
 30
0
 11
520
 21
-44.5
 31
0
  0
ARC
  5
A7C
330
A02
100
AcDbEntity
  8
Shape2DView014
100
AcDbCircle
 10
480
 20
-74.5
 30
0
 40
10
100
AcDbArc
 50
0
 51
90
  0
ARC
  5
A7D
330
A02
100
AcDbEntity
  8
Shape2DView014
100
AcDbCircle
 10
520
 20
-54.5
 30
0
 40
10
100
AcDbArc
 50
-90
 51
90
  0
ARC
  5
A7E
330
A02
100
AcDbEntity
  8
Shape2DView014
100
AcDbCircle
 10
500
 20
-74.5
 30
0
 40
10
100
AcDbArc
 50
-180
 51
8.14222e-14
  0
ARC
  5
A7F
330
A02
100
AcDbEntity
  8
Shape2DView014
100
AcDbCircle
 10
520
 20
-74.5
 30
0
 40
10
100
AcDbArc
 50
90
 51
180
  0
CIRCLE
  5
A80
330
A02
100
AcDbEntity
  8
Shape2DView014
100
AcDbCircle
 10
542.5
 20
-64.5481
 40
3
  0
CIRCLE
  5
A81
330
A02
100
AcDbEntity
  8
Shape2DView014
100
AcDbCircle
 10
527.603
 20
-77.1034
 40
2.5
  0
CIRCLE
  5
A82
330
A02
100
AcDbEntity
  8
Shape2DView014
100
AcDbCircle
 10
560.041
 20
-49.4506
 40
3
  0
CIRCLE
  5
A83
330
A02
100
AcDbEntity
  8
Shape2DView014
100
AcDbCircle
 10
580
 20
-54.5
 40
3
  0
LINE
  5
A84
330
A02
100
AcDbEntity
  8
Shape2DView014
100
AcDbLine
 10
546.457
 20
-92.4211
 30
0
 11
539.378
 21
-85.3427
 31
0
  0
ARC
  5
A85
330
A02
100
AcDbEntity
  8
Shape2DView014
100
AcDbCircle
 10
580
 20
-129.5
 30
0
 40
50
100
AcDbArc
 50
47.866
 51
132.134
  0
ARC
  5
A86
330
A02
100
AcDbEntity
  8
Shape2DView014
100
AcDbCircle
 10
580
 20
-129.5
 30
0
 40
60
100
AcDbArc
 50
47.388
 51
132.612
  0
LINE
  5
A87
330
A02
100
AcDbEntity
  8
Shape2DView014
100
AcDbLine
 10
613.543
 20
-92.4211
 30
0
 11
620.622
 21
-85.3427
 31
0
  0
CIRCLE
  5
A88
330
A02
100
AcDbEntity
  8
Shape2DView014
100
AcDbCircle
 10
515.048
 20
-92
 40
3
  0
LINE
  5
A89
330
A02
100
AcDbEntity
  8
Shape2DView014
100
AcDbLine
 10
555.665
 20
-101.629
 30
0
 11
548.581
 21
-94.5453
 31
0
  0
ARC
  5
A8A
330
A02
100
AcDbEntity
  8
Shape2DView014
100
AcDbCircle
 10
580
 20
-129.5
 30
0
 40
37
100
AcDbArc
 50
48.8743
 51
131.126
  0
ARC
  5
A8B
330
A02
100
AcDbEntity
  8
Shape2DView014
100
AcDbCircle
 10
580
 20
-129.5
 30
0
 40
47
100
AcDbArc
 50
48.0491
 51
131.951
  0
LINE
  5
A8C
330
A02
100
AcDbEntity
  8
Shape2DView014
100
AcDbLine
 10
604.335
 20
-101.629
 30
0
 11
611.419
 21
-94.5453
 31
0
  0
LINE
  5
A8D
330
A02
100
AcDbEntity
  8
Shape2DView014
100
AcDbLine
 10
564.89
 20
-110.854
 30
0
 11
557.791
 21
-103.756
 31
0
  0
ARC
  5
A8E
330
A02
100
AcDbEntity
  8
Shape2DView014
100
AcDbCircle
 10
580
 20
-129.5
 30
0
 40
24
100
AcDbArc
 50
50.9792
 51
129.021
  0
ARC
  5
A8F
330
A02
100
AcDbEntity
  8
Shape2DView014
100
AcDbCircle
 10
580
 20
-129.5
 30
0
 40
34
100
AcDbArc
 50
49.2167
 51
130.783
  0
LINE
  5
A90
330
A02
100
AcDbEntity
  8
Shape2DView014
100
AcDbLine
 10
595.11
 20
-110.854
 30
0
 11
602.209
 21
-103.756
 31
0
  0
LINE
  5
A91
330
A02
100
AcDbEntity
  8
Shape2DView014
100
AcDbLine
 10
574.193
 20
-120.158
 30
0
 11
567.024
 21
-112.989
 31
0
  0
ARC
  5
A92
330
A02
100
AcDbEntity
  8
Shape2DView014
100
AcDbCircle
 10
580
 20
-129.5
 30
0
 40
11
100
AcDbArc
 50
58.1366
 51
121.863
  0
ARC
  5
A93
330
A02
100
AcDbEntity
  8
Shape2DView014
100
AcDbCircle
 10
580
 20
-129.5
 30
0
 40
21
100
AcDbArc
 50
51.8371
 51
128.163
  0
LINE
  5
A94
330
A02
100
AcDbEntity
  8
Shape2DView014
100
AcDbLine
 10
585.807
 20
-120.158
 30
0
 11
592.976
 21
-112.989
 31
0
  0
CIRCLE
  5
A95
330
A02
100
AcDbEntity
  8
Shape2DView014
100
AcDbCircle
 10
602.74
 20
-50.1959
 40
3
  0
CIRCLE
  5
A96
330
A02
100
AcDbEntity
  8
Shape2DView014
100
AcDbCircle
 10
617.5
 20
-64.5481
 40
3
  0
LINE
  5
A97
330
A02
100
AcDbEntity
  8
Shape2DView014
100
AcDbLine
 10
670
 20
-62.1
 30
0
 11
671.25
 21
-62.1
 31
0
  0
ARC
  5
A98
330
A02
100
AcDbEntity
  8
Shape2DView014
100
AcDbCircle
 10
671.25
 20
-59.5
 30
0
 40
2.6
100
AcDbArc
 50
-90
 51
90
  0
LINE
  5
A99
330
A02
100
AcDbEntity
  8
Shape2DView014
100
AcDbLine
 10
670
 20
-56.9
 30
0
 11
671.25
 21
-56.9
 31
0
  0
LINE
  5
A9A
330
A02
100
AcDbEntity
  8
Shape2DView014
100
AcDbLine
 10
668.75
 20
-56.9
 30
0
 11
670
 21
-56.9
 31
0
  0
ARC
  5
A9B
330
A02
100
AcDbEntity
  8
Shape2DView014
100
AcDbCircle
 10
668.75
 20
-59.5
 30
0
 40
2.6
100
AcDbArc
 50
90
 51
-90
  0
LINE
  5
A9C
330
A02
100
AcDbEntity
  8
Shape2DView014
100
AcDbLine
 10
668.75
 20
-62.1
 30
0
 11
670
 21
-62.1
 31
0
  0
CIRCLE
  5
A9D
330
A02
100
AcDbEntity
  8
Shape2DView014
100
AcDbCircle
 10
632.397
 20
-77.1034
 40
2.5
  0
CIRCLE
  5
A9E
330
A02
100
AcDbEntity
  8
Shape2DView014
100
AcDbCircle
 10
644.952
 20
-92
 40
3
  0
CIRCLE
  5
A9F
330
A02
100
AcDbEntity
  8
Shape2DView014
100
AcDbCircle
 10
659.689
 20
-108.147
 40
3
  0
LINE
  5
AA0
330
A02
100
AcDbEntity
  8
Shape2DView014
100
AcDbLine
 10
670
 20
-122.1
 30
0
 11
671.25
 21
-122.1
 31
0
  0
ARC
  5
AA1
330
A02
100
AcDbEntity
  8
Shape2DView014
100
AcDbCircle
 10
671.25
 20
-119.5
 30
0
 40
2.6
100
AcDbArc
 50
-90
 51
90
  0
LINE
  5
AA2
330
A02
100
AcDbEntity
  8
Shape2DView014
100
AcDbLine
 10
670
 20
-116.9
 30
0
 11
671.25
 21
-116.9
 31
0
  0
LINE
  5
AA3
330
A02
100
AcDbEntity
  8
Shape2DView014
100
AcDbLine
 10
668.75
 20
-116.9
 30
0
 11
670
 21
-116.9
 31
0
  0
ARC
  5
AA4
330
A02
100
AcDbEntity
  8
Shape2DView014
100
AcDbCircle
 10
668.75
 20
-119.5
 30
0
 40
2.6
100
AcDbArc
 50
90
 51
-90
  0
LINE
  5
AA5
330
A02
100
AcDbEntity
  8
Shape2DView014
100
AcDbLine
 10
668.75
 20
-122.1
 30
0
 11
670
 21
-122.1
 31
0
  0
ARC
  5
AA6
330
A02
100
AcDbEntity
  8
Shape2DView014
100
AcDbCircle
 10
505
 20
-129.5
 30
0
 40
3
100
AcDbArc
 50
-90
 51
90
  0
LINE
  5
AA7
330
A02
100
AcDbEntity
  8
Shape2DView014
100
AcDbLine
 10
505
 20
-132.5
 30
0
 11
495
 21
-132.5
 31
0
  0
LINE
  5
AA8
330
A02
100
AcDbEntity
  8
Shape2DView014
100
AcDbLine
 10
505
 20
-126.5
 30
0
 11
495
 21
-126.5
 31
0
  0
ARC
  5
AA9
330
A02
100
AcDbEntity
  8
Shape2DView014
100
AcDbCircle
 10
495
 20
-129.5
 30
0
 40
3
100
AcDbArc
 50
90
 51
-90
  0
LINE
  5
AAA
330
A02
100
AcDbEntity
  8
Shape2DView014
100
AcDbLine
 10
542.921
 20
-95.9566
 30
0
 11
535.843
 21
-88.8782
 31
0
  0
ARC
  5
AAB
330
A02
100
AcDbEntity
  8
Shape2DView014
100
AcDbCircle
 10
580
 20
-129.5
 30
0
 40
50
100
AcDbArc
 50
137.866
 51
-137.866
  0
ARC
  5
AAC
330
A02
100
AcDbEntity
  8
Shape2DView014
100
AcDbCircle
 10
580
 20
-129.5
 30
0
 40
60
100
AcDbArc
 50
137.388
 51
-137.388
  0
LINE
  5
AAD
330
A02
100
AcDbEntity
  8
Shape2DView014
100
AcDbLine
 10
542.921
 20
-163.043
 30
0
 11
535.843
 21
-170.122
 31
0
  0
LINE
  5
AAE
330
A02
100
AcDbEntity
  8
Shape2DView014
100
AcDbLine
 10
552.129
 20
-105.165
 30
0
 11
545.045
 21
-98.0808
 31
0
  0
ARC
  5
AAF
330
A02
100
AcDbEntity
  8
Shape2DView014
100
AcDbCircle
 10
580
 20
-129.5
 30
0
 40
37
100
AcDbArc
 50
138.874
 51
-138.874
  0
ARC
  5
AB0
330
A02
100
AcDbEntity
  8
Shape2DView014
100
AcDbCircle
 10
580
 20
-129.5
 30
0
 40
47
100
AcDbArc
 50
138.049
 51
-138.049
  0
LINE
  5
AB1
330
A02
100
AcDbEntity
  8
Shape2DView014
100
AcDbLine
 10
552.129
 20
-153.835
 30
0
 11
545.045
 21
-160.919
 31
0
  0
CIRCLE
  5
AB2
330
A02
100
AcDbEntity
  8
Shape2DView014
100
AcDbCircle
 10
515.048
 20
-167
 40
3
  0
LINE
  5
AB3
330
A02
100
AcDbEntity
  8
Shape2DView014
100
AcDbLine
 10
561.354
 20
-114.39
 30
0
 11
554.256
 21
-107.291
 31
0
  0
ARC
  5
AB4
330
A02
100
AcDbEntity
  8
Shape2DView014
100
AcDbCircle
 10
580
 20
-129.5
 30
0
 40
24
100
AcDbArc
 50
140.979
 51
-140.979
  0
ARC
  5
AB5
330
A02
100
AcDbEntity
  8
Shape2DView014
100
AcDbCircle
 10
580
 20
-129.5
 30
0
 40
34
100
AcDbArc
 50
139.217
 51
-139.217
  0
LINE
  5
AB6
330
A02
100
AcDbEntity
  8
Shape2DView014
100
AcDbLine
 10
561.354
 20
-144.61
 30
0
 11
554.256
 21
-151.709
 31
0
  0
LINE
  5
AB7
330
A02
100
AcDbEntity
  8
Shape2DView014
100
AcDbLine
 10
570.658
 20
-123.693
 30
0
 11
563.489
 21
-116.524
 31
0
  0
ARC
  5
AB8
330
A02
100
AcDbEntity
  8
Shape2DView014
100
AcDbCircle
 10
580
 20
-129.5
 30
0
 40
11
100
AcDbArc
 50
148.136
 51
-148.137
  0
ARC
  5
AB9
330
A02
100
AcDbEntity
  8
Shape2DView014
100
AcDbCircle
 10
580
 20
-129.5
 30
0
 40
21
100
AcDbArc
 50
141.837
 51
-141.837
  0
LINE
  5
ABA
330
A02
100
AcDbEntity
  8
Shape2DView014
100
AcDbLine
 10
570.658
 20
-135.307
 30
0
 11
563.489
 21
-142.476
 31
0
  0
ARC
  5
ABB
330
A02
100
AcDbEntity
  8
Shape2DView014
100
AcDbCircle
 10
580
 20
-129.5
 30
0
 40
11
100
AcDbArc
 50
-121.863
 51
-58.1366
  0
LINE
  5
ABC
330
A02
100
AcDbEntity
  8
Shape2DView014
100
AcDbLine
 10
592.976
 20
-146.011
 30
0
 11
585.807
 21
-138.842
 31
0
  0
LINE
  5
ABD
330
A02
100
AcDbEntity
  8
Shape2DView014
100
AcDbLine
 10
567.024
 20
-146.011
 30
0
 11
574.193
 21
-138.842
 31
0
  0
ARC
  5
ABE
330
A02
100
AcDbEntity
  8
Shape2DView014
100
AcDbCircle
 10
580
 20
-129.5
 30
0
 40
21
100
AcDbArc
 50
-128.163
 51
-51.8371
  0
ARC
  5
ABF
330
A02
100
AcDbEntity
  8
Shape2DView014
100
AcDbCircle
 10
580
 20
-129.5
 30
0
 40
24
100
AcDbArc
 50
-129.021
 51
-50.9792
  0
LINE
  5
AC0
330
A02
100
AcDbEntity
  8
Shape2DView014
100
AcDbLine
 10
602.209
 20
-155.244
 30
0
 11
595.11
 21
-148.146
 31
0
  0
LINE
  5
AC1
330
A02
100
AcDbEntity
  8
Shape2DView014
100
AcDbLine
 10
557.791
 20
-155.244
 30
0
 11
564.89
 21
-148.146
 31
0
  0
ARC
  5
AC2
330
A02
100
AcDbEntity
  8
Shape2DView014
100
AcDbCircle
 10
580
 20
-129.5
 30
0
 40
34
100
AcDbArc
 50
-130.783
 51
-49.2167
  0
ARC
  5
AC3
330
A02
100
AcDbEntity
  8
Shape2DView014
100
AcDbCircle
 10
580
 20
-129.5
 30
0
 40
37
100
AcDbArc
 50
-131.126
 51
-48.8743
  0
LINE
  5
AC4
330
A02
100
AcDbEntity
  8
Shape2DView014
100
AcDbLine
 10
611.419
 20
-164.455
 30
0
 11
604.335
 21
-157.371
 31
0
  0
LINE
  5
AC5
330
A02
100
AcDbEntity
  8
Shape2DView014
100
AcDbLine
 10
548.581
 20
-164.455
 30
0
 11
555.665
 21
-157.371
 31
0
  0
ARC
  5
AC6
330
A02
100
AcDbEntity
  8
Shape2DView014
100
AcDbCircle
 10
580
 20
-129.5
 30
0
 40
47
100
AcDbArc
 50
-131.951
 51
-48.0491
  0
CIRCLE
  5
AC7
330
A02
100
AcDbEntity
  8
Shape2DView014
100
AcDbCircle
 10
527.603
 20
-181.897
 40
2.5
  0
CIRCLE
  5
AC8
330
A02
100
AcDbEntity
  8
Shape2DView014
100
AcDbCircle
 10
520
 20
-199.5
 40
5.25
  0
CIRCLE
  5
AC9
330
A02
100
AcDbEntity
  8
Shape2DView014
100
AcDbCircle
 10
542.5
 20
-194.452
 40
3
  0
ARC
  5
ACA
330
A02
100
AcDbEntity
  8
Shape2DView014
100
AcDbCircle
 10
580
 20
-129.5
 30
0
 40
50
100
AcDbArc
 50
-132.134
 51
-47.866
  0
LINE
  5
ACB
330
A02
100
AcDbEntity
  8
Shape2DView014
100
AcDbLine
 10
620.622
 20
-173.657
 30
0
 11
613.543
 21
-166.579
 31
0
  0
LINE
  5
ACC
330
A02
100
AcDbEntity
  8
Shape2DView014
100
AcDbLine
 10
539.378
 20
-173.657
 30
0
 11
546.457
 21
-166.579
 31
0
  0
ARC
  5
ACD
330
A02
100
AcDbEntity
  8
Shape2DView014
100
AcDbCircle
 10
580
 20
-129.5
 30
0
 40
60
100
AcDbArc
 50
-132.612
 51
-47.388
  0
CIRCLE
  5
ACE
330
A02
100
AcDbEntity
  8
Shape2DView014
100
AcDbCircle
 10
558.647
 20
-209.189
 40
3
  0
CIRCLE
  5
ACF
330
A02
100
AcDbEntity
  8
Shape2DView014
100
AcDbCircle
 10
580
 20
-204.5
 40
3
  0
LINE
  5
AD0
330
A02
100
AcDbEntity
  8
Shape2DView014
100
AcDbLine
 10
589.342
 20
-123.693
 30
0
 11
596.511
 21
-116.524
 31
0
  0
ARC
  5
AD1
330
A02
100
AcDbEntity
  8
Shape2DView014
100
AcDbCircle
 10
580
 20
-129.5
 30
0
 40
11
100
AcDbArc
 50
-31.8634
 51
31.8634
  0
ARC
  5
AD2
330
A02
100
AcDbEntity
  8
Shape2DView014
100
AcDbCircle
 10
580
 20
-129.5
 30
0
 40
21
100
AcDbArc
 50
-38.1629
 51
38.1629
  0
LINE
  5
AD3
330
A02
100
AcDbEntity
  8
Shape2DView014
100
AcDbLine
 10
589.342
 20
-135.307
 30
0
 11
596.511
 21
-142.476
 31
0
  0
LINE
  5
AD4
330
A02
100
AcDbEntity
  8
Shape2DView014
100
AcDbLine
 10
598.646
 20
-114.39
 30
0
 11
605.744
 21
-107.291
 31
0
  0
ARC
  5
AD5
330
A02
100
AcDbEntity
  8
Shape2DView014
100
AcDbCircle
 10
580
 20
-129.5
 30
0
 40
24
100
AcDbArc
 50
-39.0208
 51
39.0208
  0
ARC
  5
AD6
330
A02
100
AcDbEntity
  8
Shape2DView014
100
AcDbCircle
 10
580
 20
-129.5
 30
0
 40
34
100
AcDbArc
 50
-40.7833
 51
40.7833
  0
LINE
  5
AD7
330
A02
100
AcDbEntity
  8
Shape2DView014
100
AcDbLine
 10
598.646
 20
-144.61
 30
0
 11
605.744
 21
-151.709
 31
0
  0
LINE
  5
AD8
330
A02
100
AcDbEntity
  8
Shape2DView014
100
AcDbLine
 10
607.871
 20
-105.165
 30
0
 11
614.955
 21
-98.0808
 31
0
  0
ARC
  5
AD9
330
A02
100
AcDbEntity
  8
Shape2DView014
100
AcDbCircle
 10
580
 20
-129.5
 30
0
 40
37
100
AcDbArc
 50
-41.1257
 51
41.1257
  0
ARC
  5
ADA
330
A02
100
AcDbEntity
  8
Shape2DView014
100
AcDbCircle
 10
580
 20
-129.5
 30
0
 40
47
100
AcDbArc
 50
-41.9509
 51
41.9509
  0
LINE
  5
ADB
330
A02
100
AcDbEntity
  8
Shape2DView014
100
AcDbLine
 10
607.871
 20
-153.835
 30
0
 11
614.955
 21
-160.919
 31
0
  0
LINE
  5
ADC
330
A02
100
AcDbEntity
  8
Shape2DView014
100
AcDbLine
 10
617.079
 20
-95.9566
 30
0
 11
624.157
 21
-88.8782
 31
0
  0
ARC
  5
ADD
330
A02
100
AcDbEntity
  8
Shape2DView014
100
AcDbCircle
 10
580
 20
-129.5
 30
0
 40
50
100
AcDbArc
 50
-42.134
 51
42.134
  0
ARC
  5
ADE
330
A02
100
AcDbEntity
  8
Shape2DView014
100
AcDbCircle
 10
580
 20
-129.5
 30
0
 40
60
100
AcDbArc
 50
-42.612
 51
42.612
  0
LINE
  5
ADF
330
A02
100
AcDbEntity
  8
Shape2DView014
100
AcDbLine
 10
617.079
 20
-163.043
 30
0
 11
624.157
 21
-170.122
 31
0
  0
CIRCLE
  5
AE0
330
A02
100
AcDbEntity
  8
Shape2DView014
100
AcDbCircle
 10
655
 20
-129.5
 40
3
  0
CIRCLE
  5
AE1
330
A02
100
AcDbEntity
  8
Shape2DView014
100
AcDbCircle
 10
644.952
 20
-167
 40
3
  0
CIRCLE
  5
AE2
330
A02
100
AcDbEntity
  8
Shape2DView014
100
AcDbCircle
 10
659.689
 20
-150.853
 40
3
  0
CIRCLE
  5
AE3
330
A02
100
AcDbEntity
  8
Shape2DView014
100
AcDbCircle
 10
601.353
 20
-209.189
 40
3
  0
CIRCLE
  5
AE4
330
A02
100
AcDbEntity
  8
Shape2DView014
100
AcDbCircle
 10
617.5
 20
-194.452
 40
3
  0
CIRCLE
  5
AE5
330
A02
100
AcDbEntity
  8
Shape2DView014
100
AcDbCircle
 10
632.397
 20
-181.897
 40
2.5
  0
LINE
  5
AE6
330
A02
100
AcDbEntity
  8
Shape2DView014
100
AcDbLine
 10
670
 20
-182.1
 30
0
 11
671.25
 21
-182.1
 31
0
  0
ARC
  5
AE7
330
A02
100
AcDbEntity
  8
Shape2DView014
100
AcDbCircle
 10
671.25
 20
-179.5
 30
0
 40
2.6
100
AcDbArc
 50
-90
 51
90
  0
LINE
  5
AE8
330
A02
100
AcDbEntity
  8
Shape2DView014
100
AcDbLine
 10
670
 20
-176.9
 30
0
 11
671.25
 21
-176.9
 31
0
  0
LINE
  5
AE9
330
A02
100
AcDbEntity
  8
Shape2DView014
100
AcDbLine
 10
668.75
 20
-176.9
 30
0
 11
670
 21
-176.9
 31
0
  0
ARC
  5
AEA
330
A02
100
AcDbEntity
  8
Shape2DView014
100
AcDbCircle
 10
668.75
 20
-179.5
 30
0
 40
2.6
100
AcDbArc
 50
90
 51
-90
  0
LINE
  5
AEB
330
A02
100
AcDbEntity
  8
Shape2DView014
100
AcDbLine
 10
668.75
 20
-182.1
 30
0
 11
670
 21
-182.1
 31
0
  0
ENDSEC
  0
SECTION
  2
OBJECTS
  0
DICTIONARY
  5
F000
330
0
100
AcDbDictionary
  3
ACAD_GROUP
350
F001
  0
DICTIONARY
  5
F001
330
F000
100
AcDbDictionary
  0
ENDSEC
  0
EOF