999
FreeCAD v0.19 23756 (Git)
  0
SECTION
  2
HEADER
  9
$ACADVER
  1
AC1014
  9
$ACADMAINTVER
 70
     9
  9
$DWGCODEPAGE
  3
ANSI_1252
  9
$TEXTSTYLE
  7
STANDARD
  9
$DIMSTYLE
  2
STANDARD
  9
$DIMTXSTY
  7
STANDARD
  9
$CMLSTYLE
  2
STANDARD
  9
$PEXTMAX
 10
50
 20
50
 30
50
  9
$PEXTMIN
 10
0
 20
0
 30
0
  9
$HANDSEED
  5
FFFF
  0
ENDSEC
  0
SECTION
  2
CLASSES
  0
CLASS
  1
ACDBDICTIONARYWDFLT
  2
AcDbDictionaryWithDefault
  3
ObjectDBX Classes
 90
        0
280
     0
281
     0
  0
CLASS
  1
XRECORD
  2
AcDbXrecord
  3
ObjectDBX Classes
 90
        0
280
     0
281
     0
  0
CLASS
  1
LWPOLYLINE
  2
AcDbPolyline
  3
ObjectDBX Classes
 90
        0
280
     0
281
     1
  0
ENDSEC
  0
SECTION
  2
TABLES
  0
TABLE
  2
VPORT
  5
20
330
0
100
AcDbSymbolTable
 70
     1
  0
VPORT
  5
21
330
20
100
AcDbSymbolTableRecord
100
AcDbViewportTableRecord
  2
*ACTIVE
 70
     0
  0
ENDTAB
  0
TABLE
  2
LTYPE
  5
22
330
0
100
AcDbSymbolTable
 70
     1
  0
LTYPE
  5
23
330
21
100
AcDbSymbolTableRecord
100
AcDbLinetypeTableRecord
  2
BYBLOCK
 70
     0
  3

 72
    65
 73
     0
 40
0.0
  0
LTYPE
  5
24
330
21
100
AcDbSymbolTableRecord
100
AcDbLinetypeTableRecord
  2
BYLAYER
 70
     0
  3

 72
    65
 73
     0
 40
0.0
  0
LTYPE
  5
25
330
21
100
AcDbSymbolTableRecord
100
AcDbLinetypeTableRecord
  2
CONTINUOUS
 70
     0
  3
Solid line
 72
    65
 73
     0
 40
0.0
  0
ENDTAB
  0
TABLE
  2
LAYER
  5
A4D
330
0
100
AcDbSymbolTable
 70
3
  0
LAYER
  5
A4E
330
A4D
100
AcDbSymbolTableRecord
100
AcDbLayerTableRecord
  2
0
 70
   0
 62
   7
  6
CONTINUOUS
  0
LAYER
  5
A4F
330
A4D
100
AcDbSymbolTableRecord
100
AcDbLayerTableRecord
  2
none
 70
    0
 62
    7
  6
CONTINUOUS
  0
LAYER
  5
A50
330
A4D
100
AcDbSymbolTableRecord
100
AcDbLayerTableRecord
  2
Shape2DView018
 70
    0
 62
    7
  6
CONTINUOUS
  0
ENDTAB
  0
TABLE
  2
STYLE
  5
70
330
0
100
AcDbSymbolTable
 70
     2
  0
STYLE
  5
71
330
70
100
AcDbSymbolTableRecord
100
AcDbTextStyleTableRecord
  2
STANDARD
 70
     0
 40
0.0
 41
1.0
 50
0.0
 71
     0
 42
2.5
  3
arial.ttf
  4

  0
STYLE
  5
72
330
70
100
AcDbSymbolTableRecord
100
AcDbTextStyleTableRecord
  2
ANNOTATIVE
 70
     0
 40
0.0
 41
1.0
 50
0.0
 71
     0
 42
2.5
  3
arial.ttf
  4

  0
ENDTAB
  0
TABLE
  2
VIEW
  5
73
330
0
100
AcDbSymbolTable
 70
     0
  0
ENDTAB
  0
TABLE
  2
UCS
  5
74
330
0
100
AcDbSymbolTable
 70
     0
  0
ENDTAB
  0
TABLE
  2
APPID
  5
75
330
0
100
AcDbSymbolTable
 70
     2
  0
APPID
  5
76
330
75
100
AcDbSymbolTableRecord
100
AcDbRegAppTableRecord
  2
ACAD
 70
     0
  0
APPID
  5
77
330
75
100
AcDbSymbolTableRecord
100
AcDbRegAppTableRecord
  2
ACADANNOTATIVE
 70
     0
  0
ENDTAB
  0
TABLE
  2
DIMSTYLE
  5
78
330
0
100
AcDbSymbolTable
 70
     2
  0
DIMSTYLE
105
79
330
78
100
AcDbSymbolTableRecord
100
AcDbDimStyleTableRecord
  2
STANDARD
 70
     0
  3

  4

  5

  6

  7

 40
0.0
 41
2.5
 42
0.625
 43
3.75
 44
1.25
 45
0.0
 46
0.0
 47
0.0
 48
0.0
140
2.5
141
2.5
142
0.0
143
0.03937007874016
144
1.0
145
0.0
146
1.0
147
0.625
 71
     0
 72
     0
 73
     0
 74
     0
 75
     0
 76
     0
 77
     1
 78
     8
170
     0
171
     3
172
     1
173
     0
174
     0
175
     0
176
     0
177
     0
178
     0
270
     2
271
     2
272
     2
273
     2
274
     3
340
71
275
     0
280
     0
281
     0
282
     0
283
     0
284
     8
285
     0
286
     0
287
     3
288
     0
  0
ENDTAB
  0
TABLE
  2
BLOCK_RECORD
  5
A01
330
0
100
AcDbSymbolTable
  70
5
  0
BLOCK_RECORD
  5
A02
330
A01
100
AcDbSymbolTableRecord
100
AcDbBlockTableRecord
  2
*MODEL_SPACE
  0
BLOCK_RECORD
  5
A03
330
A01
100
AcDbSymbolTableRecord
100
AcDbBlockTableRecord
  2
*PAPER_SPACE
  0
ENDTAB
  0
ENDSEC
  0
SECTION
  2
BLOCKS
  0
BLOCK
  5
A04
330
A02
100
AcDbEntity
  8
0
100
AcDbBlockBegin
  2
*MODEL_SPACE
 70
   0
 10
0
 20
0
 30
0
  3
*MODEL_SPACE
  1
 
  0
ENDBLK
  5
A05
330
A02
100
AcDbEntity
  8
0
100
AcDbBlockEnd
  0
BLOCK
  5
A06
330
A03
100
AcDbEntity
 67
1
  8
0
100
AcDbBlockBegin
  2
*PAPER_SPACE
 70
   0
 10
0
 20
0
 30
0
  3
*PAPER_SPACE
  1
 
  0
ENDBLK
  5
A07
330
A03
100
AcDbEntity
 67
    1
  8
0
100
AcDbBlockEnd
  0
ENDSEC
  0
SECTION
  2
ENTITIES
  0
LINE
  5
A08
330
A02
100
AcDbEntity
  8
Shape2DView018
100
AcDbLine
 10
173
 20
-407
 30
0
 11
-173
 21
-407
 31
0
  0
ELLIPSE
  5
A09
330
A02
100
AcDbEntity
  8
Shape2DView018
100
AcDbEllipse
 10
173
 20
-402
 30
0
 11
1.26995e-08
 21
-5
 31
0
 40
1
 41
-2.53989e-09
 42
1.5708
  0
ELLIPSE
  5
A0A
330
A02
100
AcDbEntity
  8
Shape2DView018
100
AcDbEllipse
 10
-173
 20
-402
 30
0
 11
-1.26995e-08
 21
5
 31
0
 40
1
 41
-4.71239
 42
-3.14159
  0
LINE
  5
A0B
330
A02
100
AcDbEntity
  8
Shape2DView018
100
AcDbLine
 10
178
 20
-202
 30
0
 11
178
 21
-402
 31
0
  0
LINE
  5
A0C
330
A02
100
AcDbEntity
  8
Shape2DView018
100
AcDbLine
 10
-178
 20
-402
 30
0
 11
-178
 21
-202
 31
0
  0
ELLIPSE
  5
A0D
330
A02
100
AcDbEntity
  8
Shape2DView018
100
AcDbEllipse
 10
173
 20
-202
 30
0
 11
1.26995e-08
 21
-5
 31
0
 40
1
 41
1.5708
 42
3.14159
  0
ELLIPSE
  5
A0E
330
A02
100
AcDbEntity
  8
Shape2DView018
100
AcDbEllipse
 10
-173
 20
-202
 30
0
 11
-1.26995e-08
 21
5
 31
0
 40
1
 41
-2.53989e-09
 42
-4.71239
  0
LINE
  5
A0F
330
A02
100
AcDbEntity
  8
Shape2DView018
100
AcDbLine
 10
-173
 20
-197
 30
0
 11
173
 21
-197
 31
0
  0
LINE
  5
A10
330
A02
100
AcDbEntity
  8
Shape2DView018
100
AcDbLine
 10
-170
 20
-364.6
 30
0
 11
-171.25
 21
-364.6
 31
0
  0
ELLIPSE
  5
A11
330
A02
100
AcDbEntity
  8
Shape2DView018
100
AcDbEllipse
 10
-171.25
 20
-362
 30
0
 11
-3.30186e-09
 21
-2.6
 31
0
 40
1
 41
3.14159
 42
1.26995e-09
  0
LINE
  5
A12
330
A02
100
AcDbEntity
  8
Shape2DView018
100
AcDbLine
 10
-170
 20
-359.4
 30
0
 11
-171.25
 21
-359.4
 31
0
  0
LINE
  5
A13
330
A02
100
AcDbEntity
  8
Shape2DView018
100
AcDbLine
 10
-168.75
 20
-359.4
 30
0
 11
-170
 21
-359.4
 31
0
  0
ELLIPSE
  5
A14
330
A02
100
AcDbEntity
  8
Shape2DView018
100
AcDbEllipse
 10
-168.75
 20
-362
 30
0
 11
-3.30186e-09
 21
-2.6
 31
0
 40
1
 41
1.26995e-09
 42
3.14159
  0
LINE
  5
A15
330
A02
100
AcDbEntity
  8
Shape2DView018
100
AcDbLine
 10
-168.75
 20
-364.6
 30
0
 11
-170
 21
-364.6
 31
0
  0
LINE
  5
A16
330
A02
100
AcDbEntity
  8
Shape2DView018
100
AcDbLine
 10
-122.6
 20
-397.5
 30
0
 11
-122.6
 21
-396.25
 31
0
  0
ELLIPSE
  5
A17
330
A02
100
AcDbEntity
  8
Shape2DView018
100
AcDbEllipse
 10
-120
 20
-396.25
 30
0
 11
-3.30186e-09
 21
-2.6
 31
0
 40
1
 41
1.5708
 42
4.71239
  0
LINE
  5
A18
330
A02
100
AcDbEntity
  8
Shape2DView018
100
AcDbLine
 10
-117.4
 20
-397.5
 30
0
 11
-117.4
 21
-396.25
 31
0
  0
LINE
  5
A19
330
A02
100
AcDbEntity
  8
Shape2DView018
100
AcDbLine
 10
-117.4
 20
-398.75
 30
0
 11
-117.4
 21
-397.5
 31
0
  0
ELLIPSE
  5
A1A
330
A02
100
AcDbEntity
  8
Shape2DView018
100
AcDbEllipse
 10
-120
 20
-398.75
 30
0
 11
-3.30186e-09
 21
-2.6
 31
0
 40
1
 41
4.71239
 42
1.5708
  0
LINE
  5
A1B
330
A02
100
AcDbEntity
  8
Shape2DView018
100
AcDbLine
 10
-122.6
 20
-398.75
 30
0
 11
-122.6
 21
-397.5
 31
0
  0
ELLIPSE
  5
A1C
330
A02
100
AcDbEntity
  8
Shape2DView018
100
AcDbEllipse
 10
-120
 20
-347
 30
0
 11
-1.37773e-15
 21
-11.25
 31
0
 40
1
 41
0
 42
6.28318
  0
LINE
  5
A1D
330
A02
100
AcDbEntity
  8
Shape2DView018
100
AcDbLine
 10
-49
 20
-362.5
 30
0
 11
-71
 21
-362.5
 31
0
  0
LINE
  5
A1E
330
A02
100
AcDbEntity
  8
Shape2DView018
100
AcDbLine
 10
-49
 20
-331.5
 30
0
 11
-49
 21
-362.5
 31
0
  0
LINE
  5
A1F
330
A02
100
AcDbEntity
  8
Shape2DView018
100
AcDbLine
 10
-71
 20
-362.5
 30
0
 11
-71
 21
-331.5
 31
0
  0
LINE
  5
A20
330
A02
100
AcDbEntity
  8
Shape2DView018
100
AcDbLine
 10
-71
 20
-331.5
 30
0
 11
-49
 21
-331.5
 31
0
  0
LINE
  5
A21
330
A02
100
AcDbEntity
  8
Shape2DView018
100
AcDbLine
 10
-170
 20
-244.6
 30
0
 11
-171.25
 21
-244.6
 31
0
  0
ELLIPSE
  5
A22
330
A02
100
AcDbEntity
  8
Shape2DView018
100
AcDbEllipse
 10
-171.25
 20
-242
 30
0
 11
-3.30186e-09
 21
-2.6
 31
0
 40
1
 41
3.14159
 42
1.26994e-09
  0
LINE
  5
A23
330
A02
100
AcDbEntity
  8
Shape2DView018
100
AcDbLine
 10
-170
 20
-239.4
 30
0
 11
-171.25
 21
-239.4
 31
0
  0
LINE
  5
A24
330
A02
100
AcDbEntity
  8
Shape2DView018
100
AcDbLine
 10
-168.75
 20
-239.4
 30
0
 11
-170
 21
-239.4
 31
0
  0
ELLIPSE
  5
A25
330
A02
100
AcDbEntity
  8
Shape2DView018
100
AcDbEllipse
 10
-168.75
 20
-242
 30
0
 11
-3.30186e-09
 21
-2.6
 31
0
 40
1
 41
1.26995e-09
 42
3.14159
  0
LINE
  5
A26
330
A02
100
AcDbEntity
  8
Shape2DView018
100
AcDbLine
 10
-168.75
 20
-244.6
 30
0
 11
-170
 21
-244.6
 31
0
  0
ELLIPSE
  5
A27
330
A02
100
AcDbEntity
  8
Shape2DView018
100
AcDbEllipse
 10
-60
 20
-287
 30
0
 11
-7.65404e-16
 21
-6.25
 31
0
 40
1
 41
0
 42
6.28318
  0
ELLIPSE
  5
A28
330
A02
100
AcDbEntity
  8
Shape2DView018
100
AcDbEllipse
 10
7.50001
 20
-373.5
 30
0
 11
-2.14313e-16
 21
-1.75
 31
0
 40
1
 41
0
 42
6.28318
  0
ELLIPSE
  5
A29
330
A02
100
AcDbEntity
  8
Shape2DView018
100
AcDbEllipse
 10
20
 20
-326
 30
0
 11
-3.36778e-16
 21
-2.75
 31
0
 40
1
 41
0
 42
6.28318
  0
ELLIPSE
  5
A2A
330
A02
100
AcDbEntity
  8
Shape2DView018
100
AcDbEllipse
 10
26.4645
 20
-338.536
 30
0
 11
-1.22465e-16
 21
-1
 31
0
 40
1
 41
0
 42
6.28318
  0
ELLIPSE
  5
A2B
330
A02
100
AcDbEntity
  8
Shape2DView018
100
AcDbEllipse
 10
30
 20
-340
 30
0
 11
-1.22465e-16
 21
-1
 31
0
 40
1
 41
0
 42
6.28318
  0
ELLIPSE
  5
A2C
330
A02
100
AcDbEntity
  8
Shape2DView018
100
AcDbEllipse
 10
25
 20
-335
 30
0
 11
-1.22465e-16
 21
-1
 31
0
 40
1
 41
0
 42
6.28318
  0
ELLIPSE
  5
A2D
330
A02
100
AcDbEntity
  8
Shape2DView018
100
AcDbEllipse
 10
26.4645
 20
-331.464
 30
0
 11
-1.22465e-16
 21
-1
 31
0
 40
1
 41
0
 42
6.28318
  0
ELLIPSE
  5
A2E
330
A02
100
AcDbEntity
  8
Shape2DView018
100
AcDbEllipse
 10
30
 20
-335
 30
0
 11
-1.22465e-16
 21
-1
 31
0
 40
1
 41
0
 42
6.28318
  0
ELLIPSE
  5
A2F
330
A02
100
AcDbEntity
  8
Shape2DView018
100
AcDbEllipse
 10
33.5355
 20
-338.536
 30
0
 11
-1.22465e-16
 21
-1
 31
0
 40
1
 41
0
 42
6.28318
  0
ELLIPSE
  5
A30
330
A02
100
AcDbEntity
  8
Shape2DView018
100
AcDbEllipse
 10
35
 20
-335
 30
0
 11
-1.22465e-16
 21
-1
 31
0
 40
1
 41
0
 42
6.28318
  0
ELLIPSE
  5
A31
330
A02
100
AcDbEntity
  8
Shape2DView018
100
AcDbEllipse
 10
33.5355
 20
-331.464
 30
0
 11
-1.22465e-16
 21
-1
 31
0
 40
1
 41
0
 42
6.28318
  0
ELLIPSE
  5
A32
330
A02
100
AcDbEntity
  8
Shape2DView018
100
AcDbEllipse
 10
30
 20
-330
 30
0
 11
-1.22465e-16
 21
-1
 31
0
 40
1
 41
0
 42
6.28318
  0
LINE
  5
A33
330
A02
100
AcDbEntity
  8
Shape2DView018
100
AcDbLine
 10
108.5
 20
-340.5
 30
0
 11
40.5
 21
-340.5
 31
0
  0
LINE
  5
A34
330
A02
100
AcDbEntity
  8
Shape2DView018
100
AcDbLine
 10
108.5
 20
-306.5
 30
0
 11
108.5
 21
-340.5
 31
0
  0
LINE
  5
A35
330
A02
100
AcDbEntity
  8
Shape2DView018
100
AcDbLine
 10
40.5
 20
-340.5
 30
0
 11
40.5
 21
-306.5
 31
0
  0
LINE
  5
A36
330
A02
100
AcDbEntity
  8
Shape2DView018
100
AcDbLine
 10
40.5
 20
-306.5
 30
0
 11
108.5
 21
-306.5
 31
0
  0
LINE
  5
A37
330
A02
100
AcDbEntity
  8
Shape2DView018
100
AcDbLine
 10
117.4
 20
-397.5
 30
0
 11
117.4
 21
-396.25
 31
0
  0
ELLIPSE
  5
A38
330
A02
100
AcDbEntity
  8
Shape2DView018
100
AcDbEllipse
 10
120
 20
-396.25
 30
0
 11
-3.30186e-09
 21
-2.6
 31
0
 40
1
 41
1.5708
 42
4.71239
  0
LINE
  5
A39
330
A02
100
AcDbEntity
  8
Shape2DView018
100
AcDbLine
 10
122.6
 20
-397.5
 30
0
 11
122.6
 21
-396.25
 31
0
  0
LINE
  5
A3A
330
A02
100
AcDbEntity
  8
Shape2DView018
100
AcDbLine
 10
122.6
 20
-398.75
 30
0
 11
122.6
 21
-397.5
 31
0
  0
ELLIPSE
  5
A3B
330
A02
100
AcDbEntity
  8
Shape2DView018
100
AcDbEllipse
 10
120
 20
-398.75
 30
0
 11
-3.30186e-09
 21
-2.6
 31
0
 40
1
 41
4.71239
 42
1.5708
  0
LINE
  5
A3C
330
A02
100
AcDbEntity
  8
Shape2DView018
100
AcDbLine
 10
117.4
 20
-398.75
 30
0
 11
117.4
 21
-397.5
 31
0
  0
ELLIPSE
  5
A3D
330
A02
100
AcDbEntity
  8
Shape2DView018
100
AcDbEllipse
 10
142.5
 20
-373.5
 30
0
 11
-2.14313e-16
 21
-1.75
 31
0
 40
1
 41
0
 42
6.28318
  0
LINE
  5
A3E
330
A02
100
AcDbEntity
  8
Shape2DView018
100
AcDbLine
 10
170
 20
-364.6
 30
0
 11
168.75
 21
-364.6
 31
0
  0
ELLIPSE
  5
A3F
330
A02
100
AcDbEntity
  8
Shape2DView018
100
AcDbEllipse
 10
168.75
 20
-362
 30
0
 11
-3.30186e-09
 21
-2.6
 31
0
 40
1
 41
3.14159
 42
1.26995e-09
  0
LINE
  5
A40
330
A02
100
AcDbEntity
  8
Shape2DView018
100
AcDbLine
 10
170
 20
-359.4
 30
0
 11
168.75
 21
-359.4
 31
0
  0
LINE
  5
A41
330
A02
100
AcDbEntity
  8
Shape2DView018
100
AcDbLine
 10
171.25
 20
-359.4
 30
0
 11
170
 21
-359.4
 31
0
  0
ELLIPSE
  5
A42
330
A02
100
AcDbEntity
  8
Shape2DView018
100
AcDbEllipse
 10
171.25
 20
-362
 30
0
 11
-3.30186e-09
 21
-2.6
 31
0
 40
1
 41
1.26995e-09
 42
3.14159
  0
LINE
  5
A43
330
A02
100
AcDbEntity
  8
Shape2DView018
100
AcDbLine
 10
171.25
 20
-364.6
 30
0
 11
170
 21
-364.6
 31
0
  0
ELLIPSE
  5
A44
330
A02
100
AcDbEntity
  8
Shape2DView018
100
AcDbEllipse
 10
26
 20
-307
 30
0
 11
-6.12323e-16
 21
-5
 31
0
 40
1
 41
0
 42
6.28318
  0
ELLIPSE
  5
A45
330
A02
100
AcDbEntity
  8
Shape2DView018
100
AcDbEllipse
 10
7.50001
 20
-286.5
 30
0
 11
-2.14313e-16
 21
-1.75
 31
0
 40
1
 41
0
 42
6.28318
  0
ELLIPSE
  5
A46
330
A02
100
AcDbEntity
  8
Shape2DView018
100
AcDbEllipse
 10
142.5
 20
-286.5
 30
0
 11
-2.14313e-16
 21
-1.75
 31
0
 40
1
 41
0
 42
6.28318
  0
LINE
  5
A47
330
A02
100
AcDbEntity
  8
Shape2DView018
100
AcDbLine
 10
170
 20
-244.6
 30
0
 11
168.75
 21
-244.6
 31
0
  0
ELLIPSE
  5
A48
330
A02
100
AcDbEntity
  8
Shape2DView018
100
AcDbEllipse
 10
168.75
 20
-242
 30
0
 11
-3.30186e-09
 21
-2.6
 31
0
 40
1
 41
3.14159
 42
1.26994e-09
  0
LINE
  5
A49
330
A02
100
AcDbEntity
  8
Shape2DView018
100
AcDbLine
 10
170
 20
-239.4
 30
0
 11
168.75
 21
-239.4
 31
0
  0
LINE
  5
A4A
330
A02
100
AcDbEntity
  8
Shape2DView018
100
AcDbLine
 10
171.25
 20
-239.4
 30
0
 11
170
 21
-239.4
 31
0
  0
ELLIPSE
  5
A4B
330
A02
100
AcDbEntity
  8
Shape2DView018
100
AcDbEllipse
 10
171.25
 20
-242
 30
0
 11
-3.30186e-09
 21
-2.6
 31
0
 40
1
 41
1.26995e-09
 42
3.14159
  0
LINE
  5
A4C
330
A02
100
AcDbEntity
  8
Shape2DView018
100
AcDbLine
 10
171.25
 20
-244.6
 30
0
 11
170
 21
-244.6
 31
0
  0
ENDSEC
  0
SECTION
  2
OBJECTS
  0
DICTIONARY
  5
F000
330
0
100
AcDbDictionary
  3
ACAD_GROUP
350
F001
  0
DICTIONARY
  5
F001
330
F000
100
AcDbDictionary
  0
ENDSEC
  0
EOF