<?xml version="1.0"?>
<!DOCTYPE svg PUBLIC "-//W3C//DTD SVG 1.1//EN" "http://www.w3.org/Graphics/SVG/1.1/DTD/svg11.dtd">
<svg width="110.5647187431214mm" height="85.65176827168972mm" viewBox="0 0 110.5647187431214 85.65176827168972" xmlns="http://www.w3.org/2000/svg" version="1.1">
<g id="Unfold_Sketch" transform="translate(67.738835,42.825884) scale(1,-1)">
<path id="Unfold_Sketch_w0000"  d="M -37.87400163700689 19.999999999999986 A 2 2 0 0 1 -36.1446 20.9954A 41.8 41.8 0 0 0 -34.9651 22.906Q -34.27273427703557 24.102834001828324 -35.06450423009499 25.236404233828686 A 7 7 0 0 0 -25.2364 35.0645Q -24.10283400182817 34.27273427703552 -22.90595162441483 34.96508801905077 A 41.8 41.8 0 0 0 22.906 34.9651Q 24.102834001828143 34.27273427703554 25.23640423382868 35.06450423009499 A 7 7 0 0 0 35.0645 25.2364Q 34.27273427703555 24.10283400182834 34.96508801905077 22.905951624414826 A 41.8 41.8 0 0 0 34.9651 -22.906Q 34.27273427703554 -24.10283400182805 35.06450423009499 -25.236404233828683 A 7 7 0 0 0 25.2364 -35.0645Q 24.102834001827986 -34.27273427703556 22.905951624414826 -34.96508801905077 A 41.8 41.8 0 0 0 -22.906 -34.9651Q -24.102834001828384 -34.27273427703554 -25.23640423382869 -35.06450423009499 A 7 7 0 0 0 -35.0645 -25.2364Q -34.272734277035546 -24.102834001828086 -34.96508801905077 -22.90595162441483 A 41.8 41.8 0 0 0 -36.1446 -20.9954A 2 2 0 0 1 -37.874 -20L -63.65486677646163 -20.000000000000004 A 3 3 0 0 0 -66.6549 -17L -66.65486677646163 16.99999999999997 A 3 3 0 0 0 -63.6549 20L -37.87400163700689 19.99999999999999 " stroke="#000080" stroke-width="0.35 px" style="stroke-width:0.35;stroke-miterlimit:4;stroke-dasharray:none;fill:none;fill-opacity:1;fill-rule: evenodd"/>
<circle cx="0.0" cy="0.0" r="7.0" stroke="#000080" stroke-width="0.35 px" style="stroke-width:0.35;stroke-miterlimit:4;stroke-dasharray:none;fill:none"/>
<path id="Unfold_Sketch_w0002"  d="M -61.154866776461624 -10.000000000000018 L -55.904866776461624 -10.000000000000021 A 2.5 2.5 0 0 0 -55.9049 -15L -61.154866776461624 -15.000000000000023 A 2.5 2.5 0 1 0 -61.1549 -10" stroke="#000080" stroke-width="0.35 px" style="stroke-width:0.35;stroke-miterlimit:4;stroke-dasharray:none;fill:none;fill-opacity:1;fill-rule: evenodd"/>
<path id="Unfold_Sketch_w0003"  d="M -61.15486677646163 14.999999999999986 L -55.90486677646163 14.999999999999986 A 2.5 2.5 0 0 0 -55.9049 10L -61.15486677646163 9.999999999999986 A 2.5 2.5 0 1 0 -61.1549 15" stroke="#000080" stroke-width="0.35 px" style="stroke-width:0.35;stroke-miterlimit:4;stroke-dasharray:none;fill:none;fill-opacity:1;fill-rule: evenodd"/>
<circle cx="-29.557063453597685" cy="29.557063453597685" r="2.95" stroke="#000080" stroke-width="0.35 px" style="stroke-width:0.35;stroke-miterlimit:4;stroke-dasharray:none;fill:none"/>
<circle cx="29.55706345359768" cy="29.557063453597692" r="2.95" stroke="#000080" stroke-width="0.35 px" style="stroke-width:0.35;stroke-miterlimit:4;stroke-dasharray:none;fill:none"/>
<circle cx="29.55706345359769" cy="-29.557063453597685" r="2.95" stroke="#000080" stroke-width="0.35 px" style="stroke-width:0.35;stroke-miterlimit:4;stroke-dasharray:none;fill:none"/>
<circle cx="-29.55706345359768" cy="-29.557063453597685" r="2.95" stroke="#000080" stroke-width="0.35 px" style="stroke-width:0.35;stroke-miterlimit:4;stroke-dasharray:none;fill:none"/>
<path id="Unfold_Sketch_w0008"  d="M -46.82743338823081 -19.999999999999996 L -46.827433388230816 19.99999999999999 " stroke="#000080" stroke-width="0.35 px" style="stroke-width:0.35;stroke-miterlimit:4;stroke-dasharray:none;fill:none;fill-opacity:1;fill-rule: evenodd"/>
<title>b'Unfold_Sketch'</title>
</g>
</svg>