999
FreeCAD v0.19 23756 (Git)
  0
SECTION
  2
HEADER
  9
$ACADVER
  1
AC1014
  9
$ACADMAINTVER
 70
     9
  9
$DWGCODEPAGE
  3
ANSI_1252
  9
$TEXTSTYLE
  7
STANDARD
  9
$DIMSTYLE
  2
STANDARD
  9
$DIMTXSTY
  7
STANDARD
  9
$CMLSTYLE
  2
STANDARD
  9
$PEXTMAX
 10
50
 20
50
 30
50
  9
$PEXTMIN
 10
0
 20
0
 30
0
  9
$HANDSEED
  5
FFFF
  0
ENDSEC
  0
SECTION
  2
CLASSES
  0
CLASS
  1
ACDBDICTIONARYWDFLT
  2
AcDbDictionaryWithDefault
  3
ObjectDBX Classes
 90
        0
280
     0
281
     0
  0
CLASS
  1
XRECORD
  2
AcDbXrecord
  3
ObjectDBX Classes
 90
        0
280
     0
281
     0
  0
CLASS
  1
LWPOLYLINE
  2
AcDbPolyline
  3
ObjectDBX Classes
 90
        0
280
     0
281
     1
  0
ENDSEC
  0
SECTION
  2
TABLES
  0
TABLE
  2
VPORT
  5
20
330
0
100
AcDbSymbolTable
 70
     1
  0
VPORT
  5
21
330
20
100
AcDbSymbolTableRecord
100
AcDbViewportTableRecord
  2
*ACTIVE
 70
     0
  0
ENDTAB
  0
TABLE
  2
LTYPE
  5
22
330
0
100
AcDbSymbolTable
 70
     1
  0
LTYPE
  5
23
330
21
100
AcDbSymbolTableRecord
100
AcDbLinetypeTableRecord
  2
BYBLOCK
 70
     0
  3

 72
    65
 73
     0
 40
0.0
  0
LTYPE
  5
24
330
21
100
AcDbSymbolTableRecord
100
AcDbLinetypeTableRecord
  2
BYLAYER
 70
     0
  3

 72
    65
 73
     0
 40
0.0
  0
LTYPE
  5
25
330
21
100
AcDbSymbolTableRecord
100
AcDbLinetypeTableRecord
  2
CONTINUOUS
 70
     0
  3
Solid line
 72
    65
 73
     0
 40
0.0
  0
ENDTAB
  0
TABLE
  2
LAYER
  5
AB4
330
0
100
AcDbSymbolTable
 70
3
  0
LAYER
  5
AB5
330
AB4
100
AcDbSymbolTableRecord
100
AcDbLayerTableRecord
  2
0
 70
   0
 62
   7
  6
CONTINUOUS
  0
LAYER
  5
AB6
330
AB4
100
AcDbSymbolTableRecord
100
AcDbLayerTableRecord
  2
none
 70
    0
 62
    7
  6
CONTINUOUS
  0
LAYER
  5
AB7
330
AB4
100
AcDbSymbolTableRecord
100
AcDbLayerTableRecord
  2
Shape2DView009
 70
    0
 62
    7
  6
CONTINUOUS
  0
ENDTAB
  0
TABLE
  2
STYLE
  5
70
330
0
100
AcDbSymbolTable
 70
     2
  0
STYLE
  5
71
330
70
100
AcDbSymbolTableRecord
100
AcDbTextStyleTableRecord
  2
STANDARD
 70
     0
 40
0.0
 41
1.0
 50
0.0
 71
     0
 42
2.5
  3
arial.ttf
  4

  0
STYLE
  5
72
330
70
100
AcDbSymbolTableRecord
100
AcDbTextStyleTableRecord
  2
ANNOTATIVE
 70
     0
 40
0.0
 41
1.0
 50
0.0
 71
     0
 42
2.5
  3
arial.ttf
  4

  0
ENDTAB
  0
TABLE
  2
VIEW
  5
73
330
0
100
AcDbSymbolTable
 70
     0
  0
ENDTAB
  0
TABLE
  2
UCS
  5
74
330
0
100
AcDbSymbolTable
 70
     0
  0
ENDTAB
  0
TABLE
  2
APPID
  5
75
330
0
100
AcDbSymbolTable
 70
     2
  0
APPID
  5
76
330
75
100
AcDbSymbolTableRecord
100
AcDbRegAppTableRecord
  2
ACAD
 70
     0
  0
APPID
  5
77
330
75
100
AcDbSymbolTableRecord
100
AcDbRegAppTableRecord
  2
ACADANNOTATIVE
 70
     0
  0
ENDTAB
  0
TABLE
  2
DIMSTYLE
  5
78
330
0
100
AcDbSymbolTable
 70
     2
  0
DIMSTYLE
105
79
330
78
100
AcDbSymbolTableRecord
100
AcDbDimStyleTableRecord
  2
STANDARD
 70
     0
  3

  4

  5

  6

  7

 40
0.0
 41
2.5
 42
0.625
 43
3.75
 44
1.25
 45
0.0
 46
0.0
 47
0.0
 48
0.0
140
2.5
141
2.5
142
0.0
143
0.03937007874016
144
1.0
145
0.0
146
1.0
147
0.625
 71
     0
 72
     0
 73
     0
 74
     0
 75
     0
 76
     0
 77
     1
 78
     8
170
     0
171
     3
172
     1
173
     0
174
     0
175
     0
176
     0
177
     0
178
     0
270
     2
271
     2
272
     2
273
     2
274
     3
340
71
275
     0
280
     0
281
     0
282
     0
283
     0
284
     8
285
     0
286
     0
287
     3
288
     0
  0
ENDTAB
  0
TABLE
  2
BLOCK_RECORD
  5
A01
330
0
100
AcDbSymbolTable
  70
5
  0
BLOCK_RECORD
  5
A02
330
A01
100
AcDbSymbolTableRecord
100
AcDbBlockTableRecord
  2
*MODEL_SPACE
  0
BLOCK_RECORD
  5
A03
330
A01
100
AcDbSymbolTableRecord
100
AcDbBlockTableRecord
  2
*PAPER_SPACE
  0
ENDTAB
  0
ENDSEC
  0
SECTION
  2
BLOCKS
  0
BLOCK
  5
A04
330
A02
100
AcDbEntity
  8
0
100
AcDbBlockBegin
  2
*MODEL_SPACE
 70
   0
 10
0
 20
0
 30
0
  3
*MODEL_SPACE
  1
 
  0
ENDBLK
  5
A05
330
A02
100
AcDbEntity
  8
0
100
AcDbBlockEnd
  0
BLOCK
  5
A06
330
A03
100
AcDbEntity
 67
1
  8
0
100
AcDbBlockBegin
  2
*PAPER_SPACE
 70
   0
 10
0
 20
0
 30
0
  3
*PAPER_SPACE
  1
 
  0
ENDBLK
  5
A07
330
A03
100
AcDbEntity
 67
    1
  8
0
100
AcDbBlockEnd
  0
ENDSEC
  0
SECTION
  2
ENTITIES
  0
LINE
  5
A08
330
A02
100
AcDbEntity
  8
Shape2DView009
100
AcDbLine
 10
-175
 20
107.5
 30
0
 11
175
 21
107.5
 31
0
  0
LINE
  5
A09
330
A02
100
AcDbEntity
  8
Shape2DView009
100
AcDbLine
 10
-180
 20
282.5
 30
0
 11
-180
 21
112.5
 31
0
  0
LINE
  5
A0A
330
A02
100
AcDbEntity
  8
Shape2DView009
100
AcDbLine
 10
-180
 20
282.5
 30
0
 11
-175
 21
287.5
 31
0
  0
LINE
  5
A0B
330
A02
100
AcDbEntity
  8
Shape2DView009
100
AcDbLine
 10
-175
 20
107.5
 30
0
 11
-180
 21
112.5
 31
0
  0
LINE
  5
A0C
330
A02
100
AcDbEntity
  8
Shape2DView009
100
AcDbLine
 10
-175
 20
287.5
 30
0
 11
-170
 21
287.5
 31
0
  0
LINE
  5
A0D
330
A02
100
AcDbEntity
  8
Shape2DView009
100
AcDbLine
 10
-170
 20
287.5
 30
0
 11
-165
 21
292.5
 31
0
  0
LINE
  5
A0E
330
A02
100
AcDbEntity
  8
Shape2DView009
100
AcDbLine
 10
175
 20
107.5
 30
0
 11
180
 21
112.5
 31
0
  0
LINE
  5
A0F
330
A02
100
AcDbEntity
  8
Shape2DView009
100
AcDbLine
 10
-165
 20
292.5
 30
0
 11
-165
 21
322.5
 31
0
  0
LINE
  5
A10
330
A02
100
AcDbEntity
  8
Shape2DView009
100
AcDbLine
 10
180
 20
112.5
 30
0
 11
180
 21
282.5
 31
0
  0
LINE
  5
A11
330
A02
100
AcDbEntity
  8
Shape2DView009
100
AcDbLine
 10
-165
 20
322.5
 30
0
 11
-160
 21
327.5
 31
0
  0
LINE
  5
A12
330
A02
100
AcDbEntity
  8
Shape2DView009
100
AcDbLine
 10
180
 20
282.5
 30
0
 11
175
 21
287.5
 31
0
  0
LINE
  5
A13
330
A02
100
AcDbEntity
  8
Shape2DView009
100
AcDbLine
 10
160
 20
327.5
 30
0
 11
-160
 21
327.5
 31
0
  0
LINE
  5
A14
330
A02
100
AcDbEntity
  8
Shape2DView009
100
AcDbLine
 10
175
 20
287.5
 30
0
 11
170
 21
287.5
 31
0
  0
LINE
  5
A15
330
A02
100
AcDbEntity
  8
Shape2DView009
100
AcDbLine
 10
160
 20
327.5
 30
0
 11
165
 21
322.5
 31
0
  0
LINE
  5
A16
330
A02
100
AcDbEntity
  8
Shape2DView009
100
AcDbLine
 10
170
 20
287.5
 30
0
 11
165
 21
292.5
 31
0
  0
LINE
  5
A17
330
A02
100
AcDbEntity
  8
Shape2DView009
100
AcDbLine
 10
165
 20
292.5
 30
0
 11
165
 21
322.5
 31
0
  0
ELLIPSE
  5
A18
330
A02
100
AcDbEntity
  8
Shape2DView009
100
AcDbEllipse
 10
-147
 20
317.5
 30
0
 11
-1.37154e-07
 21
4
 31
0
 40
1
 41
0
 42
6.28318
  0
ELLIPSE
  5
A19
330
A02
100
AcDbEntity
  8
Shape2DView009
100
AcDbEllipse
 10
-147
 20
297.5
 30
0
 11
-1.37154e-07
 21
4
 31
0
 40
1
 41
0
 42
6.28318
  0
ELLIPSE
  5
A1A
330
A02
100
AcDbEntity
  8
Shape2DView009
100
AcDbEllipse
 10
-127
 20
317.5
 30
0
 11
-1.37154e-07
 21
4
 31
0
 40
1
 41
0
 42
6.28318
  0
ELLIPSE
  5
A1B
330
A02
100
AcDbEntity
  8
Shape2DView009
100
AcDbEllipse
 10
-127
 20
297.5
 30
0
 11
-1.37154e-07
 21
4
 31
0
 40
1
 41
0
 42
6.28318
  0
ELLIPSE
  5
A1C
330
A02
100
AcDbEntity
  8
Shape2DView009
100
AcDbEllipse
 10
-170
 20
257.5
 30
0
 11
-8.91503e-08
 21
2.6
 31
0
 40
1
 41
0
 42
6.28318
  0
ELLIPSE
  5
A1D
330
A02
100
AcDbEntity
  8
Shape2DView009
100
AcDbEllipse
 10
-141.397
 20
225.897
 30
0
 11
-8.57214e-08
 21
2.5
 31
0
 40
1
 41
0
 42
6.28318
  0
LINE
  5
A1E
330
A02
100
AcDbEntity
  8
Shape2DView009
100
AcDbLine
 10
-122.543
 20
210.579
 30
0
 11
-129.622
 21
217.657
 31
0
  0
ELLIPSE
  5
A1F
330
A02
100
AcDbEntity
  8
Shape2DView009
100
AcDbEllipse
 10
-89
 20
173.5
 30
0
 11
-1.71443e-06
 21
50
 31
0
 40
1
 41
-0.735377
 42
-5.54781
  0
ELLIPSE
  5
A20
330
A02
100
AcDbEntity
  8
Shape2DView009
100
AcDbEllipse
 10
-89
 20
173.5
 30
0
 11
-2.05731e-06
 21
60
 31
0
 40
1
 41
-0.743719
 42
-5.53947
  0
LINE
  5
A21
330
A02
100
AcDbEntity
  8
Shape2DView009
100
AcDbLine
 10
-55.4567
 20
210.579
 30
0
 11
-48.3782
 21
217.657
 31
0
  0
ELLIPSE
  5
A22
330
A02
100
AcDbEntity
  8
Shape2DView009
100
AcDbEllipse
 10
-14.5
 20
275.5
 30
0
 11
-9.90559e-08
 21
3
 31
0
 40
1
 41
0
 42
6.28318
  0
ELLIPSE
  5
A23
330
A02
100
AcDbEntity
  8
Shape2DView009
100
AcDbEllipse
 10
-36.6034
 20
225.897
 30
0
 11
-8.57214e-08
 21
2.5
 31
0
 40
1
 41
0
 42
6.28318
  0
ELLIPSE
  5
A24
330
A02
100
AcDbEntity
  8
Shape2DView009
100
AcDbEllipse
 10
-170
 20
197.5
 30
0
 11
-8.91503e-08
 21
2.6
 31
0
 40
1
 41
0
 42
6.28318
  0
LINE
  5
A25
330
A02
100
AcDbEntity
  8
Shape2DView009
100
AcDbLine
 10
-126.079
 20
139.957
 30
0
 11
-133.157
 21
132.878
 31
0
  0
ELLIPSE
  5
A26
330
A02
100
AcDbEntity
  8
Shape2DView009
100
AcDbEllipse
 10
-89
 20
173.5
 30
0
 11
-1.71443e-06
 21
50
 31
0
 40
1
 41
-5.44777
 42
-3.97701
  0
ELLIPSE
  5
A27
330
A02
100
AcDbEntity
  8
Shape2DView009
100
AcDbEllipse
 10
-89
 20
173.5
 30
0
 11
-2.05731e-06
 21
60
 31
0
 40
1
 41
-5.45611
 42
-3.96867
  0
LINE
  5
A28
330
A02
100
AcDbEntity
  8
Shape2DView009
100
AcDbLine
 10
-126.079
 20
207.043
 30
0
 11
-133.157
 21
214.122
 31
0
  0
LINE
  5
A29
330
A02
100
AcDbEntity
  8
Shape2DView009
100
AcDbLine
 10
-113.335
 20
201.371
 30
0
 11
-120.419
 21
208.455
 31
0
  0
ELLIPSE
  5
A2A
330
A02
100
AcDbEntity
  8
Shape2DView009
100
AcDbEllipse
 10
-89
 20
173.5
 30
0
 11
-1.26868e-06
 21
37
 31
0
 40
1
 41
-0.717779
 42
-5.56541
  0
ELLIPSE
  5
A2B
330
A02
100
AcDbEntity
  8
Shape2DView009
100
AcDbEllipse
 10
-89
 20
173.5
 30
0
 11
-1.61156e-06
 21
47
 31
0
 40
1
 41
-0.732182
 42
-5.551
  0
LINE
  5
A2C
330
A02
100
AcDbEntity
  8
Shape2DView009
100
AcDbLine
 10
-64.6646
 20
201.371
 30
0
 11
-57.5808
 21
208.455
 31
0
  0
LINE
  5
A2D
330
A02
100
AcDbEntity
  8
Shape2DView009
100
AcDbLine
 10
-104.11
 20
192.146
 30
0
 11
-111.209
 21
199.244
 31
0
  0
ELLIPSE
  5
A2E
330
A02
100
AcDbEntity
  8
Shape2DView009
100
AcDbEllipse
 10
-89
 20
173.5
 30
0
 11
-8.22926e-07
 21
24
 31
0
 40
1
 41
-0.681042
 42
-5.60214
  0
ELLIPSE
  5
A2F
330
A02
100
AcDbEntity
  8
Shape2DView009
100
AcDbEllipse
 10
-89
 20
173.5
 30
0
 11
-1.16581e-06
 21
34
 31
0
 40
1
 41
-0.711802
 42
-5.57138
  0
LINE
  5
A30
330
A02
100
AcDbEntity
  8
Shape2DView009
100
AcDbLine
 10
-73.8895
 20
192.146
 30
0
 11
-66.7912
 21
199.244
 31
0
  0
LINE
  5
A31
330
A02
100
AcDbEntity
  8
Shape2DView009
100
AcDbLine
 10
-116.871
 20
149.165
 30
0
 11
-123.955
 21
142.081
 31
0
  0
ELLIPSE
  5
A32
330
A02
100
AcDbEntity
  8
Shape2DView009
100
AcDbEllipse
 10
-89
 20
173.5
 30
0
 11
-1.26868e-06
 21
37
 31
0
 40
1
 41
-5.43017
 42
-3.99461
  0
ELLIPSE
  5
A33
330
A02
100
AcDbEntity
  8
Shape2DView009
100
AcDbEllipse
 10
-89
 20
173.5
 30
0
 11
-1.61156e-06
 21
47
 31
0
 40
1
 41
-5.44457
 42
-3.98021
  0
LINE
  5
A34
330
A02
100
AcDbEntity
  8
Shape2DView009
100
AcDbLine
 10
-116.871
 20
197.835
 30
0
 11
-123.955
 21
204.919
 31
0
  0
LINE
  5
A35
330
A02
100
AcDbEntity
  8
Shape2DView009
100
AcDbLine
 10
-107.646
 20
158.39
 30
0
 11
-114.744
 21
151.291
 31
0
  0
ELLIPSE
  5
A36
330
A02
100
AcDbEntity
  8
Shape2DView009
100
AcDbEllipse
 10
-89
 20
173.5
 30
0
 11
-8.22926e-07
 21
24
 31
0
 40
1
 41
-5.39343
 42
-4.03135
  0
ELLIPSE
  5
A37
330
A02
100
AcDbEntity
  8
Shape2DView009
100
AcDbEllipse
 10
-89
 20
173.5
 30
0
 11
-1.16581e-06
 21
34
 31
0
 40
1
 41
-5.42419
 42
-4.00059
  0
LINE
  5
A38
330
A02
100
AcDbEntity
  8
Shape2DView009
100
AcDbLine
 10
-107.646
 20
188.61
 30
0
 11
-114.744
 21
195.709
 31
0
  0
LINE
  5
A39
330
A02
100
AcDbEntity
  8
Shape2DView009
100
AcDbLine
 10
-94.8069
 20
182.842
 30
0
 11
-101.976
 21
190.011
 31
0
  0
ELLIPSE
  5
A3A
330
A02
100
AcDbEntity
  8
Shape2DView009
100
AcDbEllipse
 10
-89
 20
173.5
 30
0
 11
-3.77174e-07
 21
11
 31
0
 40
1
 41
-0.556122
 42
-5.72706
  0
ELLIPSE
  5
A3B
330
A02
100
AcDbEntity
  8
Shape2DView009
100
AcDbEllipse
 10
-89
 20
173.5
 30
0
 11
-7.2006e-07
 21
21
 31
0
 40
1
 41
-0.666068
 42
-5.61712
  0
LINE
  5
A3C
330
A02
100
AcDbEntity
  8
Shape2DView009
100
AcDbLine
 10
-83.1931
 20
182.842
 30
0
 11
-76.0241
 21
190.011
 31
0
  0
LINE
  5
A3D
330
A02
100
AcDbEntity
  8
Shape2DView009
100
AcDbLine
 10
-98.3424
 20
167.693
 30
0
 11
-105.511
 21
160.524
 31
0
  0
ELLIPSE
  5
A3E
330
A02
100
AcDbEntity
  8
Shape2DView009
100
AcDbEllipse
 10
-89
 20
173.5
 30
0
 11
-3.77174e-07
 21
11
 31
0
 40
1
 41
-5.26851
 42
-4.15627
  0
ELLIPSE
  5
A3F
330
A02
100
AcDbEntity
  8
Shape2DView009
100
AcDbEllipse
 10
-89
 20
173.5
 30
0
 11
-7.2006e-07
 21
21
 31
0
 40
1
 41
-5.37846
 42
-4.04632
  0
LINE
  5
A40
330
A02
100
AcDbEntity
  8
Shape2DView009
100
AcDbLine
 10
-98.3424
 20
179.307
 30
0
 11
-105.511
 21
186.476
 31
0
  0
ELLIPSE
  5
A41
330
A02
100
AcDbEntity
  8
Shape2DView009
100
AcDbEllipse
 10
-170
 20
137.5
 30
0
 11
-8.91503e-08
 21
2.6
 31
0
 40
1
 41
0
 42
6.28318
  0
ELLIPSE
  5
A42
330
A02
100
AcDbEntity
  8
Shape2DView009
100
AcDbEllipse
 10
-141.397
 20
121.103
 30
0
 11
-8.57214e-08
 21
2.5
 31
0
 40
1
 41
0
 42
6.28318
  0
ELLIPSE
  5
A43
330
A02
100
AcDbEntity
  8
Shape2DView009
100
AcDbEllipse
 10
-89
 20
173.5
 30
0
 11
-3.77174e-07
 21
11
 31
0
 40
1
 41
-3.69771
 42
-2.58547
  0
LINE
  5
A44
330
A02
100
AcDbEntity
  8
Shape2DView009
100
AcDbLine
 10
-76.0241
 20
156.989
 30
0
 11
-83.1931
 21
164.158
 31
0
  0
LINE
  5
A45
330
A02
100
AcDbEntity
  8
Shape2DView009
100
AcDbLine
 10
-101.976
 20
156.989
 30
0
 11
-94.8069
 21
164.158
 31
0
  0
ELLIPSE
  5
A46
330
A02
100
AcDbEntity
  8
Shape2DView009
100
AcDbEllipse
 10
-89
 20
173.5
 30
0
 11
-7.2006e-07
 21
21
 31
0
 40
1
 41
-3.80766
 42
-2.47553
  0
ELLIPSE
  5
A47
330
A02
100
AcDbEntity
  8
Shape2DView009
100
AcDbEllipse
 10
-89
 20
173.5
 30
0
 11
-8.22926e-07
 21
24
 31
0
 40
1
 41
-3.82263
 42
-2.46055
  0
LINE
  5
A48
330
A02
100
AcDbEntity
  8
Shape2DView009
100
AcDbLine
 10
-66.7912
 20
147.756
 30
0
 11
-73.8895
 21
154.854
 31
0
  0
LINE
  5
A49
330
A02
100
AcDbEntity
  8
Shape2DView009
100
AcDbLine
 10
-111.209
 20
147.756
 30
0
 11
-104.11
 21
154.854
 31
0
  0
ELLIPSE
  5
A4A
330
A02
100
AcDbEntity
  8
Shape2DView009
100
AcDbEllipse
 10
-89
 20
173.5
 30
0
 11
-1.16581e-06
 21
34
 31
0
 40
1
 41
-3.8534
 42
-2.42979
  0
ELLIPSE
  5
A4B
330
A02
100
AcDbEntity
  8
Shape2DView009
100
AcDbEllipse
 10
-89
 20
173.5
 30
0
 11
-1.26868e-06
 21
37
 31
0
 40
1
 41
-3.85937
 42
-2.42381
  0
LINE
  5
A4C
330
A02
100
AcDbEntity
  8
Shape2DView009
100
AcDbLine
 10
-57.5808
 20
138.545
 30
0
 11
-64.6646
 21
145.629
 31
0
  0
LINE
  5
A4D
330
A02
100
AcDbEntity
  8
Shape2DView009
100
AcDbLine
 10
-120.419
 20
138.545
 30
0
 11
-113.335
 21
145.629
 31
0
  0
ELLIPSE
  5
A4E
330
A02
100
AcDbEntity
  8
Shape2DView009
100
AcDbEllipse
 10
-89
 20
173.5
 30
0
 11
-1.61156e-06
 21
47
 31
0
 40
1
 41
-3.87377
 42
-2.40941
  0
ELLIPSE
  5
A4F
330
A02
100
AcDbEntity
  8
Shape2DView009
100
AcDbEllipse
 10
-89
 20
173.5
 30
0
 11
-1.71443e-06
 21
50
 31
0
 40
1
 41
-3.87697
 42
-2.40622
  0
LINE
  5
A50
330
A02
100
AcDbEntity
  8
Shape2DView009
100
AcDbLine
 10
-48.3782
 20
129.343
 30
0
 11
-55.4567
 21
136.421
 31
0
  0
LINE
  5
A51
330
A02
100
AcDbEntity
  8
Shape2DView009
100
AcDbLine
 10
-129.622
 20
129.343
 30
0
 11
-122.543
 21
136.421
 31
0
  0
ELLIPSE
  5
A52
330
A02
100
AcDbEntity
  8
Shape2DView009
100
AcDbEllipse
 10
-89
 20
173.5
 30
0
 11
-2.05731e-06
 21
60
 31
0
 40
1
 41
-3.88531
 42
-2.39787
  0
ELLIPSE
  5
A53
330
A02
100
AcDbEntity
  8
Shape2DView009
100
AcDbEllipse
 10
-89
 20
173.5
 30
0
 11
-3.77174e-07
 21
11
 31
0
 40
1
 41
-2.12692
 42
-1.01467
  0
LINE
  5
A54
330
A02
100
AcDbEntity
  8
Shape2DView009
100
AcDbLine
 10
-79.6576
 20
179.307
 30
0
 11
-72.4886
 21
186.476
 31
0
  0
LINE
  5
A55
330
A02
100
AcDbEntity
  8
Shape2DView009
100
AcDbLine
 10
-79.6576
 20
167.693
 30
0
 11
-72.4886
 21
160.524
 31
0
  0
ELLIPSE
  5
A56
330
A02
100
AcDbEntity
  8
Shape2DView009
100
AcDbEllipse
 10
-89
 20
173.5
 30
0
 11
-7.2006e-07
 21
21
 31
0
 40
1
 41
-2.23686
 42
-0.904729
  0
ELLIPSE
  5
A57
330
A02
100
AcDbEntity
  8
Shape2DView009
100
AcDbEllipse
 10
-89
 20
173.5
 30
0
 11
-8.22926e-07
 21
24
 31
0
 40
1
 41
-2.25184
 42
-0.889754
  0
LINE
  5
A58
330
A02
100
AcDbEntity
  8
Shape2DView009
100
AcDbLine
 10
-70.354
 20
188.61
 30
0
 11
-63.2557
 21
195.709
 31
0
  0
LINE
  5
A59
330
A02
100
AcDbEntity
  8
Shape2DView009
100
AcDbLine
 10
-70.354
 20
158.39
 30
0
 11
-63.2557
 21
151.291
 31
0
  0
ELLIPSE
  5
A5A
330
A02
100
AcDbEntity
  8
Shape2DView009
100
AcDbEllipse
 10
-89
 20
173.5
 30
0
 11
-1.16581e-06
 21
34
 31
0
 40
1
 41
-2.2826
 42
-0.858994
  0
ELLIPSE
  5
A5B
330
A02
100
AcDbEntity
  8
Shape2DView009
100
AcDbEllipse
 10
-89
 20
173.5
 30
0
 11
-1.26868e-06
 21
37
 31
0
 40
1
 41
-2.28858
 42
-0.853017
  0
LINE
  5
A5C
330
A02
100
AcDbEntity
  8
Shape2DView009
100
AcDbLine
 10
-61.1291
 20
197.835
 30
0
 11
-54.0453
 21
204.919
 31
0
  0
LINE
  5
A5D
330
A02
100
AcDbEntity
  8
Shape2DView009
100
AcDbLine
 10
-61.1291
 20
149.165
 30
0
 11
-54.0453
 21
142.081
 31
0
  0
ELLIPSE
  5
A5E
330
A02
100
AcDbEntity
  8
Shape2DView009
100
AcDbEllipse
 10
-89
 20
173.5
 30
0
 11
-1.61156e-06
 21
47
 31
0
 40
1
 41
-2.30298
 42
-0.838615
  0
ELLIPSE
  5
A5F
330
A02
100
AcDbEntity
  8
Shape2DView009
100
AcDbEllipse
 10
-89
 20
173.5
 30
0
 11
-1.71443e-06
 21
50
 31
0
 40
1
 41
-2.30617
 42
-0.835419
  0
LINE
  5
A60
330
A02
100
AcDbEntity
  8
Shape2DView009
100
AcDbLine
 10
-51.9211
 20
207.043
 30
0
 11
-44.8427
 21
214.122
 31
0
  0
LINE
  5
A61
330
A02
100
AcDbEntity
  8
Shape2DView009
100
AcDbLine
 10
-51.9211
 20
139.957
 30
0
 11
-44.8427
 21
132.878
 31
0
  0
ELLIPSE
  5
A62
330
A02
100
AcDbEntity
  8
Shape2DView009
100
AcDbEllipse
 10
-89
 20
173.5
 30
0
 11
-2.05731e-06
 21
60
 31
0
 40
1
 41
-2.31452
 42
-0.827077
  0
ELLIPSE
  5
A63
330
A02
100
AcDbEntity
  8
Shape2DView009
100
AcDbEllipse
 10
-36.6034
 20
121.103
 30
0
 11
-8.57214e-08
 21
2.5
 31
0
 40
1
 41
0
 42
6.28318
  0
ELLIPSE
  5
A64
330
A02
100
AcDbEntity
  8
Shape2DView009
100
AcDbEllipse
 10
14.5
 20
275.5
 30
0
 11
-9.90559e-08
 21
3
 31
0
 40
1
 41
0
 42
6.28318
  0
ELLIPSE
  5
A65
330
A02
100
AcDbEntity
  8
Shape2DView009
100
AcDbEllipse
 10
36.6034
 20
225.897
 30
0
 11
-7.3022e-08
 21
2.5
 31
0
 40
1
 41
0
 42
6.28318
  0
ELLIPSE
  5
A66
330
A02
100
AcDbEntity
  8
Shape2DView009
100
AcDbEllipse
 10
127
 20
317.5
 30
0
 11
-1.37154e-07
 21
4
 31
0
 40
1
 41
0
 42
6.28318
  0
ELLIPSE
  5
A67
330
A02
100
AcDbEntity
  8
Shape2DView009
100
AcDbEllipse
 10
127
 20
297.5
 30
0
 11
-1.37154e-07
 21
4
 31
0
 40
1
 41
0
 42
6.28318
  0
ELLIPSE
  5
A68
330
A02
100
AcDbEntity
  8
Shape2DView009
100
AcDbEllipse
 10
147
 20
317.5
 30
0
 11
-1.37154e-07
 21
4
 31
0
 40
1
 41
0
 42
6.28318
  0
ELLIPSE
  5
A69
330
A02
100
AcDbEntity
  8
Shape2DView009
100
AcDbEllipse
 10
147
 20
297.5
 30
0
 11
-1.37154e-07
 21
4
 31
0
 40
1
 41
0
 42
6.28318
  0
LINE
  5
A6A
330
A02
100
AcDbEntity
  8
Shape2DView009
100
AcDbLine
 10
55.4566
 20
210.579
 30
0
 11
48.3782
 21
217.657
 31
0
  0
ELLIPSE
  5
A6B
330
A02
100
AcDbEntity
  8
Shape2DView009
100
AcDbEllipse
 10
89
 20
173.5
 30
0
 11
-1.46044e-06
 21
50
 31
0
 40
1
 41
-0.735377
 42
-5.54781
  0
ELLIPSE
  5
A6C
330
A02
100
AcDbEntity
  8
Shape2DView009
100
AcDbEllipse
 10
89
 20
173.5
 30
0
 11
-1.75253e-06
 21
60
 31
0
 40
1
 41
-0.743719
 42
-5.53947
  0
LINE
  5
A6D
330
A02
100
AcDbEntity
  8
Shape2DView009
100
AcDbLine
 10
122.543
 20
210.579
 30
0
 11
129.622
 21
217.657
 31
0
  0
ELLIPSE
  5
A6E
330
A02
100
AcDbEntity
  8
Shape2DView009
100
AcDbEllipse
 10
170
 20
257.5
 30
0
 11
-8.91503e-08
 21
2.6
 31
0
 40
1
 41
0
 42
6.28318
  0
ELLIPSE
  5
A6F
330
A02
100
AcDbEntity
  8
Shape2DView009
100
AcDbEllipse
 10
141.397
 20
225.897
 30
0
 11
-7.3022e-08
 21
2.5
 31
0
 40
1
 41
0
 42
6.28318
  0
LINE
  5
A70
330
A02
100
AcDbEntity
  8
Shape2DView009
100
AcDbLine
 10
51.9211
 20
207.043
 30
0
 11
44.8427
 21
214.122
 31
0
  0
ELLIPSE
  5
A71
330
A02
100
AcDbEntity
  8
Shape2DView009
100
AcDbEllipse
 10
89
 20
173.5
 30
0
 11
-1.46044e-06
 21
50
 31
0
 40
1
 41
-5.44777
 42
-3.97701
  0
ELLIPSE
  5
A72
330
A02
100
AcDbEntity
  8
Shape2DView009
100
AcDbEllipse
 10
89
 20
173.5
 30
0
 11
-1.75253e-06
 21
60
 31
0
 40
1
 41
-5.45611
 42
-3.96867
  0
LINE
  5
A73
330
A02
100
AcDbEntity
  8
Shape2DView009
100
AcDbLine
 10
51.9211
 20
139.957
 30
0
 11
44.8427
 21
132.878
 31
0
  0
LINE
  5
A74
330
A02
100
AcDbEntity
  8
Shape2DView009
100
AcDbLine
 10
61.1291
 20
197.835
 30
0
 11
54.0453
 21
204.919
 31
0
  0
ELLIPSE
  5
A75
330
A02
100
AcDbEntity
  8
Shape2DView009
100
AcDbEllipse
 10
89
 20
173.5
 30
0
 11
-1.08072e-06
 21
37
 31
0
 40
1
 41
-5.43017
 42
-3.99461
  0
ELLIPSE
  5
A76
330
A02
100
AcDbEntity
  8
Shape2DView009
100
AcDbEllipse
 10
89
 20
173.5
 30
0
 11
-1.37281e-06
 21
47
 31
0
 40
1
 41
-5.44457
 42
-3.98021
  0
LINE
  5
A77
330
A02
100
AcDbEntity
  8
Shape2DView009
100
AcDbLine
 10
61.1291
 20
149.165
 30
0
 11
54.0453
 21
142.081
 31
0
  0
LINE
  5
A78
330
A02
100
AcDbEntity
  8
Shape2DView009
100
AcDbLine
 10
70.354
 20
188.61
 30
0
 11
63.2557
 21
195.709
 31
0
  0
ELLIPSE
  5
A79
330
A02
100
AcDbEntity
  8
Shape2DView009
100
AcDbEllipse
 10
89
 20
173.5
 30
0
 11
-7.01011e-07
 21
24
 31
0
 40
1
 41
-5.39343
 42
-4.03135
  0
ELLIPSE
  5
A7A
330
A02
100
AcDbEntity
  8
Shape2DView009
100
AcDbEllipse
 10
89
 20
173.5
 30
0
 11
-9.93099e-07
 21
34
 31
0
 40
1
 41
-5.42419
 42
-4.00059
  0
LINE
  5
A7B
330
A02
100
AcDbEntity
  8
Shape2DView009
100
AcDbLine
 10
70.354
 20
158.39
 30
0
 11
63.2557
 21
151.291
 31
0
  0
LINE
  5
A7C
330
A02
100
AcDbEntity
  8
Shape2DView009
100
AcDbLine
 10
79.6576
 20
179.307
 30
0
 11
72.4886
 21
186.476
 31
0
  0
ELLIPSE
  5
A7D
330
A02
100
AcDbEntity
  8
Shape2DView009
100
AcDbEllipse
 10
89
 20
173.5
 30
0
 11
-3.21297e-07
 21
11
 31
0
 40
1
 41
-5.26851
 42
-4.15627
  0
ELLIPSE
  5
A7E
330
A02
100
AcDbEntity
  8
Shape2DView009
100
AcDbEllipse
 10
89
 20
173.5
 30
0
 11
-6.13384e-07
 21
21
 31
0
 40
1
 41
-5.37846
 42
-4.04632
  0
LINE
  5
A7F
330
A02
100
AcDbEntity
  8
Shape2DView009
100
AcDbLine
 10
79.6576
 20
167.693
 30
0
 11
72.4886
 21
160.524
 31
0
  0
LINE
  5
A80
330
A02
100
AcDbEntity
  8
Shape2DView009
100
AcDbLine
 10
10.5
 20
169.5
 30
0
 11
10.5
 21
147.5
 31
0
  0
ELLIPSE
  5
A81
330
A02
100
AcDbEntity
  8
Shape2DView009
100
AcDbEllipse
 10
-2.71011e-06
 20
169.5
 30
0
 11
-3.33361e-07
 21
10.5
 31
0
 40
1
 41
-1.5708
 42
-4.71239
  0
LINE
  5
A82
330
A02
100
AcDbEntity
  8
Shape2DView009
100
AcDbLine
 10
-10.5
 20
169.5
 30
0
 11
-10.5
 21
147.5
 31
0
  0
ELLIPSE
  5
A83
330
A02
100
AcDbEntity
  8
Shape2DView009
100
AcDbEllipse
 10
-2.71011e-06
 20
147.5
 30
0
 11
-3.33361e-07
 21
10.5
 31
0
 40
1
 41
-4.71239
 42
-1.5708
  0
ELLIPSE
  5
A84
330
A02
100
AcDbEntity
  8
Shape2DView009
100
AcDbEllipse
 10
36.6034
 20
121.103
 30
0
 11
-7.3022e-08
 21
2.5
 31
0
 40
1
 41
0
 42
6.28318
  0
LINE
  5
A85
330
A02
100
AcDbEntity
  8
Shape2DView009
100
AcDbLine
 10
64.6646
 20
201.371
 30
0
 11
57.5808
 21
208.455
 31
0
  0
ELLIPSE
  5
A86
330
A02
100
AcDbEntity
  8
Shape2DView009
100
AcDbEllipse
 10
89
 20
173.5
 30
0
 11
-1.08072e-06
 21
37
 31
0
 40
1
 41
-0.717779
 42
-5.56541
  0
ELLIPSE
  5
A87
330
A02
100
AcDbEntity
  8
Shape2DView009
100
AcDbEllipse
 10
89
 20
173.5
 30
0
 11
-1.37281e-06
 21
47
 31
0
 40
1
 41
-0.732182
 42
-5.551
  0
LINE
  5
A88
330
A02
100
AcDbEntity
  8
Shape2DView009
100
AcDbLine
 10
113.335
 20
201.371
 30
0
 11
120.419
 21
208.455
 31
0
  0
LINE
  5
A89
330
A02
100
AcDbEntity
  8
Shape2DView009
100
AcDbLine
 10
73.8895
 20
192.146
 30
0
 11
66.7912
 21
199.244
 31
0
  0
ELLIPSE
  5
A8A
330
A02
100
AcDbEntity
  8
Shape2DView009
100
AcDbEllipse
 10
89
 20
173.5
 30
0
 11
-7.01011e-07
 21
24
 31
0
 40
1
 41
-0.681042
 42
-5.60214
  0
ELLIPSE
  5
A8B
330
A02
100
AcDbEntity
  8
Shape2DView009
100
AcDbEllipse
 10
89
 20
173.5
 30
0
 11
-9.93099e-07
 21
34
 31
0
 40
1
 41
-0.711802
 42
-5.57138
  0
LINE
  5
A8C
330
A02
100
AcDbEntity
  8
Shape2DView009
100
AcDbLine
 10
104.11
 20
192.146
 30
0
 11
111.209
 21
199.244
 31
0
  0
LINE
  5
A8D
330
A02
100
AcDbEntity
  8
Shape2DView009
100
AcDbLine
 10
83.1931
 20
182.842
 30
0
 11
76.0241
 21
190.011
 31
0
  0
ELLIPSE
  5
A8E
330
A02
100
AcDbEntity
  8
Shape2DView009
100
AcDbEllipse
 10
89
 20
173.5
 30
0
 11
-3.21297e-07
 21
11
 31
0
 40
1
 41
-0.556122
 42
-5.72706
  0
ELLIPSE
  5
A8F
330
A02
100
AcDbEntity
  8
Shape2DView009
100
AcDbEllipse
 10
89
 20
173.5
 30
0
 11
-6.13384e-07
 21
21
 31
0
 40
1
 41
-0.666068
 42
-5.61712
  0
LINE
  5
A90
330
A02
100
AcDbEntity
  8
Shape2DView009
100
AcDbLine
 10
94.8069
 20
182.842
 30
0
 11
101.976
 21
190.011
 31
0
  0
LINE
  5
A91
330
A02
100
AcDbEntity
  8
Shape2DView009
100
AcDbLine
 10
98.3424
 20
179.307
 30
0
 11
105.511
 21
186.476
 31
0
  0
ELLIPSE
  5
A92
330
A02
100
AcDbEntity
  8
Shape2DView009
100
AcDbEllipse
 10
89
 20
173.5
 30
0
 11
-3.21297e-07
 21
11
 31
0
 40
1
 41
-2.12692
 42
-1.01467
  0
ELLIPSE
  5
A93
330
A02
100
AcDbEntity
  8
Shape2DView009
100
AcDbEllipse
 10
89
 20
173.5
 30
0
 11
-6.13384e-07
 21
21
 31
0
 40
1
 41
-2.23686
 42
-0.904729
  0
LINE
  5
A94
330
A02
100
AcDbEntity
  8
Shape2DView009
100
AcDbLine
 10
98.3424
 20
167.693
 30
0
 11
105.511
 21
160.524
 31
0
  0
LINE
  5
A95
330
A02
100
AcDbEntity
  8
Shape2DView009
100
AcDbLine
 10
107.646
 20
188.61
 30
0
 11
114.744
 21
195.709
 31
0
  0
ELLIPSE
  5
A96
330
A02
100
AcDbEntity
  8
Shape2DView009
100
AcDbEllipse
 10
89
 20
173.5
 30
0
 11
-7.01011e-07
 21
24
 31
0
 40
1
 41
-2.25184
 42
-0.889754
  0
ELLIPSE
  5
A97
330
A02
100
AcDbEntity
  8
Shape2DView009
100
AcDbEllipse
 10
89
 20
173.5
 30
0
 11
-9.93099e-07
 21
34
 31
0
 40
1
 41
-2.2826
 42
-0.858994
  0
LINE
  5
A98
330
A02
100
AcDbEntity
  8
Shape2DView009
100
AcDbLine
 10
107.646
 20
158.39
 30
0
 11
114.744
 21
151.291
 31
0
  0
LINE
  5
A99
330
A02
100
AcDbEntity
  8
Shape2DView009
100
AcDbLine
 10
116.871
 20
197.835
 30
0
 11
123.955
 21
204.919
 31
0
  0
ELLIPSE
  5
A9A
330
A02
100
AcDbEntity
  8
Shape2DView009
100
AcDbEllipse
 10
89
 20
173.5
 30
0
 11
-1.08072e-06
 21
37
 31
0
 40
1
 41
-2.28858
 42
-0.853017
  0
ELLIPSE
  5
A9B
330
A02
100
AcDbEntity
  8
Shape2DView009
100
AcDbEllipse
 10
89
 20
173.5
 30
0
 11
-1.37281e-06
 21
47
 31
0
 40
1
 41
-2.30298
 42
-0.838615
  0
LINE
  5
A9C
330
A02
100
AcDbEntity
  8
Shape2DView009
100
AcDbLine
 10
116.871
 20
149.165
 30
0
 11
123.955
 21
142.081
 31
0
  0
ELLIPSE
  5
A9D
330
A02
100
AcDbEntity
  8
Shape2DView009
100
AcDbEllipse
 10
170
 20
197.5
 30
0
 11
-8.91503e-08
 21
2.6
 31
0
 40
1
 41
0
 42
6.28318
  0
LINE
  5
A9E
330
A02
100
AcDbEntity
  8
Shape2DView009
100
AcDbLine
 10
126.079
 20
207.043
 30
0
 11
133.157
 21
214.122
 31
0
  0
ELLIPSE
  5
A9F
330
A02
100
AcDbEntity
  8
Shape2DView009
100
AcDbEllipse
 10
89
 20
173.5
 30
0
 11
-1.46044e-06
 21
50
 31
0
 40
1
 41
-2.30617
 42
-0.835419
  0
ELLIPSE
  5
AA0
330
A02
100
AcDbEntity
  8
Shape2DView009
100
AcDbEllipse
 10
89
 20
173.5
 30
0
 11
-1.75253e-06
 21
60
 31
0
 40
1
 41
-2.31452
 42
-0.827077
  0
LINE
  5
AA1
330
A02
100
AcDbEntity
  8
Shape2DView009
100
AcDbLine
 10
126.079
 20
139.957
 30
0
 11
133.157
 21
132.878
 31
0
  0
ELLIPSE
  5
AA2
330
A02
100
AcDbEntity
  8
Shape2DView009
100
AcDbEllipse
 10
89
 20
173.5
 30
0
 11
-3.21297e-07
 21
11
 31
0
 40
1
 41
-3.69771
 42
-2.58547
  0
LINE
  5
AA3
330
A02
100
AcDbEntity
  8
Shape2DView009
100
AcDbLine
 10
101.976
 20
156.989
 30
0
 11
94.8069
 21
164.158
 31
0
  0
LINE
  5
AA4
330
A02
100
AcDbEntity
  8
Shape2DView009
100
AcDbLine
 10
76.0241
 20
156.989
 30
0
 11
83.1931
 21
164.158
 31
0
  0
ELLIPSE
  5
AA5
330
A02
100
AcDbEntity
  8
Shape2DView009
100
AcDbEllipse
 10
89
 20
173.5
 30
0
 11
-6.13384e-07
 21
21
 31
0
 40
1
 41
-3.80766
 42
-2.47553
  0
ELLIPSE
  5
AA6
330
A02
100
AcDbEntity
  8
Shape2DView009
100
AcDbEllipse
 10
89
 20
173.5
 30
0
 11
-7.01011e-07
 21
24
 31
0
 40
1
 41
-3.82263
 42
-2.46055
  0
LINE
  5
AA7
330
A02
100
AcDbEntity
  8
Shape2DView009
100
AcDbLine
 10
111.209
 20
147.756
 30
0
 11
104.11
 21
154.854
 31
0
  0
LINE
  5
AA8
330
A02
100
AcDbEntity
  8
Shape2DView009
100
AcDbLine
 10
66.7912
 20
147.756
 30
0
 11
73.8895
 21
154.854
 31
0
  0
ELLIPSE
  5
AA9
330
A02
100
AcDbEntity
  8
Shape2DView009
100
AcDbEllipse
 10
89
 20
173.5
 30
0
 11
-9.93099e-07
 21
34
 31
0
 40
1
 41
-3.8534
 42
-2.42979
  0
ELLIPSE
  5
AAA
330
A02
100
AcDbEntity
  8
Shape2DView009
100
AcDbEllipse
 10
89
 20
173.5
 30
0
 11
-1.08072e-06
 21
37
 31
0
 40
1
 41
-3.85937
 42
-2.42381
  0
LINE
  5
AAB
330
A02
100
AcDbEntity
  8
Shape2DView009
100
AcDbLine
 10
120.419
 20
138.545
 30
0
 11
113.335
 21
145.629
 31
0
  0
LINE
  5
AAC
330
A02
100
AcDbEntity
  8
Shape2DView009
100
AcDbLine
 10
57.5808
 20
138.545
 30
0
 11
64.6646
 21
145.629
 31
0
  0
ELLIPSE
  5
AAD
330
A02
100
AcDbEntity
  8
Shape2DView009
100
AcDbEllipse
 10
89
 20
173.5
 30
0
 11
-1.37281e-06
 21
47
 31
0
 40
1
 41
-3.87377
 42
-2.40941
  0
ELLIPSE
  5
AAE
330
A02
100
AcDbEntity
  8
Shape2DView009
100
AcDbEllipse
 10
89
 20
173.5
 30
0
 11
-1.46044e-06
 21
50
 31
0
 40
1
 41
-3.87697
 42
-2.40622
  0
LINE
  5
AAF
330
A02
100
AcDbEntity
  8
Shape2DView009
100
AcDbLine
 10
129.622
 20
129.343
 30
0
 11
122.543
 21
136.421
 31
0
  0
LINE
  5
AB0
330
A02
100
AcDbEntity
  8
Shape2DView009
100
AcDbLine
 10
48.3782
 20
129.343
 30
0
 11
55.4566
 21
136.421
 31
0
  0
ELLIPSE
  5
AB1
330
A02
100
AcDbEntity
  8
Shape2DView009
100
AcDbEllipse
 10
89
 20
173.5
 30
0
 11
-1.75253e-06
 21
60
 31
0
 40
1
 41
-3.88531
 42
-2.39787
  0
ELLIPSE
  5
AB2
330
A02
100
AcDbEntity
  8
Shape2DView009
100
AcDbEllipse
 10
141.397
 20
121.103
 30
0
 11
-7.3022e-08
 21
2.5
 31
0
 40
1
 41
0
 42
6.28318
  0
ELLIPSE
  5
AB3
330
A02
100
AcDbEntity
  8
Shape2DView009
100
AcDbEllipse
 10
170
 20
137.5
 30
0
 11
-8.91503e-08
 21
2.6
 31
0
 40
1
 41
0
 42
6.28318
  0
ENDSEC
  0
SECTION
  2
OBJECTS
  0
DICTIONARY
  5
F000
330
0
100
AcDbDictionary
  3
ACAD_GROUP
350
F001
  0
DICTIONARY
  5
F001
330
F000
100
AcDbDictionary
  0
ENDSEC
  0
EOF